<svg width="112" height="112" viewBox="0 0 112 112" fill="none" xmlns="http://www.w3.org/2000/svg">
<g clip-path="url(#clip0_2849_82785)">
<path fill-rule="evenodd" clip-rule="evenodd" d="M44.053 30.1443V14L83.253 14.001C87.0452 14.001 90.1726 17.1283 90.1726 20.9205V27.8401V30.1443V87.0319C90.1726 92.5548 85.6954 97.0108 80.1726 97.0108H72.877H38L34.8274 97.0118H27.9079C24.1159 97.0118 21 93.8845 21 90.0923V37.0553H37.1334C40.9256 37.0553 44.053 33.9371 44.053 30.1443ZM22.3534 32.441L39.441 15.3441V30.1443C39.441 31.4621 38.4505 32.441 37.1334 32.441H22.3534ZM79.5521 31.2627C80.315 30.2818 80.1383 28.8682 79.1574 28.1053C78.1765 27.3424 76.7629 27.5191 76 28.4999L31.9479 82.2373C31.185 83.2181 31.3617 84.6318 32.3426 85.3947C33.3235 86.1576 34.7371 85.9809 35.5 85L79.5521 31.2627Z" fill="#B3C6F1"/>
</g>
<defs>
<clipPath id="clip0_2849_82785">
<rect width="112" height="112"/>
</clipPath>
</defs>
</svg>
