<svg width="89" height="67" viewBox="0 0 89 67" fill="none" xmlns="http://www.w3.org/2000/svg">
<path d="M70.9539 22.8107C68.4606 10.1607 57.3506 0.664062 44.0039 0.664062C38.5772 0.664062 33.5539 2.24073 29.3006 4.95406L34.6539 10.3074C37.4406 8.84073 40.6306 7.9974 44.0039 7.9974C55.1506 7.9974 64.1706 17.0174 64.1706 28.1641V29.9974H69.6706C75.7572 29.9974 80.6706 34.9107 80.6706 40.9974C80.6706 45.1407 78.3239 48.7341 74.9506 50.6041L80.2672 55.9207C84.9239 52.5841 88.0039 47.1574 88.0039 40.9974C88.0039 31.3174 80.4872 23.4707 70.9539 22.8107ZM11.0039 5.32073L21.0872 15.3674C9.39057 15.8807 0.00390625 25.4874 0.00390625 37.3307C0.00390625 49.4674 9.86724 59.3307 22.0039 59.3307H65.0139L72.3472 66.6641L77.0039 62.0074L15.6606 0.664062L11.0039 5.32073ZM28.3472 22.6641L57.6806 51.9974H22.0039C13.9006 51.9974 7.33724 45.4341 7.33724 37.3307C7.33724 29.2274 13.9006 22.6641 22.0039 22.6641H28.3472Z" fill="#252525"/>
</svg>
