<svg xmlns="http://www.w3.org/2000/svg" width="24" height="24" fill="none" viewBox="0 0 24 24">
  <g id="tab_data-dashboard_selectedblack" transform="translate(-556 -188)">
    <g id="home-hashtag">
      <path id="Vector" d="M0,2.79H.7A2.1,2.1,0,0,0,2.79.7V0H0Z" transform="translate(568.7 202.09)" />
      <path id="Vector-2" data-name="Vector" d="M0,.7A2.1,2.1,0,0,0,2.09,2.79h.7V0H0Z" transform="translate(564.51 202.09)" />
      <path id="Vector-3" data-name="Vector" d="M0,2.09v.7H2.79V0h-.7A2.1,2.1,0,0,0,0,2.09Z" transform="translate(564.51 197.91)" />
      <path id="Vector-4" data-name="Vector" d="M18.03,4.818,12.28.788A4.836,4.836,0,0,0,6.8.918L1.79,4.828A5.115,5.115,0,0,0,0,8.468v6.9A4.628,4.628,0,0,0,4.61,20H15.38a4.62,4.62,0,0,0,4.61-4.62V8.6A5.06,5.06,0,0,0,18.03,4.818Zm-3.15,7.97a3.5,3.5,0,0,1-3.49,3.49H8.6a3.493,3.493,0,0,1-3.49-3.49V10A3.5,3.5,0,0,1,8.6,6.508h2.79A3.493,3.493,0,0,1,14.88,10v2.79Z" transform="translate(558 190.002)" />
      <path id="Vector-5" data-name="Vector" d="M.7,0H0V2.79H2.79v-.7A2.1,2.1,0,0,0,.7,0Z" transform="translate(568.7 197.91)" />
      <path id="Vector-6" data-name="Vector" d="M0,0H24V24H0Z" transform="translate(580 212) rotate(180)" opacity="0"/>
    </g>
  </g>
</svg>
