<svg xmlns="http://www.w3.org/2000/svg" width="24" height="24" fill="none" viewBox="0 0 24 24">
  <g id="tab_data-statistics_selected" transform="translate(-364 -252)">
    <g id="presention-chart">
      <path id="Vector" d="M0,0H24V24H0Z" transform="translate(364 252)" opacity="0"/>
      <path id="Vector-2" data-name="Vector" d="M20.75,1.5H.75A.755.755,0,0,1,0,.75.755.755,0,0,1,.75,0h20a.755.755,0,0,1,.75.75A.755.755,0,0,1,20.75,1.5Z" transform="translate(365.25 253.25)" />
      <path id="Vector-3" data-name="Vector" d="M9.422,5.34a.753.753,0,0,1-.67.41.764.764,0,0,1-.33-.08L4.752,3.84,1.082,5.67a.764.764,0,0,1-.33.08.753.753,0,0,1-.67-.41.74.74,0,0,1,.34-1.01L4,2.54V0H5.5V2.54l3.58,1.79A.74.74,0,0,1,9.422,5.34Z" transform="translate(371.248 269)" />
      <path id="Vector-4" data-name="Vector" d="M0,0V12.1A2.59,2.59,0,0,0,2.9,15H15.1A2.59,2.59,0,0,0,18,12.1V0ZM13.98,6.58,10.83,9.21a1.257,1.257,0,0,1-1.01.28,1.239,1.239,0,0,1-.86-.6L7.91,7.14,4.98,9.58a.725.725,0,0,1-.48.17.759.759,0,0,1-.58-.27.749.749,0,0,1,.1-1.06L7.17,5.79a1.257,1.257,0,0,1,1.01-.28,1.239,1.239,0,0,1,.86.6l1.05,1.75,2.93-2.44a.749.749,0,0,1,1.06.1A.758.758,0,0,1,13.98,6.58Z" transform="translate(367 254)" />
    </g>
  </g>
</svg>
