<svg xmlns="http://www.w3.org/2000/svg" width="24" height="24" fill="none" viewBox="0 0 24 24">
  <g id="tab_education_selected" transform="translate(-492 -188)">
    <path id="Vector" d="M17,1V3.5A3.5,3.5,0,0,1,13.5,7H3.5A3.5,3.5,0,0,1,0,3.5V2.85A2.855,2.855,0,0,1,2.85,0H16A1,1,0,0,1,17,1Z" transform="translate(495.5 203)" />
    <path id="Vector-2" data-name="Vector" d="M12,0H5C1,0,0,1,0,5v7.58A4.3,4.3,0,0,1,2.85,11.5H16a1,1,0,0,0,1-1V5C17,1,16,0,12,0ZM9.5,8.75h-5a.75.75,0,0,1,0-1.5h5a.75.75,0,0,1,0,1.5Zm3-3.5h-8a.75.75,0,0,1,0-1.5h8a.75.75,0,0,1,0,1.5Z" transform="translate(495.5 190)" />
    <path id="Vector-3" data-name="Vector" d="M0,0H24V24H0Z" transform="translate(516 212) rotate(180)" opacity="0"/>
  </g>
</svg>
