<svg xmlns="http://www.w3.org/2000/svg" width="24" height="24" fill="none" viewBox="0 0 24 24">
  <g id="tab_overview_selected" transform="translate(-684 -252)">
    <g id="element-4">
      <path id="Vector" d="M8.5,8.9V2.1C8.5.6,7.86,0,6.27,0H2.23C.64,0,0,.6,0,2.1V8.9C0,10.4.64,11,2.23,11H6.27C7.86,11,8.5,10.4,8.5,8.9Z" transform="translate(697 254)" />
      <path id="Vector-2" data-name="Vector" d="M8.5,2.1V8.9c0,1.5-.64,2.1-2.23,2.1H2.23C.64,11,0,10.4,0,8.9V2.1C0,.6.64,0,2.23,0H6.27C7.86,0,8.5.6,8.5,2.1Z" transform="translate(686.5 263)" />
      <path id="Vector-3" data-name="Vector" d="M0,0H24V24H0Z" transform="translate(708 276) rotate(180)" opacity="0"/>
      <path id="Vector-4" data-name="Vector" d="M8.5,4.9V2.1C8.5.6,7.86,0,6.27,0H2.23C.64,0,0,.6,0,2.1V4.9C0,6.4.64,7,2.23,7H6.27C7.86,7,8.5,6.4,8.5,4.9Z" transform="translate(697 267)" />
      <path id="Vector-5" data-name="Vector" d="M8.5,4.9V2.1C8.5.6,7.86,0,6.27,0H2.23C.64,0,0,.6,0,2.1V4.9C0,6.4.64,7,2.23,7H6.27C7.86,7,8.5,6.4,8.5,4.9Z" transform="translate(686.5 254)" />
    </g>
  </g>
</svg>
