<svg xmlns="http://www.w3.org/2000/svg" width="24" height="24" fill="none" viewBox="0 0 24 24">
  <g id="tab_study-setting_selected" transform="translate(-300 -190)">
    <g id="setting-2">
      <path id="Vector" d="M18.1,6.659c-1.81,0-2.55-1.28-1.65-2.85a1.9,1.9,0,0,0-.7-2.59L14.02.229a1.669,1.669,0,0,0-2.28.6l-.11.19c-.9,1.57-2.38,1.57-3.29,0L8.23.829a1.641,1.641,0,0,0-2.26-.6l-1.73.99a1.908,1.908,0,0,0-.7,2.6c.91,1.56.17,2.84-1.64,2.84A1.906,1.906,0,0,0,0,8.559v1.76a1.906,1.906,0,0,0,1.9,1.9c1.81,0,2.55,1.28,1.64,2.85a1.9,1.9,0,0,0,.7,2.59l1.73.99a1.669,1.669,0,0,0,2.28-.6l.11-.19c.9-1.57,2.38-1.57,3.29,0l.11.19a1.669,1.669,0,0,0,2.28.6l1.73-.99a1.9,1.9,0,0,0,.7-2.59c-.91-1.57-.17-2.85,1.64-2.85a1.906,1.906,0,0,0,1.9-1.9V8.559A1.921,1.921,0,0,0,18.1,6.659ZM10,12.689a3.25,3.25,0,1,1,3.25-3.25A3.256,3.256,0,0,1,10,12.689Z" transform="translate(302 192.561)" />
      <path id="Vector-2" data-name="Vector" d="M0,0H24V24H0Z" transform="translate(324 214) rotate(180)" opacity="0"/>
    </g>
  </g>
</svg>
