<svg xmlns="http://www.w3.org/2000/svg" width="24" height="24" fill="none" viewBox="0 0 24 24">
  <g id="tab_subject_selected" transform="translate(8914 -4840)">
    <path id="Vector" d="M0,0H24V24H0Z" transform="translate(-8914 4840)" opacity="0"/>
    <g id="Group_7208" data-name="Group 7208">
      <path id="Vector-2" data-name="Vector" d="M10,5A5,5,0,1,1,5,0,5,5,0,0,1,10,5Z" transform="translate(-8908 4842)" />
      <path id="Vector_-_Outline" data-name="Vector - Outline" d="M5-.75A5.75,5.75,0,1,1-.75,5,5.757,5.757,0,0,1,5-.75Zm0,10A4.25,4.25,0,1,0,.75,5,4.255,4.255,0,0,0,5,9.25Z" transform="translate(-8908 4842)" />
      <path id="Vector-3" data-name="Vector" d="M0,7C0,3.13,3.85,0,8.59,0c-2.782,4.778,0,7,0,7C8.559,6.953,8.59,7,0,7Z" transform="translate(-8911.59 4855)" />
      <path id="Vector_-_Outline-2" data-name="Vector - Outline" d="M0,7.75A.75.75,0,0,1-.75,7,7.111,7.111,0,0,1,2.044,1.467,10.357,10.357,0,0,1,8.59-.75a.75.75,0,0,1,.65.376.75.75,0,0,1,0,.751A6.189,6.189,0,0,0,8.233,4.962,3.07,3.07,0,0,0,9.043,6.4a.773.773,0,0,1,.17.182A.75.75,0,0,1,8.429,7.73H8.258l-.749,0C6.466,7.738,4.3,7.75,0,7.75ZM7.321.832C3.9,1.277,1.222,3.49.806,6.25c3.317,0,5.232-.01,6.306-.015a4.929,4.929,0,0,1-.329-.887A6.757,6.757,0,0,1,7.321.832Z" transform="translate(-8911.59 4855)" />
      <path id="Exclusion_3" data-name="Exclusion 3" d="M4.694,9.391a4.7,4.7,0,1,1,4.7-4.7A4.7,4.7,0,0,1,4.694,9.391Zm.1-3.072a.576.576,0,1,0,.581.576A.577.577,0,0,0,4.8,6.319Zm0-4.469a.432.432,0,0,0-.432.432V5.166a.432.432,0,0,0,.865,0V2.282A.433.433,0,0,0,4.8,1.85Z" transform="translate(-8900.6 4854.4)" />
    </g>
  </g>
</svg>
