<svg xmlns="http://www.w3.org/2000/svg" width="24" height="24" fill="none" viewBox="0 0 24 24">
  <g id="tab_task_selected" transform="translate(-491 -316)">
    <g id="task-square">
      <path id="Vector" d="M14.19,0H5.81C2.17,0,0,2.17,0,5.81v8.38C0,17.83,2.17,20,5.81,20h8.38C17.83,20,20,17.83,20,14.19V5.81C20,2.17,17.83,0,14.19,0ZM7.97,12.9,5.72,15.15a.742.742,0,0,1-.53.22.725.725,0,0,1-.53-.22l-.75-.75a.737.737,0,0,1,0-1.06.754.754,0,0,1,1.06,0l.22.22,1.72-1.72A.75.75,0,1,1,7.97,12.9Zm0-7L5.72,8.15a.742.742,0,0,1-.53.22.725.725,0,0,1-.53-.22L3.91,7.4a.737.737,0,0,1,0-1.06.754.754,0,0,1,1.06,0l.22.22L6.91,4.84A.75.75,0,1,1,7.97,5.9Zm7.59,8.72H10.31a.75.75,0,0,1,0-1.5h5.25a.75.75,0,0,1,0,1.5Zm0-7H10.31a.75.75,0,0,1,0-1.5h5.25a.75.75,0,0,1,0,1.5Z" transform="translate(493 318)" />
      <path id="Vector-2" data-name="Vector" d="M0,0H24V24H0Z" transform="translate(515 340) rotate(180)" opacity="0"/>
    </g>
  </g>
</svg>
