<svg width="24" height="24" viewBox="0 0 24 24" fill="none" xmlns="http://www.w3.org/2000/svg">
<path d="M20.4 5.99951H18V2.99951C18 2.44751 17.552 1.99951 17 1.99951C16.448 1.99951 16 2.44751 16 2.99951V5.99951H8V2.99951C8 2.44751 7.552 1.99951 7 1.99951C6.448 1.99951 6 2.44751 6 2.99951V5.99951H3.6C2.716 5.99951 2 6.71551 2 7.59951V20.3995C2 21.2835 2.716 21.9995 3.6 21.9995H20.4C21.284 21.9995 22 21.2835 22 20.3995V7.59951C22 6.71551 21.284 5.99951 20.4 5.99951ZM5.97 18.4995C5.142 18.4995 4.47 17.8275 4.47 16.9995C4.47 16.1715 5.142 15.4995 5.97 15.4995C6.798 15.4995 7.47 16.1715 7.47 16.9995C7.47 17.8275 6.798 18.4995 5.97 18.4995ZM5.97 12.4995C5.142 12.4995 4.47 11.8275 4.47 10.9995C4.47 10.1715 5.142 9.49951 5.97 9.49951C6.798 9.49951 7.47 10.1715 7.47 10.9995C7.47 11.8275 6.798 12.4995 5.97 12.4995ZM12 18.4995C11.172 18.4995 10.5 17.8275 10.5 16.9995C10.5 16.1715 11.172 15.4995 12 15.4995C12.828 15.4995 13.5 16.1715 13.5 16.9995C13.5 17.8275 12.828 18.4995 12 18.4995ZM12 12.4995C11.172 12.4995 10.5 11.8275 10.5 10.9995C10.5 10.1715 11.172 9.49951 12 9.49951C12.828 9.49951 13.5 10.1715 13.5 10.9995C13.5 11.8275 12.828 12.4995 12 12.4995ZM18 12.4995C17.172 12.4995 16.5 11.8275 16.5 10.9995C16.5 10.1715 17.172 9.49951 18 9.49951C18.828 9.49951 19.5 10.1715 19.5 10.9995C19.5 11.8275 18.828 12.4995 18 12.4995Z"/>
</svg>
