<svg width="18" height="19" viewBox="0 0 18 19" xmlns="http://www.w3.org/2000/svg">
    <path d="M15.3 5H13.5V2.75C13.5 2.336 13.164 2 12.75 2C12.336 2 12 2.336 12 2.75V5H6V2.75C6 2.336 5.664 2 5.25 2C4.836 2 4.5 2.336 4.5 2.75V5H2.7C2.037 5 1.5 5.537 1.5 6.2V15.8C1.5 16.463 2.037 17 2.7 17H15.3C15.963 17 16.5 16.463 16.5 15.8V6.2C16.5 5.537 15.963 5 15.3 5ZM4.4775 14.375C3.8565 14.375 3.3525 13.871 3.3525 13.25C3.3525 12.629 3.8565 12.125 4.4775 12.125C5.0985 12.125 5.6025 12.629 5.6025 13.25C5.6025 13.871 5.0985 14.375 4.4775 14.375ZM4.4775 9.875C3.8565 9.875 3.3525 9.371 3.3525 8.75C3.3525 8.129 3.8565 7.625 4.4775 7.625C5.0985 7.625 5.6025 8.129 5.6025 8.75C5.6025 9.371 5.0985 9.875 4.4775 9.875ZM9 14.375C8.379 14.375 7.875 13.871 7.875 13.25C7.875 12.629 8.379 12.125 9 12.125C9.621 12.125 10.125 12.629 10.125 13.25C10.125 13.871 9.621 14.375 9 14.375ZM9 9.875C8.379 9.875 7.875 9.371 7.875 8.75C7.875 8.129 8.379 7.625 9 7.625C9.621 7.625 10.125 8.129 10.125 8.75C10.125 9.371 9.621 9.875 9 9.875ZM13.5 9.875C12.879 9.875 12.375 9.371 12.375 8.75C12.375 8.129 12.879 7.625 13.5 7.625C14.121 7.625 14.625 8.129 14.625 8.75C14.625 9.371 14.121 9.875 13.5 9.875Z" />
</svg>
