<svg width="12" height="8" viewBox="0 0 12 8" fill="none" xmlns="http://www.w3.org/2000/svg">
<path d="M1.67994 2.994C1.27497 2.61848 0.642252 2.64236 0.266732 3.04733C-0.108788 3.45231 -0.0849124 4.08502 0.32006 4.46054L1.67994 2.994ZM4.52941 7L3.84947 7.73327C4.23301 8.08891 4.82582 8.08891 5.20935 7.73327L4.52941 7ZM11.6799 1.73327C12.0849 1.35775 12.1088 0.725033 11.7333 0.32006C11.3577 -0.0849124 10.725 -0.108788 10.3201 0.266732L11.6799 1.73327ZM0.32006 4.46054L3.84947 7.73327L5.20935 6.26673L1.67994 2.994L0.32006 4.46054ZM5.20935 7.73327L11.6799 1.73327L10.3201 0.266732L3.84947 6.26673L5.20935 7.73327Z" fill="white"/>
</svg>
