<svg width="20" height="21" viewBox="0 0 20 21" fill="none" xmlns="http://www.w3.org/2000/svg">
    <path fill-rule="evenodd" clip-rule="evenodd" d="M4 0.5C1.79086 0.5 0 2.29086 0 4.5V16.5C0 18.7091 1.79086 20.5 4 20.5H16C18.2091 20.5 20 18.7091 20 16.5V4.5C20 2.29086 18.2091 0.5 16 0.5H4ZM4.60698 10.3101C5.0204 9.89664 5.69212 9.90137 6.09967 10.3206L8.35866 12.6442L14.1132 6.81371C14.5241 6.39735 15.1954 6.39515 15.6091 6.80881C16.0224 7.22213 16.0206 7.8928 15.6051 8.30389L9.09033 14.7488C8.68448 15.1503 8.03148 15.1516 7.62393 14.7519L4.61415 11.7995C4.19809 11.3913 4.19487 10.7222 4.60698 10.3101Z" fill="#4475E3"/>
</svg>
