<svg width="24" height="24" viewBox="0 0 24 24" fill="none" xmlns="http://www.w3.org/2000/svg">
    <path d="M15.5355 16.9498L12 13.4143L8.46447 16.9498C8.07556 17.3387 7.43916 17.3387 7.05025 16.9498C6.66134 16.5609 6.66134 15.9245 7.05025 15.5356L10.5858 12.0001L7.05025 8.46455C6.66134 8.07564 6.66134 7.43924 7.05025 7.05033C7.43916 6.66142 8.07556 6.66142 8.46447 7.05033L12 10.5859L15.5355 7.05033C15.9244 6.66142 16.5608 6.66142 16.9497 7.05033C17.3387 7.43924 17.3387 8.07564 16.9497 8.46455L13.4142 12.0001L16.9497 15.5356C17.3387 15.9245 17.3387 16.5609 16.9497 16.9498C16.5608 17.3387 15.9244 17.3387 15.5355 16.9498Z" fill="#4475E3"/>
</svg>
