<svg width="24" height="24" viewBox="0 0 24 24" fill="none" xmlns="http://www.w3.org/2000/svg">
<path d="M19.4024 2H8.54034C7.65585 2 6.93945 2.716 6.93945 3.6V4H17.3993C18.2838 4 19.0002 4.716 19.0002 5.6V18H19.4004C20.2849 18 21.0013 17.284 21.0013 16.4V3.6C21.0013 2.716 20.2849 2 19.4004 2H19.4024Z" fill="#4475E3"/>
<path d="M15.4609 6H4.60089C3.7164 6 3 6.716 3 7.6V20.4C3 21.284 3.7164 22 4.60089 22H15.4609C16.3454 22 17.0618 21.284 17.0618 20.4V7.6C17.0618 6.716 16.3454 6 15.4609 6ZM14.1062 18.984H6.01368C5.46537 18.984 5.02112 18.54 5.02112 17.992C5.02112 17.444 5.46537 17 6.01368 17H14.1082C14.6565 17 15.1007 17.444 15.1007 17.992C15.1007 18.54 14.6565 18.984 14.1082 18.984H14.1062ZM5.02313 13.992C5.02313 13.444 5.46737 13 6.01568 13H12.031C12.5793 13 13.0236 13.444 13.0236 13.992C13.0236 14.54 12.5793 14.984 12.031 14.984H6.01368C5.46537 14.984 5.02112 14.54 5.02112 13.992H5.02313ZM14.1082 10.99H6.01368C5.46537 10.99 5.02112 10.546 5.02112 9.998C5.02112 9.45 5.46537 9.006 6.01368 9.006H14.1082C14.6565 9.006 15.1007 9.45 15.1007 9.998C15.1007 10.546 14.6565 10.99 14.1082 10.99Z" fill="#4475E3"/>
</svg>
