<svg width="24" height="24" viewBox="0 0 24 24" fill="none" xmlns="http://www.w3.org/2000/svg">
    <path d="M8.44395 3V6.11215C8.44395 6.84329 7.84108 7.4444 7.11006 7.4444H4V17.6684C4 18.3994 4.60065 19.0023 5.33164 19.0023H6.66553V20.3344C6.66553 21.0654 7.26839 21.6678 7.99942 21.6678H18.6661C19.3971 21.6678 20 21.0654 20 20.3344V7.00007C20 6.26904 19.3971 5.66797 18.6661 5.66797H17.3345V4.33408C17.3345 3.60305 16.7316 3.00019 16.0006 3.00019L8.44395 3ZM7.55489 3.2591L4.2609 6.55488H7.11006C7.36395 6.55488 7.55489 6.36618 7.55489 6.11215V3.2591ZM17.3343 6.55488H18.6659C18.9198 6.55488 19.1109 6.74597 19.1109 6.99987V20.3342C19.1109 20.5881 18.9198 20.7787 18.6659 20.7787H7.99923C7.74534 20.7787 7.5547 20.5881 7.5547 20.3342V19.0021H16.0003C16.7313 19.0021 17.3342 18.3992 17.3342 17.6682L17.3343 6.55488ZM7.55489 11.4456H13.5557C13.8014 11.4456 14.0004 11.6445 14.0004 11.8902C14.0004 12.1358 13.8014 12.3349 13.5557 12.3349H7.55489C7.30934 12.3349 7.11021 12.1358 7.11021 11.8902C7.11021 11.6445 7.30933 11.4456 7.55489 11.4456ZM7.55489 13.667H13.5557C13.7974 13.6724 13.9906 13.8697 13.9906 14.1116C13.9906 14.3532 13.7974 14.5507 13.5557 14.5559H7.55489C7.3132 14.5507 7.12019 14.3532 7.12019 14.1116C7.12019 13.8697 7.31321 13.6724 7.55489 13.667Z" fill="#4475E3"/>
</svg>
