<svg width="16" height="16" viewBox="0 0 16 16" fill="none" xmlns="http://www.w3.org/2000/svg">
<g clip-path="url(#clip0_1226_28570)">
<path d="M10.357 11.2999L8 8.94286L5.64298 11.2999C5.38371 11.5592 4.95944 11.5592 4.70017 11.2999C4.4409 11.0406 4.4409 10.6163 4.70017 10.3571L7.05719 8.00005L4.70017 5.64303C4.4409 5.38376 4.4409 4.95949 4.70017 4.70022C4.95944 4.44095 5.38371 4.44095 5.64298 4.70022L8 7.05724L10.357 4.70022C10.6163 4.44095 11.0406 4.44095 11.2998 4.70022C11.5591 4.95949 11.5591 5.38376 11.2998 5.64303L8.94281 8.00005L11.2998 10.3571C11.5591 10.6163 11.5591 11.0406 11.2998 11.2999C11.0406 11.5592 10.6163 11.5592 10.357 11.2999Z"/>
</g>
<defs>
<clipPath id="clip0_1226_28570">
<rect width="16" height="16" fill="white"/>
</clipPath>
</defs>
</svg>
