<svg width="24" height="24" viewBox="0 0 24 24" xmlns="http://www.w3.org/2000/svg">
    <path d="M16.7 5.29977L18.14 3.85977C18.46 3.53977 18.23 3.00977 17.79 3.00977H11.5C11.22 3.00977 11 3.22977 11 3.50977V9.79977C11 10.2498 11.54 10.4698 11.85 10.1498L13.3 8.69977C15.27 10.1598 16.55 12.4798 16.55 15.1198C16.55 15.7798 16.47 16.4298 16.31 17.0398C16.19 17.5398 16.79 17.8998 17.15 17.5298C18.63 15.9998 19.55 13.9198 19.55 11.6198C19.55 9.10977 18.44 6.85977 16.7 5.29977Z" />
    <path d="M12.1492 13.86L10.6992 15.3C8.72922 13.84 7.44922 11.52 7.44922 8.88C7.44922 8.22 7.52922 7.57 7.68922 6.96C7.80922 6.46 7.20922 6.1 6.84922 6.47C5.36922 8 4.44922 10.08 4.44922 12.38C4.44922 14.9 5.54922 17.15 7.28922 18.71L5.84922 20.15C5.52922 20.47 5.75922 21 6.19922 21H12.4892C12.7692 21 12.9892 20.78 12.9892 20.5V14.21C12.9992 13.77 12.4592 13.54 12.1492 13.86Z" />
</svg>
