<svg width="24" height="24" viewBox="0 0 24 24" fill="none" xmlns="http://www.w3.org/2000/svg">
<path d="M20.4 1.99951H3.6C2.716 1.99951 2 2.71551 2 3.59951V20.3995C2 21.2835 2.716 21.9995 3.6 21.9995H20.4C21.284 21.9995 22 21.2835 22 20.3995V3.59951C22 2.71551 21.284 1.99951 20.4 1.99951ZM18 16.2135C18.552 16.2135 19 16.6615 19 17.2135C19 17.7655 18.552 18.2135 18 18.2135H6.06C6.04 18.2135 6.02 18.2175 6 18.2175C5.904 18.2175 5.806 18.2035 5.71 18.1755C5.484 18.1075 5.3 17.9635 5.174 17.7775C5.172 17.7735 5.168 17.7695 5.166 17.7635C5.136 17.7175 5.11 17.6695 5.088 17.6195C5.082 17.6075 5.078 17.5955 5.074 17.5835C5.056 17.5375 5.04 17.4895 5.03 17.4395C5.02601 17.4275 5.024 17.4135 5.02 17.4015C5.008 17.3415 5 17.2795 5 17.2155V6.78151C4.998 6.22951 5.444 5.78151 5.998 5.78151C6.55 5.78151 6.998 6.22951 6.998 6.78151V13.9155L9.16801 10.6615C9.44801 10.2415 9.996 10.0955 10.448 10.3215L13.658 11.9275L17.168 6.66151C17.474 6.20151 18.094 6.07751 18.554 6.38351C19.014 6.68951 19.138 7.31151 18.832 7.76951L14.832 13.7695C14.552 14.1895 14.004 14.3355 13.552 14.1095L10.342 12.5035L7.87 16.2115H18V16.2135Z"/>
</svg>
