<svg width="24" height="24" viewBox="0 0 24 24" fill="none" xmlns="http://www.w3.org/2000/svg">
    <path fill-rule="evenodd" clip-rule="evenodd" d="M14.6026 3.47426C14.9063 3.77798 15.0769 4.18982 15.0769 4.61938V5.23017L18.7034 5.23005C19.4195 5.23003 20 5.81051 20 6.52657C20 7.24262 19.4195 7.82309 18.7035 7.8231L18.3088 7.8231V18.6157C18.3088 19.4132 17.992 20.1783 17.428 20.7423C16.864 21.3063 16.099 21.6231 15.3013 21.6231H8.69884C7.9012 21.6231 7.13611 21.3063 6.57212 20.7423C6.00813 20.1783 5.69136 19.4132 5.69136 18.6157V7.82323L5.29654 7.82323C4.58049 7.82324 4 7.24276 4 6.5267C4 5.81064 4.58048 5.23017 5.29653 5.23017H8.92311V4.61938C8.92311 4.18978 9.09366 3.77796 9.39737 3.47426C9.70109 3.17057 10.113 3 10.5425 3H13.4575C13.887 3 14.2989 3.17055 14.6026 3.47426ZM10.3112 5.23017H13.6887L13.6887 4.61937C13.6887 4.55805 13.6643 4.49915 13.6209 4.45574C13.5777 4.41233 13.5188 4.38796 13.4575 4.38796H10.5424C10.4148 4.38796 10.3112 4.49157 10.3112 4.61938V5.23017ZM10.0336 17.8378C10.2484 17.7139 10.3807 17.4847 10.3807 17.2367V9.3115C10.3807 9.06346 10.2484 8.83447 10.0336 8.71037C9.81895 8.58644 9.55428 8.58644 9.33966 8.71037C9.12487 8.83447 8.99254 9.06347 8.99254 9.3115V17.2367C8.99254 17.4847 9.12487 17.7139 9.33966 17.8378C9.55427 17.9617 9.81894 17.9617 10.0336 17.8378ZM14.6605 17.8378C14.8753 17.7139 15.0076 17.4847 15.0076 17.2367V9.3115C15.0076 9.06346 14.8753 8.83447 14.6605 8.71037C14.4459 8.58644 14.1812 8.58644 13.9666 8.71037C13.7518 8.83447 13.6194 9.06347 13.6194 9.3115V17.2367C13.6194 17.4847 13.7518 17.7139 13.9666 17.8378C14.1812 17.9617 14.4458 17.9617 14.6605 17.8378Z" fill="#4475E3"/>
</svg>
