<svg width="24" height="24" viewBox="0 0 24 24" fill="none" xmlns="http://www.w3.org/2000/svg">
<path d="M17.4061 4H6.59385C5.71325 4 5 4.716 5 5.6V18.4C5 19.284 5.71325 20 6.59385 20H17.4061C18.2868 20 19 19.284 19 18.4V5.6C19 4.716 18.2868 4 17.4061 4ZM16.0574 16.984H8.00043C7.45453 16.984 7.01224 16.54 7.01224 15.992C7.01224 15.444 7.45453 15 8.00043 15H16.0593C16.6052 15 17.0475 15.444 17.0475 15.992C17.0475 16.54 16.6052 16.984 16.0593 16.984H16.0574ZM7.01423 11.992C7.01423 11.444 7.45652 11 8.00242 11H13.9913C14.5372 11 14.9795 11.444 14.9795 11.992C14.9795 12.54 14.5372 12.984 13.9913 12.984H8.00043C7.45453 12.984 7.01224 12.54 7.01224 11.992H7.01423ZM16.0593 8.99H8.00043C7.45453 8.99 7.01224 8.546 7.01224 7.998C7.01224 7.45 7.45453 7.006 8.00043 7.006H16.0593C16.6052 7.006 17.0475 7.45 17.0475 7.998C17.0475 8.546 16.6052 8.99 16.0593 8.99Z" fill="#4475E3"/>
</svg>
