<svg width="16" height="16" viewBox="0 0 16 16" xmlns="http://www.w3.org/2000/svg">
<path d="M3.32932 13.334C2.94102 13.334 2.62986 13.6686 2.66709 14.066C2.70033 14.4126 3.0102 14.6673 3.35728 14.6673H12.6658C13.0329 14.6673 13.3307 14.3687 13.3307 14.0007C13.3307 13.6327 13.0329 13.334 12.6658 13.334H3.32932Z" />
<path d="M10.657 7.60598V2.40065C10.657 1.81132 10.1809 1.33398 9.59317 1.33398H6.40166C5.8139 1.33398 5.33783 1.81132 5.33783 2.40065V7.60598H3.87639C3.49341 7.60598 3.32984 8.09532 3.63702 8.32598L7.35911 11.3873C7.73677 11.6713 8.25673 11.6713 8.63439 11.3873L12.3565 8.32598C12.6637 8.09532 12.5014 7.60598 12.1171 7.60598H10.6557H10.657Z" />
</svg>
