<svg width="24" height="24" viewBox="0 0 24 24" fill="none" xmlns="http://www.w3.org/2000/svg">
<path d="M4.99789 20C4.41544 20 3.94869 20.502 4.00454 21.098C4.05441 21.618 4.51921 22 5.03982 22H19.0027C19.5532 22 20 21.552 20 21C20 20.448 19.5532 20 19.0027 20H4.99789Z" fill="#4475E3"/>
<path d="M15.9894 11.408V3.6C15.9894 2.716 15.2753 2 14.3937 2H9.6064C8.72475 2 8.01065 2.716 8.01065 3.6V11.408H5.81849C5.24402 11.408 4.99866 12.142 5.45943 12.488L11.0426 17.08C11.6091 17.506 12.389 17.506 12.9555 17.08L18.5386 12.488C18.9994 12.142 18.756 11.408 18.1796 11.408H15.9874H15.9894Z" fill="#4475E3"/>
</svg>
