<svg width="24" height="25" viewBox="0 0 24 25" fill="none" xmlns="http://www.w3.org/2000/svg">
    <path d="M11 18.4854C11 19.5854 10.1 20.4854 9 20.4854C7.9 20.4854 7 19.5854 7 18.4854C7 17.3854 7.9 16.4854 9 16.4854C10.1 16.4854 11 17.3854 11 18.4854ZM9 10.4854C7.9 10.4854 7 11.3854 7 12.4854C7 13.5854 7.9 14.4854 9 14.4854C10.1 14.4854 11 13.5854 11 12.4854C11 11.3854 10.1 10.4854 9 10.4854ZM9 4.48535C7.9 4.48535 7 5.38535 7 6.48535C7 7.58535 7.9 8.48535 9 8.48535C10.1 8.48535 11 7.58535 11 6.48535C11 5.38535 10.1 4.48535 9 4.48535ZM15 8.48535C16.1 8.48535 17 7.58535 17 6.48535C17 5.38535 16.1 4.48535 15 4.48535C13.9 4.48535 13 5.38535 13 6.48535C13 7.58535 13.9 8.48535 15 8.48535ZM15 10.4854C13.9 10.4854 13 11.3854 13 12.4854C13 13.5854 13.9 14.4854 15 14.4854C16.1 14.4854 17 13.5854 17 12.4854C17 11.3854 16.1 10.4854 15 10.4854ZM15 16.4854C13.9 16.4854 13 17.3854 13 18.4854C13 19.5854 13.9 20.4854 15 20.4854C16.1 20.4854 17 19.5854 17 18.4854C17 17.3854 16.1 16.4854 15 16.4854Z"/>
</svg>
