<svg width="13" height="15" viewBox="0 0 13 15" xmlns="http://www.w3.org/2000/svg">
    <path d="M10.3251 5.5H9.00008V1.33333C9.00008 0.875 8.62508 0.5 8.16675 0.5H4.83341C4.37508 0.5 4.00008 0.875 4.00008 1.33333V5.5H2.67508C1.93341 5.5 1.55841 6.4 2.08341 6.925L5.90841 10.75C6.23341 11.075 6.75841 11.075 7.08341 10.75L10.9084 6.925C11.4334 6.4 11.0667 5.5 10.3251 5.5ZM0.666748 13.8333C0.666748 14.2917 1.04175 14.6667 1.50008 14.6667H11.5001C11.9584 14.6667 12.3334 14.2917 12.3334 13.8333C12.3334 13.375 11.9584 13 11.5001 13H1.50008C1.04175 13 0.666748 13.375 0.666748 13.8333Z" />
</svg>
