<svg width="40" height="40" viewBox="0 0 40 40" fill="none" xmlns="http://www.w3.org/2000/svg">
<path d="M19.9997 3.3335C10.7997 3.3335 3.33301 10.8002 3.33301 20.0002C3.33301 29.2002 10.7997 36.6668 19.9997 36.6668C29.1997 36.6668 36.6663 29.2002 36.6663 20.0002C36.6663 10.8002 29.1997 3.3335 19.9997 3.3335ZM21.6663 31.6668H18.333V28.3335H21.6663V31.6668ZM25.1163 18.7502L23.6163 20.2835C22.4163 21.5002 21.6663 22.5002 21.6663 25.0002H18.333V24.1668C18.333 22.3335 19.083 20.6668 20.283 19.4502L22.3497 17.3502C22.9663 16.7502 23.333 15.9168 23.333 15.0002C23.333 13.1668 21.833 11.6668 19.9997 11.6668C18.1663 11.6668 16.6663 13.1668 16.6663 15.0002H13.333C13.333 11.3168 16.3163 8.3335 19.9997 8.3335C23.683 8.3335 26.6663 11.3168 26.6663 15.0002C26.6663 16.4668 26.0663 17.8002 25.1163 18.7502Z"/>
</svg>
