<svg width="24" height="24" viewBox="0 0 24 24" fill="none" xmlns="http://www.w3.org/2000/svg">
<path fill-rule="evenodd" clip-rule="evenodd" d="M3.58799 2H20.412C21.288 2 22 2.71 22 3.588V20.412C22 21.288 21.29 22 20.412 22H3.58799C2.71199 22 2 21.29 2 20.412V3.588C2 2.712 2.70999 2 3.58799 2ZM10.0665 11.6066C9.80397 11.3517 9.37644 11.3892 9.16219 11.6858L4.61148 17.9856C4.28809 18.4333 3.66299 18.5341 3.21529 18.2107C2.7676 17.8873 2.66683 17.2622 2.99023 16.8145L7.54093 10.5146C8.46933 9.2294 10.322 9.06721 11.4596 10.1716L13.4998 12.1522C13.7027 12.3491 14.0181 12.3708 14.246 12.2034C15.3714 11.3766 16.9504 11.5958 17.8081 12.6978L20.99 16.7858C21.3292 17.2217 21.2509 17.85 20.8151 18.1892C20.3792 18.5284 19.7509 18.4501 19.4117 18.0143L16.2298 13.9262C16.0373 13.6788 15.6827 13.6296 15.4301 13.8152C14.4152 14.5607 13.0103 14.4644 12.1067 13.5872L10.0665 11.6066ZM17.5992 9.60005C18.9247 9.60005 19.9992 8.52553 19.9992 7.20005C19.9992 5.87457 18.9247 4.80005 17.5992 4.80005C16.2737 4.80005 15.1992 5.87457 15.1992 7.20005C15.1992 8.52553 16.2737 9.60005 17.5992 9.60005Z" fill="#4475E3"/>
</svg>
