<svg width="16" height="16" viewBox="0 0 16 16" fill="none" xmlns="http://www.w3.org/2000/svg">
    <path d="M7.99967 1.3335C4.31967 1.3335 1.33301 4.32016 1.33301 8.00016C1.33301 11.6802 4.31967 14.6668 7.99967 14.6668C11.6797 14.6668 14.6663 11.6802 14.6663 8.00016C14.6663 4.32016 11.6797 1.3335 7.99967 1.3335ZM7.99967 11.3335C7.63301 11.3335 7.33301 11.0335 7.33301 10.6668V8.00016C7.33301 7.6335 7.63301 7.3335 7.99967 7.3335C8.36634 7.3335 8.66634 7.6335 8.66634 8.00016V10.6668C8.66634 11.0335 8.36634 11.3335 7.99967 11.3335ZM8.66634 6.00016H7.33301V4.66683H8.66634V6.00016Z" fill="#808080"/>
</svg>
