<svg width="16" height="16" viewBox="0 0 16 16" fill="none" xmlns="http://www.w3.org/2000/svg">
    <path d="M8 14C11.3132 14 14 11.3132 14 8C14 4.6868 11.3132 2 8 2C4.6868 2 2 4.6868 2 8C2 11.3132 4.6868 14 8 14ZM8.66 10.9436C8.66 11.288 8.408 11.5964 8.0648 11.6288C7.6712 11.666 7.34 11.3576 7.34 10.9724V7.676C7.34 7.3112 7.6352 7.016 8 7.016C8.3648 7.016 8.66 7.3112 8.66 7.676V10.9436ZM8 4.3688C8.366 4.3688 8.6624 4.6652 8.6624 5.0312C8.6624 5.3972 8.366 5.6936 8 5.6936C7.634 5.6936 7.3376 5.3972 7.3376 5.0312C7.3376 4.6652 7.634 4.3688 8 4.3688Z" fill="#808080"/>
</svg>
