<svg width="24" height="24" viewBox="0 0 24 24" fill="none" xmlns="http://www.w3.org/2000/svg">
<path d="M20.4167 7.55534H19.0417C19.0417 3.93451 15.964 1 12.1667 1C8.36937 1 5.29167 3.93451 5.29167 7.55534H3.91667C3.41021 7.55534 3 7.94691 3 8.42866V21.2512C3 22.2169 3.82042 23 4.83333 23H19.5C20.5129 23 21.3333 22.2169 21.3333 21.2512V8.42866C21.3333 7.94691 20.9231 7.55534 20.4167 7.55534ZM14.4583 18.5168H9.875L11.1423 16.0993C10.3906 15.7407 9.875 15.0016 9.875 14.1459C9.875 12.9382 10.9017 11.9615 12.1667 11.9615C13.4317 11.9615 14.4583 12.9404 14.4583 14.1459C14.4583 15.0016 13.9427 15.7407 13.191 16.0993L14.4583 18.5168ZM7.58333 7.55534C7.58333 5.14659 9.63896 3.18658 12.1667 3.18658C14.6944 3.18658 16.75 5.14659 16.75 7.55534H7.58333Z" fill="#DBDBDB"/>
</svg>
