<svg width="24" height="24" viewBox="0 0 24 24" fill="none" xmlns="http://www.w3.org/2000/svg">
<g clip-path="url(#clip0_1366_12179)">
<path d="M12.1429 7.85742C9.77715 7.85742 7.85715 9.77742 7.85715 12.1431C7.85715 14.5089 9.77715 16.4289 12.1429 16.4289C14.5086 16.4289 16.4286 14.5089 16.4286 12.1431C16.4286 9.77742 14.5086 7.85742 12.1429 7.85742ZM12.1429 14.286C11.9071 14.286 11.7143 14.0931 11.7143 13.8574V12.1431C11.7143 11.9074 11.9071 11.7146 12.1429 11.7146C12.3786 11.7146 12.5714 11.9074 12.5714 12.1431V13.8574C12.5714 14.0931 12.3786 14.286 12.1429 14.286ZM12.5714 10.8574H11.7143V10.0003H12.5714V10.8574Z" fill="#4475E3"/>
</g>
<defs>
<clipPath id="clip0_1366_12179">
<rect width="10.2857" height="10.2857" fill="white" transform="translate(7 7)"/>
</clipPath>
</defs>
</svg>
