<svg width="24" height="24" viewBox="0 0 24 24" fill="none" xmlns="http://www.w3.org/2000/svg">
<path d="M13.6006 5.6C13.6006 4.71634 12.8843 4 12.0006 4C11.117 4 10.4006 4.71634 10.4006 5.6C10.4006 6.48366 11.117 7.2 12.0006 7.2C12.8843 7.2 13.6006 6.48366 13.6006 5.6Z" fill="#4475E3"/>
<path d="M13.6006 12C13.6006 11.1163 12.8843 10.4 12.0006 10.4C11.117 10.4 10.4006 11.1163 10.4006 12C10.4006 12.8836 11.117 13.6 12.0006 13.6C12.8843 13.6 13.6006 12.8836 13.6006 12Z" fill="#4475E3"/>
<path d="M13.6006 18.4C13.6006 17.5164 12.8843 16.8 12.0006 16.8C11.117 16.8 10.4006 17.5164 10.4006 18.4C10.4006 19.2837 11.117 20 12.0006 20C12.8843 20 13.6006 19.2837 13.6006 18.4Z" fill="#4475E3"/>
</svg>
