<svg width="24" height="24" viewBox="0 0 24 24" fill="none" xmlns="http://www.w3.org/2000/svg">
<path d="M7.45742 7.46368L7.46699 7.45408C7.77579 7.14528 7.77099 6.65088 7.46219 6.34208C7.30859 6.18848 7.10699 6.11328 6.90539 6.11328C6.70379 6.11328 6.49422 6.19168 6.33902 6.34688C6.03022 6.65568 6.03022 7.15488 6.33902 7.46368C6.64782 7.77248 7.14702 7.77248 7.45582 7.46368H7.45742Z" fill="#4475E3"/>
<path d="M9.51994 6.07639C9.51994 6.07639 9.54713 6.06519 9.55353 6.06359C9.95513 5.89559 10.1488 5.42999 9.98076 5.02839C9.85436 4.72599 9.56155 4.54199 9.25435 4.54199C9.15355 4.54199 9.04953 4.56119 8.95033 4.60279C8.54393 4.75959 8.34075 5.21719 8.49915 5.62519C8.65595 6.03159 9.11514 6.23479 9.52154 6.07639H9.51994Z" fill="#4475E3"/>
<path d="M6.06999 9.53678C6.23799 9.13518 6.04921 8.67118 5.64761 8.50318C5.5484 8.46158 5.44438 8.44238 5.34198 8.44238C5.03318 8.44238 4.74041 8.62478 4.61401 8.92718C4.61241 8.93198 4.606 8.94798 4.6044 8.95278C4.4428 9.35598 4.6396 9.81199 5.0412 9.97519C5.4428 10.1384 5.90359 9.94478 6.06999 9.54318" fill="#4475E3"/>
<path d="M12.0008 19.9984C16.4116 19.9984 20 16.41 20 11.9992C20 7.58844 16.4116 4 12.0008 4C12.0008 4 11.996 4 11.9928 4C11.556 4 11.2025 4.35357 11.2025 4.79032C11.2025 5.22708 11.556 5.58064 11.9928 5.58064H12.0008C15.5412 5.58064 18.4209 8.46036 18.4209 12.0008C18.4209 15.5412 15.5412 18.421 12.0008 18.421C8.46036 18.421 5.58066 15.5412 5.58066 12.0008V11.9928C5.58066 11.556 5.22707 11.2073 4.79031 11.2073C4.35356 11.2073 4 11.564 4 12.0008C4 16.4116 7.58844 20 11.9992 20L12.0008 19.9984Z" fill="#4475E3"/>
</svg>
