<svg width="24" height="24" viewBox="0 0 24 24" fill="none" xmlns="http://www.w3.org/2000/svg">
<path d="M11.9844 2C6.46238 2 1.98438 6.478 1.98438 12C1.98438 17.522 6.46238 22 11.9844 22C17.5064 22 21.9844 17.522 21.9844 12C21.9844 6.478 17.5064 2 11.9844 2ZM10.8844 7.094C10.8844 6.52 11.3044 6.006 11.8764 5.952C12.5324 5.89 13.0844 6.404 13.0844 7.046V12.54C13.0844 13.148 12.5924 13.64 11.9844 13.64C11.3764 13.64 10.8844 13.148 10.8844 12.54V7.094ZM11.9844 18.052C11.3744 18.052 10.8804 17.558 10.8804 16.948C10.8804 16.338 11.3744 15.844 11.9844 15.844C12.5944 15.844 13.0884 16.338 13.0884 16.948C13.0884 17.558 12.5944 18.052 11.9844 18.052Z" fill="#808080"/>
</svg>
