<svg width="24" height="24" viewBox="0 0 24 24" fill="none" xmlns="http://www.w3.org/2000/svg">
<path d="M9.4 2H3.6C2.71634 2 2 2.71634 2 3.6V12.4C2 13.2837 2.71634 14 3.6 14H9.4C10.2837 14 11 13.2837 11 12.4V3.6C11 2.71634 10.2837 2 9.4 2Z"/>
<path d="M9.4 16H3.6C2.71634 16 2 16.7163 2 17.6V20.4C2 21.2837 2.71634 22 3.6 22H9.4C10.2837 22 11 21.2837 11 20.4V17.6C11 16.7163 10.2837 16 9.4 16Z"/>
<path d="M14.6 22H20.4C21.2837 22 22 21.2837 22 20.4V11.6C22 10.7163 21.2837 10 20.4 10L14.6 10C13.7163 10 13 10.7163 13 11.6L13 20.4C13 21.2837 13.7163 22 14.6 22Z"/>
<path d="M14.6 8L20.4 8C21.2837 8 22 7.28366 22 6.4V3.6C22 2.71635 21.2837 2 20.4 2L14.6 2C13.7163 2 13 2.71635 13 3.6V6.4C13 7.28366 13.7163 8 14.6 8Z"/>
</svg>
