<svg width="24" height="24" viewBox="0 0 24 24" fill="none" xmlns="http://www.w3.org/2000/svg">
<path d="M17.3024 10.9407H13.301V6.93931C13.301 6.28657 12.772 5.75999 12.1217 5.75999C11.4714 5.75999 10.9424 6.28899 10.9424 6.93931V10.9407H6.94102C6.28828 10.9407 5.76172 11.4697 5.76172 12.12C5.76172 12.7703 6.2907 13.2993 6.94102 13.2993H10.9424V17.3007C10.9424 17.9534 11.4714 18.48 12.1217 18.48C12.772 18.48 13.301 17.951 13.301 17.3007V13.2993H17.3024C17.9552 13.2993 18.4817 12.7703 18.4817 12.12C18.4817 11.4697 17.9527 10.9407 17.3024 10.9407Z"/>
</svg>
