<svg width="24" height="24" viewBox="0 0 24 24" fill="none" xmlns="http://www.w3.org/2000/svg">
<path d="M20.412 2H3.58799C2.70999 2 2 2.712 2 3.588V20.412C2 21.29 2.71199 22 3.58799 22H20.412C21.29 22 22 21.288 22 20.412V3.588C22 2.71 21.288 2 20.412 2ZM16.316 12.984H12.982V16.318C12.982 16.862 12.542 17.302 11.998 17.302C11.454 17.302 11.014 16.862 11.014 16.318V12.984H7.68001C7.136 12.984 6.696 12.544 6.696 12C6.696 11.456 7.136 11.016 7.68001 11.016H11.014V7.684C11.014 7.14 11.454 6.7 11.998 6.7C12.542 6.7 12.982 7.14 12.982 7.684V11.018H16.316C16.86 11.018 17.3 11.458 17.3 12.002C17.3 12.546 16.86 12.986 16.316 12.986V12.984Z" />
</svg>
