<svg width="20" height="20" viewBox="0 0 20 20" fill="none" xmlns="http://www.w3.org/2000/svg">
<path d="M14.918 9.11724H11.5835V5.78275C11.5835 5.2388 11.1427 4.79999 10.6008 4.79999C10.0589 4.79999 9.61803 5.24082 9.61803 5.78275V9.11724H6.28353C5.73958 9.11724 5.30078 9.55806 5.30078 10.1C5.30078 10.6419 5.7416 11.0827 6.28353 11.0827H9.61803V14.4172C9.61803 14.9612 10.0589 15.4 10.6008 15.4C11.1427 15.4 11.5835 14.9592 11.5835 14.4172V11.0827H14.918C15.462 11.0827 15.9008 10.6419 15.9008 10.1C15.9008 9.55806 15.46 9.11724 14.918 9.11724Z"/>
</svg>
