<svg width="21" height="20" viewBox="0 0 20 20" fill="none" xmlns="http://www.w3.org/2000/svg">
<g clip-path="url(#clip0_1085_23663)">
<path d="M15.4993 10.8334H11.3327V15C11.3327 15.4584 10.9577 15.8334 10.4993 15.8334C10.041 15.8334 9.66602 15.4584 9.66602 15V10.8334H5.49935C5.04102 10.8334 4.66602 10.4584 4.66602 10C4.66602 9.54169 5.04102 9.16669 5.49935 9.16669H9.66602V5.00002C9.66602 4.54169 10.041 4.16669 10.4993 4.16669C10.9577 4.16669 11.3327 4.54169 11.3327 5.00002V9.16669H15.4993C15.9577 9.16669 16.3327 9.54169 16.3327 10C16.3327 10.4584 15.9577 10.8334 15.4993 10.8334Z"/>
</g>
<defs>
<clipPath id="clip0_1085_23663">
<rect width="20" height="20" fill="white" transform="translate(0.5)"/>
</clipPath>
</defs>
</svg>
