<svg width="20" height="20" viewBox="0 0 20 20" xmlns="http://www.w3.org/2000/svg">
    <path d="M10 0C4.478 0 0 4.478 0 10C0 15.522 4.478 20 10 20C15.522 20 20 15.522 20 10C20 4.478 15.522 0 10 0ZM10 16.586C9.39 16.586 8.896 16.092 8.896 15.482C8.896 14.872 9.39 14.378 10 14.378C10.61 14.378 11.104 14.872 11.104 15.482C11.104 16.092 10.61 16.586 10 16.586ZM10.98 10.558V11.632C10.98 12.178 10.536 12.622 9.98999 12.622C9.44399 12.622 9 12.178 9 11.632V9.71C9 9.164 9.44399 8.72 9.98999 8.72C10.824 8.72 11.504 8.04 11.504 7.206C11.504 6.372 10.824 5.692 9.98999 5.692C9.15599 5.692 8.47598 6.372 8.47598 7.206C8.47598 7.752 8.03199 8.196 7.48599 8.196C6.93999 8.196 6.496 7.752 6.496 7.206C6.496 5.28 8.06399 3.712 9.98999 3.712C11.916 3.712 13.484 5.28 13.484 7.206C13.484 8.788 12.426 10.13 10.98 10.558Z" />
</svg>
