<svg width="24" height="24" viewBox="0 0 24 24" xmlns="http://www.w3.org/2000/svg">
<circle cx="12" cy="12" r="10" />
<path d="M7.67994 10.994C7.27497 10.6185 6.64225 10.6424 6.26673 11.0473C5.89121 11.4523 5.91509 12.085 6.32006 12.4605L7.67994 10.994ZM10.5294 15L9.84947 15.7333C10.233 16.0889 10.8258 16.0889 11.2094 15.7333L10.5294 15ZM17.6799 9.73327C18.0849 9.35775 18.1088 8.72503 17.7333 8.32006C17.3577 7.91509 16.725 7.89121 16.3201 8.26673L17.6799 9.73327ZM6.32006 12.4605L9.84947 15.7333L11.2094 14.2667L7.67994 10.994L6.32006 12.4605ZM11.2094 15.7333L17.6799 9.73327L16.3201 8.26673L9.84947 14.2667L11.2094 15.7333Z" fill="white"/>
</svg>
