<svg width="24" height="24" viewBox="0 0 24 24" xmlns="http://www.w3.org/2000/svg">
<circle cx="12" cy="12" r="10" />
<path d="M16.3414 7.66523C16.0033 7.32712 15.4567 7.32712 15.1186 7.66523L12.0001 10.7773L8.8814 7.65856C8.5433 7.32045 7.99666 7.32045 7.65856 7.65856C7.32045 7.99666 7.32045 8.5433 7.65856 8.8814L10.7771 12L7.65856 15.1186C7.32045 15.4567 7.32045 16.0033 7.65856 16.3414C7.99666 16.6795 8.5433 16.6795 8.8814 16.3414L12 13.2228L15.1186 16.3414C15.4567 16.6795 16.0033 16.6795 16.3414 16.3414C16.6795 16.0033 16.6795 15.4567 16.3414 15.1186L13.2228 12L16.3414 8.8814C16.6728 8.54996 16.6728 7.99666 16.3414 7.66523Z" fill="white" stroke="white" stroke-width="0.4"/>
</svg>
