<svg width="24" height="24" viewBox="0 0 24 24" fill="none" xmlns="http://www.w3.org/2000/svg">
    <path d="M16.3154 10.6123L18.9555 12.7612C18.9853 12.5044 19 12.25 19 12C19 8.14015 15.8599 5.00001 12 5.00001C9.52662 5.00001 7.35381 6.29286 6.10834 8.23482L5.32415 7.59645C6.75568 5.43066 9.20951 4 12 4C16.4183 4 20 7.58173 20 12C20 12.8948 19.8467 13.7522 19.5757 14.5555L15.6846 11.3877C15.6846 11.3877 16.3154 10.6123 16.3154 10.6123Z" fill="#6F6F6F">
        <animateTransform
                attributeName="transform"
                attributeType="XML"
                type="rotate"
                from="0 12 12"
                to="360 12 12"
                dur="1s"
                repeatCount="indefinite"
        />
    </path>
    <path d="M4.42425 9.44446L8.31537 12.6123L7.68452 13.3877L5.04438 11.2388C5.0146 11.4956 4.99994 11.75 4.99994 12C4.99994 15.8599 8.14007 19 11.9999 19C14.4733 19 16.6461 17.7072 17.8916 15.7652L18.6758 16.4036C17.2442 18.5693 14.7904 20 11.9999 20C7.58166 20 3.99993 16.4183 3.99993 12C3.99993 11.1052 4.15324 10.2478 4.42425 9.44446Z" fill="#6F6F6F">
        <animateTransform
                attributeName="transform"
                attributeType="XML"
                type="rotate"
                from="0 12 12"
                to="360 12 12"
                dur="1s"
                repeatCount="indefinite"
        />
    </path>
</svg>
