<svg width="24" height="24" viewBox="0 0 24 24" xmlns="http://www.w3.org/2000/svg">
<path fill-rule="evenodd" clip-rule="evenodd" d="M3.23748 11.5618C3.08542 11.7138 3 11.9201 3 12.1351C3 12.3502 3.08542 12.5564 3.23748 12.7084L7.56179 17.0328C7.87843 17.3494 8.39181 17.3494 8.70845 17.0328C9.02509 16.7161 9.02509 16.2027 8.70845 15.8861L4.95746 12.1351L8.70845 8.38414C9.02509 8.0675 9.02509 7.55412 8.70845 7.23748C8.39181 6.92084 7.87843 6.92084 7.56179 7.23748L3.23748 11.5618ZM20.7626 11.5618C20.9146 11.7138 21.0001 11.9201 21.0001 12.1351C21.0001 12.3502 20.9146 12.5564 20.7626 12.7084L16.4383 17.0328C16.1216 17.3494 15.6083 17.3494 15.2916 17.0328C14.975 16.7161 14.975 16.2027 15.2916 15.8861L19.0426 12.1351L15.2916 8.38414C14.975 8.0675 14.975 7.55412 15.2916 7.23748C15.6083 6.92084 16.1216 6.92084 16.4383 7.23748L20.7626 11.5618Z"/>
</svg>
