<svg width="24" height="24" viewBox="0 0 24 24" fill="none" xmlns="http://www.w3.org/2000/svg">
<path d="M5.5 6C5.5 5.72386 5.72386 5.5 6 5.5H19C19.2761 5.5 19.5 5.72386 19.5 6V8C19.5 8.27614 19.2761 8.5 19 8.5H6C5.72386 8.5 5.5 8.27614 5.5 8V6Z" fill="#4475E3"/>
<path d="M5.5 11C5.5 10.7239 5.72386 10.5 6 10.5H19C19.2761 10.5 19.5 10.7239 19.5 11V13C19.5 13.2761 19.2761 13.5 19 13.5H6C5.72386 13.5 5.5 13.2761 5.5 13V11Z" fill="#4475E3"/>
<path d="M5.5 16C5.5 15.7239 5.72386 15.5 6 15.5H19C19.2761 15.5 19.5 15.7239 19.5 16V18C19.5 18.2761 19.2761 18.5 19 18.5H6C5.72386 18.5 5.5 18.2761 5.5 18V16Z" fill="#4475E3"/>
</svg>
