    <svg width="24" height="24" viewBox="0 0 24 24" fill="none" xmlns="http://www.w3.org/2000/svg">
<path d="M9.00672 20H3.99906V4H9.00672C9.55846 4 10.0062 3.552 10.0062 3C10.0062 2.448 9.55846 2 9.00672 2C9.00672 2 2.95955 2 2.90158 2.004C2.38182 2.054 2 2.52 2 3.042V21C2 21.552 2.44779 22 2.99953 22H9.00672C9.55846 22 10.0062 21.552 10.0062 21C10.0062 20.448 9.55846 20 9.00672 20Z"/>
<path d="M16.0052 7.99998H8.20081C7.31723 7.99998 6.60156 8.71598 6.60156 9.59998V14.4C6.60156 15.284 7.31723 16 8.20081 16H16.0052V18.198C16.0052 18.774 16.7388 19.02 17.0846 18.558L21.6805 12.96C22.1063 12.392 22.1063 11.61 21.6805 11.042L17.0846 5.44398C16.7388 4.98198 16.0052 5.22598 16.0052 5.80398V8.00198V7.99998Z"/>
</svg>
