<svg width="20" height="20" viewBox="0 0 20 20" fill="none" xmlns="http://www.w3.org/2000/svg">
<path fill-rule="evenodd" clip-rule="evenodd" d="M11.0004 6.45894C11.8833 6.07314 12.5003 5.19212 12.5003 4.16699C12.5003 2.78628 11.381 1.66699 10.0003 1.66699C8.61961 1.66699 7.50033 2.78628 7.50033 4.16699C7.50033 5.19218 8.11741 6.07325 9.00041 6.45901V9.97709L5.12927 13.5256C4.83307 13.4019 4.50801 13.3337 4.16699 13.3337C2.78628 13.3337 1.66699 14.4529 1.66699 15.8337C1.66699 17.2144 2.78628 18.3337 4.16699 18.3337C5.5477 18.3337 6.66699 17.2144 6.66699 15.8337C6.66699 15.53 6.61284 15.2389 6.51367 14.9697L10.0004 11.7736L13.487 14.9697C13.3878 15.2389 13.3337 15.53 13.3337 15.8337C13.3337 17.2144 14.4529 18.3337 15.8337 18.3337C17.2144 18.3337 18.3337 17.2144 18.3337 15.8337C18.3337 14.4529 17.2144 13.3337 15.8337 13.3337C15.4927 13.3337 15.1676 13.4019 14.8714 13.5256L11.0004 9.9771V6.45894Z" fill="#4475E3"/>
</svg>
