<svg width="24" height="24" viewBox="0 0 24 24" fill="none" xmlns="http://www.w3.org/2000/svg">
<path d="M21.7929 18.3043L13.3359 3.76522C12.7417 2.74493 11.2583 2.74493 10.6661 3.76522L2.20915 18.3043C1.61497 19.3246 2.35772 20.6 3.54406 20.6H20.456C21.6423 20.6 22.385 19.3246 21.7908 18.3043H21.7929ZM11.993 18.8264C11.3807 18.8264 10.8849 18.3342 10.8849 17.7264C10.8849 17.1187 11.3807 16.6264 11.993 16.6264C12.6052 16.6264 13.101 17.1187 13.101 17.7264C13.101 18.3342 12.6052 18.8264 11.993 18.8264ZM13.1071 13.3344C13.1071 13.9402 12.6132 14.4304 12.003 14.4304C11.3928 14.4304 10.899 13.9402 10.899 13.3344V7.90815C10.899 7.33623 11.3205 6.82409 11.8946 6.77029C12.553 6.70851 13.1071 7.22065 13.1071 7.86033V13.3344Z" fill="#F5BF00"/>
</svg>
