<svg width="24" height="24" viewBox="0 0 24 24" fill="none" xmlns="http://www.w3.org/2000/svg">
<path d="M18.0007 15.5997C18.6631 15.5997 19.2007 15.0621 19.2007 14.3998V13.1998H22.8006C23.463 13.1998 24.0005 12.6622 24.0005 11.9998C24.0005 11.3375 23.463 10.7999 22.8006 10.7999H19.2007V9.59992C19.2007 8.93755 18.6631 8.39996 18.0007 8.39996C17.3384 8.39996 16.8008 8.93755 16.8008 9.59992V14.3998C16.8008 15.0621 17.3384 15.5997 18.0007 15.5997Z" fill="#4475E3"/>
<path d="M1.19996 13.1999H14.3995V10.8H1.19996C0.537582 10.8 0 11.3376 0 11.9999C0 12.6623 0.537582 13.1999 1.19996 13.1999Z" fill="#4475E3"/>
</svg>
