<svg width="28" height="10" viewBox="0 0 28 10" fill="none" xmlns="http://www.w3.org/2000/svg">
<path d="M23 5C23 7.76142 20.7614 10 18 10C15.2386 10 13 7.76142 13 5C13 2.23858 15.2386 0 18 0C20.7614 0 23 2.23858 23 5Z" fill="#4475E3"/>
<path fill-rule="evenodd" clip-rule="evenodd" d="M24.4566 6.66671C24.5937 6.13401 24.6667 5.57553 24.6667 5.00003C24.6667 4.42454 24.5937 3.86607 24.4566 3.33337H26.3333C27.25 3.33337 28 4.08337 28 5.00004C28 5.91671 27.25 6.66671 26.3333 6.66671H24.4566ZM11.5434 6.66671H1.66667C0.75 6.66671 0 5.91671 0 5.00004C0 4.08337 0.75 3.33337 1.66667 3.33337H11.5434C11.4063 3.86607 11.3333 4.42454 11.3333 5.00003C11.3333 5.57553 11.4063 6.13401 11.5434 6.66671ZM13.2845 6.66671C13.1003 6.14541 13 5.58443 13 5.00003C13 4.41564 13.1003 3.85467 13.2845 3.33337H14.6667V6.66671H13.2845ZM22.7155 6.66671H21.3333V3.33337H22.7155C22.8997 3.85467 23 4.41564 23 5.00003C23 5.58443 22.8997 6.14541 22.7155 6.66671Z" fill="#4475E3"/>
</svg>
