<svg width="24" height="24" viewBox="0 0 24 24" fill="none" xmlns="http://www.w3.org/2000/svg">
<g clip-path="url(#clip0_1185_32370)">
<path fill-rule="evenodd" clip-rule="evenodd" d="M12 19.7143C11.8106 19.7143 11.6289 19.639 11.4949 19.5051L7.20921 15.2194C6.93026 14.9404 6.93026 14.4882 7.20921 14.2092C7.48816 13.9303 7.94042 13.9303 8.21936 14.2092L12 17.9898L15.7806 14.2092C16.0596 13.9303 16.5118 13.9303 16.7908 14.2092C17.0697 14.4882 17.0697 14.9404 16.7908 15.2194L12.5051 19.5051C12.3711 19.639 12.1894 19.7143 12 19.7143Z" fill="#4475E3"/>
<path fill-rule="evenodd" clip-rule="evenodd" d="M12 4.28571C12.1894 4.28571 12.3711 4.36097 12.5051 4.49492L16.7908 8.78064C17.0697 9.05958 17.0697 9.51184 16.7908 9.79079C16.5118 10.0697 16.0596 10.0697 15.7806 9.79079L12 6.01015L8.21936 9.79079C7.94042 10.0697 7.48816 10.0697 7.20921 9.79079C6.93026 9.51184 6.93026 9.05958 7.20921 8.78064L11.4949 4.49492C11.6289 4.36097 11.8106 4.28571 12 4.28571Z" fill="#DBDBDB"/>
</g>
<defs>
<clipPath id="clip0_1185_32370">
<rect width="24" height="24" fill="white"/>
</clipPath>
</defs>
</svg>
