<svg width="92" height="92" viewBox="0 0 92 92" fill="none" xmlns="http://www.w3.org/2000/svg">
<path d="M20.3767 19.9171L20.4318 19.8619C22.2074 18.0863 22.1798 15.2436 20.4042 13.468C19.521 12.5848 18.3618 12.1523 17.2026 12.1523C16.0434 12.1523 14.8384 12.6032 13.946 13.4956C12.1704 15.2712 12.1704 18.1415 13.946 19.9171C15.7216 21.6927 18.5919 21.6927 20.3675 19.9171H20.3767Z"/>
<path d="M32.2396 11.941C32.2396 11.941 32.396 11.8765 32.4328 11.8673C34.742 10.9013 35.8553 8.22414 34.8893 5.91494C34.1625 4.17614 32.4789 3.11816 30.7125 3.11816C30.1329 3.11816 29.5348 3.22854 28.9644 3.46774C26.6276 4.36934 25.4593 7.00055 26.3701 9.34655C27.2717 11.6834 29.912 12.8518 32.2488 11.941H32.2396Z"/>
<path d="M12.4046 31.8382C13.3706 29.529 12.2851 26.861 9.97593 25.895C9.40553 25.6558 8.80738 25.5454 8.21858 25.5454C6.44298 25.5454 4.75956 26.5942 4.03276 28.333C4.02356 28.3606 3.98671 28.4526 3.97751 28.4802C3.04831 30.7986 4.17989 33.4206 6.48909 34.359C8.79829 35.2974 11.4478 34.1842 12.4046 31.875"/>
<path d="M46.5046 91.9908C71.8665 91.9908 92 71.3573 92 45.9954C92 20.6335 71.8665 0 46.5046 0C46.5046 0 46.477 0 46.4586 0C43.9472 0 41.9143 2.033 41.9143 4.54435C41.9143 7.0557 43.9472 9.08869 46.4586 9.08869H46.5046C66.8622 9.08869 83.4204 25.647 83.4204 46.0046C83.4204 66.3622 66.8622 82.9205 46.5046 82.9205C26.147 82.9205 9.58881 66.3622 9.58881 46.0046V45.9586C9.58881 43.4472 7.55564 41.4418 5.04429 41.4418C2.53294 41.4418 0.5 43.4933 0.5 46.0046C0.5 71.3665 21.1335 92 46.4954 92L46.5046 91.9908Z"/>
</svg>
