<svg width="20" height="20" viewBox="0 0 20 20" xmlns="http://www.w3.org/2000/svg">
    <path d="M4.32129 4.3296L4.33325 4.3176C4.71925 3.9316 4.71324 3.31361 4.32724 2.92761C4.13524 2.73561 3.88325 2.6416 3.63125 2.6416C3.37925 2.6416 3.11729 2.73961 2.92329 2.93361C2.53729 3.31961 2.53729 3.9436 2.92329 4.3296C3.30929 4.7156 3.93329 4.7156 4.31929 4.3296H4.32129Z" fill="#4475E3"/>
    <path d="M6.89992 2.59573C6.89992 2.59573 6.93391 2.58173 6.94191 2.57973C7.44391 2.36973 7.68594 1.78773 7.47594 1.28573C7.31794 0.90773 6.95194 0.677734 6.56794 0.677734C6.44194 0.677734 6.31191 0.701729 6.18791 0.753729C5.67991 0.949729 5.42594 1.52173 5.62394 2.03173C5.81994 2.53973 6.39392 2.79373 6.90192 2.59573H6.89992Z" fill="#4475E3"/>
    <path d="M2.58822 6.92122C2.79822 6.41922 2.56224 5.83922 2.06024 5.62922C1.93624 5.57722 1.80621 5.55322 1.67821 5.55322C1.29221 5.55322 0.926246 5.78122 0.768246 6.15922C0.766246 6.16522 0.758235 6.18522 0.756235 6.19122C0.554235 6.69522 0.800231 7.26523 1.30223 7.46923C1.80423 7.67323 2.38022 7.43122 2.58822 6.92922" fill="#4475E3"/>
    <path d="M10.001 19.998C15.5144 19.998 20 15.5124 20 9.999C20 4.48555 15.5144 0 10.001 0C10.001 0 9.99499 0 9.99099 0C9.44505 0 9.0031 0.441956 9.0031 0.987902C9.0031 1.53385 9.44505 1.9758 9.99099 1.9758H10.001C14.4266 1.9758 18.0262 5.57544 18.0262 10.001C18.0262 14.4266 14.4266 18.0262 10.001 18.0262C5.57544 18.0262 1.97583 14.4266 1.97583 10.001V9.991C1.97583 9.44505 1.53383 9.0091 0.987889 9.0091C0.441944 9.0091 0 9.45506 0 10.001C0 15.5144 4.48555 20 9.999 20L10.001 19.998Z" />
</svg>
