<svg width="112" height="112" viewBox="0 0 112 112" xmlns="http://www.w3.org/2000/svg">
    <path d="M33.287 33.3192L33.3348 33.2712C34.8788 31.7272 34.8548 29.2552 33.3108 27.7112C32.5428 26.9432 31.5348 26.5672 30.5268 26.5672C29.5188 26.5672 28.471 26.9592 27.695 27.7352C26.151 29.2792 26.151 31.7752 27.695 33.3192C29.239 34.8632 31.735 34.8632 33.279 33.3192H33.287Z" />
    <path d="M43.5978 26.3837C43.5978 26.3837 43.7338 26.3277 43.7658 26.3197C45.7738 25.4797 46.7419 23.1517 45.9019 21.1437C45.2699 19.6317 43.8059 18.7117 42.2699 18.7117C41.7659 18.7117 41.2458 18.8077 40.7498 19.0157C38.7178 19.7997 37.7019 22.0877 38.4939 24.1277C39.2779 26.1597 41.5739 27.1757 43.6059 26.3837H43.5978Z" />
    <path d="M26.3516 43.6861C27.1916 41.6781 26.2477 39.3581 24.2397 38.5181C23.7437 38.3101 23.2236 38.2141 22.7116 38.2141C21.1676 38.2141 19.7038 39.1261 19.0718 40.6381C19.0638 40.6621 19.0317 40.7421 19.0237 40.7661C18.2157 42.7821 19.1997 45.0621 21.2077 45.8781C23.2157 46.6941 25.5196 45.7261 26.3516 43.7181" />
    <path d="M56.004 95.992C78.0578 95.992 96 78.0498 96 55.996C96 33.9422 78.0578 16 56.004 16C56.004 16 55.98 16 55.964 16C53.7802 16 52.0124 17.7678 52.0124 19.9516C52.0124 22.1354 53.7802 23.9032 55.964 23.9032H56.004C73.7062 23.9032 88.1047 38.3018 88.1047 56.004C88.1047 73.7062 73.7062 88.1048 56.004 88.1048C38.3018 88.1048 23.9033 73.7062 23.9033 56.004V55.964C23.9033 53.7802 22.1353 52.0364 19.9516 52.0364C17.7678 52.0364 16 53.8202 16 56.004C16 78.0578 33.9422 96 55.996 96L56.004 95.992Z" />
</svg>
