<svg width="72" height="72" viewBox="0 0 72 72" xmlns="http://www.w3.org/2000/svg">
<path
  d="M2 36.316V36.325L2.00008 36.334C2.03605 40.3264 2.53623 45.45 3.31833 48.9356L5.26851 48.498L3.31834 48.9356C4.75133 55.3218 7.21515 60.7481 12.4402 64.4906C17.5987 68.1855 25.1225 70.0008 36.1264 70.0008C46.9504 70.0008 54.4505 68.1522 59.6157 64.4465C64.8452 60.6947 67.3588 55.2757 68.725 48.9178C69.5381 45.1342 69.9738 40.8789 70.0008 36.2013V36.1898C70.0008 31.4719 69.565 26.9921 68.725 23.083C67.3586 16.7247 64.8445 11.3043 59.5974 7.55248C54.4163 3.84793 46.8853 2 36.0004 2C25.0575 2 17.5646 3.81595 12.4218 7.51209C7.21451 11.2546 4.75122 16.6796 3.31834 23.0653L3.31833 23.0654C2.50616 26.6852 2 32.14 2 36.316Z"
  stroke="#F7F8FA"
  stroke-width="4"
/>
</svg>
