<svg width="152" height="152" viewBox="0 0 152 152" fill="none" xmlns="http://www.w3.org/2000/svg">
<g clip-path="url(#clip0_1_6)">
<path d="M2 76.7101V76.7191L2.0001 76.7281C2.0798 85.5791 3.1932 96.925 4.9056 104.556L6.8554 104.119L4.9056 104.557C8.0646 118.635 13.3969 130.156 24.4459 138.07C35.4284 145.936 51.7316 150 76.2835 150C100.414 150 116.672 145.867 127.676 137.972C138.746 130.03 144.182 118.517 147.185 104.539C148.973 96.219 149.94 86.8189 150 76.4376V76.426C150 65.9567 149.032 56.0564 147.185 47.4615C144.181 33.4829 138.745 21.968 127.638 14.0266C116.598 6.1324 100.271 2 76 2C51.5879 2 35.3549 6.0645 24.4078 13.9321C13.3963 21.8462 8.0645 33.3658 4.9056 47.4438C3.1276 55.3683 2 67.4517 2 76.7101Z" stroke="#F7F8FA" stroke-width="4"/>
</g>
<defs>
<clipPath id="clip0_1_6">
<rect width="152" height="152" fill="white"/>
</clipPath>
</defs>
</svg>
