<?xml version="1.0" encoding="UTF-8" standalone="no" ?>
<svg xmlns="http://www.w3.org/2000/svg" xmlns:xlink="http://www.w3.org/1999/xlink" version="1.1" width="144" height="144" viewBox="0 0 144 144" xml:space="preserve">
<defs>
</defs>
<g transform="matrix(1 0 0 1 77.01 104.22)" id="5Pw71pG-_IomvEOguvsS3"  >
<g style="" vector-effect="non-scaling-stroke"   >
		<g transform="matrix(1 0 0 1 -6 -31.5)" id="GVNNP4OtKtDDvF87YDqyt"  >
<line style="stroke: rgb(94,99,102); stroke-width: 1; stroke-dasharray: none; stroke-linecap: butt; stroke-dashoffset: 0; stroke-linejoin: miter; stroke-miterlimit: 4; fill: none; fill-rule: nonzero; opacity: 1;" vector-effect="non-scaling-stroke"  x1="-23" y1="0" x2="23" y2="0" />
</g>
		<g transform="matrix(1 0 0 1 -4.5 -31.5)" id="dUlWz17rNMfs9A8vQQwv_"  >
<line style="stroke: rgb(94,99,102); stroke-width: 1; stroke-dasharray: none; stroke-linecap: butt; stroke-dashoffset: 0; stroke-linejoin: miter; stroke-miterlimit: 4; fill: none; fill-rule: nonzero; opacity: 1;" vector-effect="non-scaling-stroke"  x1="0" y1="20.5" x2="0" y2="-20.5" />
</g>
		<g transform="matrix(1 0 0 1 -5 -32)" id="PfbSYoVUkli0qKnN0KAFb"  >
<path style="stroke: rgb(94,99,102); stroke-width: 1; stroke-dasharray: none; stroke-linecap: butt; stroke-dashoffset: 0; stroke-linejoin: miter; stroke-miterlimit: 4; fill: none; fill-rule: nonzero; opacity: 1;" vector-effect="non-scaling-stroke"  transform=" translate(-99, -72)" d="M 167.741 100.013 C 164.808 113.664 159.591 124.499 149.219 131.94 C 138.831 139.393 123.192 143.5 99.2835 143.5 C 74.9382 143.5 59.26 139.457 48.9016 132.037 C 38.5598 124.63 33.4388 113.797 30.3449 100.009 C 28.6801 92.5896 27.5787 81.4268 27.5 72.7078 C 27.5002 63.5872 28.6164 51.6949 30.3449 43.9911 C 33.4388 30.2029 38.56 19.3698 48.8669 11.9622 C 59.1898 4.54306 74.797 0.5 99 0.5 C 123.05 0.5 138.761 4.6071 149.184 12.0602 C 159.591 19.5014 164.808 30.3357 167.741 43.9867 C 169.545 52.3812 170.5 62.1024 170.5 72.4258 C 170.441 82.663 169.487 91.8885 167.741 100.013 Z" stroke-linecap="round" />
</g>
</g>
</g>
</svg>