<svg width="24" height="24" viewBox="0 0 24 24" fill="none" xmlns="http://www.w3.org/2000/svg">
<path d="M3.00001 4.22124C2.44801 4.22124 2 4.71879 2 5.33185C2 5.94491 2.44801 6.44247 3.00001 6.44247H14.0001V4.22124H3.00001Z"/>
<path d="M21.0001 4.22123H18V3.11062C18 2.49756 17.552 2 17 2C16.448 2 16 2.49756 16 3.11062V7.55309C16 8.16615 16.448 8.6637 17 8.6637C17.552 8.6637 18 8.16615 18 7.55309V6.44247H21.0001C21.5521 6.44247 22.0001 5.94491 22.0001 5.33185C22.0001 4.71879 21.5521 4.22123 21.0001 4.22123Z"/>
<path d="M7.00006 8.66814C6.44805 8.66814 6.00004 9.16569 6.00004 9.77875V10.8894H3.00001C2.44801 10.8894 2 11.3869 2 12C2 12.613 2.44801 13.1106 3.00001 13.1106H6.00004V14.2212C6.00004 14.8343 6.44805 15.3318 7.00006 15.3318C7.55206 15.3318 8.00007 14.8343 8.00007 14.2212V9.77875C8.00007 9.16569 7.55206 8.66814 7.00006 8.66814Z"/>
<path d="M21.0001 10.8894H10V13.1106H21.0001C21.5521 13.1106 22.0001 12.6131 22.0001 12C22.0001 11.3869 21.5521 10.8894 21.0001 10.8894Z"/>
<path d="M21.0001 17.5575H18V16.4469C18 15.8339 17.552 15.3363 17 15.3363C16.448 15.3363 16 15.8339 16 16.4469V20.8894C16 21.5024 16.448 22 17 22C17.552 22 18 21.5024 18 20.8894V19.7788H21.0001C21.5521 19.7788 22.0001 19.2812 22.0001 18.6682C22.0001 18.0551 21.5521 17.5575 21.0001 17.5575Z"/>
<path d="M3.00001 17.5575C2.44801 17.5575 2 18.0551 2 18.6681C2 19.2812 2.44801 19.7788 3.00001 19.7788H14.0001V17.5575H3.00001Z"/>
</svg>
