<svg width="24" height="24" viewBox="0 0 24 24" fill="none" xmlns="http://www.w3.org/2000/svg">
<path d="M2 11.9995C2 17.5215 6.478 21.9995 12 21.9995C17.522 21.9995 22 17.5215 22 11.9995C22 6.47751 17.522 1.99951 12 1.99951C6.478 1.99951 2 6.47751 2 11.9995ZM6.472 11.9995C6.472 11.3615 6.99 10.8455 7.626 10.8455H10.834V7.60351C10.834 6.96551 11.352 6.44951 11.988 6.44951C12.624 6.44951 13.142 6.96751 13.142 7.60351V11.9995C13.142 12.6375 12.624 13.1535 11.988 13.1535H7.624C6.986 13.1535 6.47 12.6355 6.47 11.9995H6.472Z" fill="#4475E3"/>
</svg>
