<svg width="24" height="24" viewBox="0 0 24 24" fill="none" xmlns="http://www.w3.org/2000/svg">
    <path fill-rule="evenodd" clip-rule="evenodd" d="M12 22C17.5228 22 22 17.5228 22 12C22 6.47715 17.5228 2 12 2C6.47715 2 2 6.47715 2 12C2 17.5228 6.47715 22 12 22ZM11.2682 12.4246C11.2682 12.6235 11.3472 12.8143 11.4879 12.9549C11.6285 13.0956 11.8193 13.1746 12.0182 13.1746L18.3822 13.1746C18.7964 13.1746 19.1322 12.8388 19.1322 12.4246C19.1322 12.0104 18.7964 11.6746 18.3822 11.6746H12.7682V6.06064C12.7682 5.64642 12.4324 5.31064 12.0182 5.31064C11.604 5.31064 11.2682 5.64642 11.2682 6.06064L11.2682 12.4246Z" fill="#4475E3"/>
</svg>
