<svg width="24" height="24" viewBox="0 0 24 24" fill="none" xmlns="http://www.w3.org/2000/svg">
<path d="M20 4H4C3.44772 4 3 4.44772 3 5C3 5.55228 3.44772 6 4 6H20C20.5523 6 21 5.55228 21 5C21 4.44772 20.5523 4 20 4Z" />
<path d="M8.6 2H15.4C16.284 2 17 2.716 17 3.6V4H7V3.6C7 2.716 7.716 2 8.6 2Z" />
<path d="M5 8V20.4C5 21.284 5.716 22 6.6 22H17.4C18.284 22 19 21.284 19 20.4V8H5ZM10 17.988C10 18.54 9.552 18.988 9 18.988C8.448 18.988 8 18.54 8 17.988V12.012C8 11.46 8.448 11.012 9 11.012C9.552 11.012 10 11.46 10 12.012V17.988ZM16 17.988C16 18.54 15.552 18.988 15 18.988C14.448 18.988 14 18.54 14 17.988V12.012C14 11.46 14.448 11.012 15 11.012C15.552 11.012 16 11.46 16 12.012V17.988Z" />
</svg>
