<svg width="20" height="20" viewBox="0 0 20 20" fill="none" xmlns="http://www.w3.org/2000/svg">
<path d="M16.6667 3.33398H3.33333C2.8731 3.33398 2.5 3.70708 2.5 4.16732C2.5 4.62756 2.8731 5.00065 3.33333 5.00065H16.6667C17.1269 5.00065 17.5 4.62756 17.5 4.16732C17.5 3.70708 17.1269 3.33398 16.6667 3.33398Z"/>
<path d="M7.16683 1.66699H12.8335C13.5702 1.66699 14.1668 2.26366 14.1668 3.00033V3.33366H5.8335V3.00033C5.8335 2.26366 6.43016 1.66699 7.16683 1.66699Z"/>
<path d="M4.1665 6.66699V17.0003C4.1665 17.737 4.76317 18.3337 5.49984 18.3337H14.4998C15.2365 18.3337 15.8332 17.737 15.8332 17.0003V6.66699H4.1665ZM8.33317 14.9903C8.33317 15.4503 7.95984 15.8237 7.49984 15.8237C7.03984 15.8237 6.6665 15.4503 6.6665 14.9903V10.0103C6.6665 9.55033 7.03984 9.17699 7.49984 9.17699C7.95984 9.17699 8.33317 9.55033 8.33317 10.0103V14.9903ZM13.3332 14.9903C13.3332 15.4503 12.9598 15.8237 12.4998 15.8237C12.0398 15.8237 11.6665 15.4503 11.6665 14.9903V10.0103C11.6665 9.55033 12.0398 9.17699 12.4998 9.17699C12.9598 9.17699 13.3332 9.55033 13.3332 10.0103V14.9903Z"/>
</svg>
