<svg width="24" height="24" viewBox="0 0 24 24" fill="none" xmlns="http://www.w3.org/2000/svg">
<path fill-rule="evenodd" clip-rule="evenodd" d="M16.2953 3.11222H20.0062C21.1078 3.11222 22 3.90778 22 4.89V21.3344C22 22.3167 21.1078 23.1122 20.0062 23.1122H3.99377C2.89221 23.1122 2 22.3167 2 21.3344V4.89C2 3.90778 2.89221 3.11222 3.99377 3.11222H7.67228C8.53458 1.78555 10.1396 0.889999 11.9838 0.889999C13.828 0.889999 15.433 1.78555 16.2953 3.11222ZM5.71589 20.3211H18.2816C18.9645 20.3211 19.5178 19.8278 19.5178 19.2189C19.5178 18.61 18.9645 18.1167 18.2816 18.1167H5.71589C5.03302 18.1167 4.47975 18.61 4.47975 19.2189C4.47975 19.8278 5.03302 20.3211 5.71589 20.3211ZM5.71589 13.6722C5.03302 13.6722 4.47975 14.1656 4.47975 14.7744C4.47975 15.3833 5.03302 15.8767 5.71589 15.8767H15.6947C16.3776 15.8767 16.9308 15.3833 16.9308 14.7744C16.9308 14.1656 16.3776 13.6722 15.6947 13.6722H5.71589ZM5.71589 11.4389H18.2816C18.9645 11.4389 19.5178 10.9456 19.5178 10.3367C19.5178 9.72778 18.9645 9.23444 18.2816 9.23444H5.71589C5.03302 9.23444 4.47975 9.72778 4.47975 10.3367C4.47975 10.9456 5.03302 11.4389 5.71589 11.4389ZM13.1111 5.33446C13.1111 5.94811 12.6137 6.44557 12 6.44557C11.3864 6.44557 10.8889 5.94811 10.8889 5.33446C10.8889 4.72081 11.3864 4.22335 12 4.22335C12.6137 4.22335 13.1111 4.72081 13.1111 5.33446Z"/>
</svg>
