<svg width="20" height="21" viewBox="0 0 20 21" fill="none" xmlns="http://www.w3.org/2000/svg">
<path d="M15.4134 8.90311L10.1619 14.3986L9.45397 15.1065C9.064 15.4964 8.43005 15.4964 8.04009 15.1065L7.33216 14.3986L4.29247 11.2969C3.90251 10.9069 3.90251 10.273 4.29247 9.88301C4.68243 9.49305 5.31638 9.49305 5.70634 9.88301L8.74603 12.9847L13.9975 7.48925C14.3875 7.09929 15.0214 7.09929 15.4114 7.48925C15.8013 7.87921 15.8013 8.51315 15.4114 8.90311H15.4134Z" fill="#4475E3"/>
<path d="M4.32226 5.23341L4.33423 5.22141C4.72023 4.83541 4.71422 4.21741 4.32822 3.83141C4.13622 3.63941 3.88422 3.54541 3.63222 3.54541C3.38022 3.54541 3.11827 3.64341 2.92427 3.83741C2.53827 4.22341 2.53827 4.84741 2.92427 5.23341C3.31027 5.61941 3.93426 5.61941 4.32026 5.23341H4.32226Z" fill="#4475E3"/>
<path d="M6.89992 3.49954C6.89992 3.49954 6.93391 3.48554 6.94191 3.48354C7.44391 3.27354 7.68594 2.69154 7.47594 2.18954C7.31794 1.81154 6.95194 1.58154 6.56794 1.58154C6.44194 1.58154 6.31191 1.60554 6.18791 1.65754C5.67991 1.85354 5.42594 2.42554 5.62394 2.93554C5.81994 3.44354 6.39392 3.69754 6.90192 3.49954H6.89992Z" fill="#4475E3"/>
<path d="M2.58822 7.82503C2.79822 7.32303 2.56224 6.74303 2.06024 6.53303C1.93624 6.48103 1.80621 6.45703 1.67821 6.45703C1.29221 6.45703 0.926246 6.68503 0.768246 7.06303C0.766246 7.06903 0.758235 7.08903 0.756235 7.09503C0.554235 7.59903 0.800231 8.16903 1.30223 8.37303C1.80423 8.57703 2.38022 8.33503 2.58822 7.83303" fill="#4475E3"/>
<path d="M10.001 20.9018C15.5144 20.9018 20 16.4163 20 10.9028C20 5.38936 15.5144 0.903809 10.001 0.903809C10.001 0.903809 9.99499 0.903809 9.99099 0.903809C9.44505 0.903809 9.0031 1.34576 9.0031 1.89171C9.0031 2.43766 9.44505 2.87961 9.99099 2.87961H10.001C14.4266 2.87961 18.0262 6.47925 18.0262 10.9048C18.0262 15.3304 14.4266 18.93 10.001 18.93C5.57544 18.93 1.97583 15.3304 1.97583 10.9048V10.8948C1.97583 10.3489 1.53383 9.9129 0.987889 9.9129C0.441944 9.9129 0 10.3589 0 10.9048C0 16.4183 4.48555 20.9038 9.999 20.9038L10.001 20.9018Z" fill="#4475E3"/>
</svg>
