<svg width="24" height="24" viewBox="0 0 24 24" fill="none" xmlns="http://www.w3.org/2000/svg">
<path d="M4.99792 20C4.41545 20 3.94869 20.502 4.00454 21.098C4.05441 21.618 4.51917 22 5.0398 22H19.003C19.5536 22 20.0004 21.552 20.0004 21C20.0004 20.448 19.5536 20 19.003 20H4.99792Z" fill="#4475E3"/>
<path d="M8.00923 7.99165V15.7998C8.00923 16.6839 8.72335 17.3999 9.60503 17.3999H14.3924C15.2741 17.3999 15.9882 16.6839 15.9882 15.7998V7.99165H18.1804C18.7549 7.99165 19.0003 7.25763 18.5395 6.91162L12.9562 2.31951C12.3897 1.8935 11.6097 1.8935 11.0432 2.31951L5.45994 6.91162C4.99915 7.25763 5.24252 7.99165 5.819 7.99165H8.01123H8.00923Z" fill="#4475E3"/>
</svg>
