<svg width="24" height="24" viewBox="0 0 24 24" fill="none" xmlns="http://www.w3.org/2000/svg">
<path d="M19.6544 18.245L13.9296 12.5222C13.9756 12.3562 14.0016 12.1803 14.0016 12.0003C14.0016 10.8965 13.1055 10.0007 12.0013 10.0007C11.8193 10.0007 11.6453 10.0267 11.4792 10.0727L5.76652 4.3619C5.31446 3.90999 4.59637 3.902 4.21832 4.3679C3.88827 4.77382 3.98025 5.40569 4.3843 5.8096L5.45046 6.87538C3.10615 9.16891 2 12.0003 2 12.0003C2 12.0003 5.12042 19.9987 12.0013 19.9987C13.9676 19.9987 15.6238 19.3448 16.992 18.411L18.2402 19.6587C18.6682 20.0866 19.3323 20.1166 19.7224 19.7267C20.1124 19.3368 20.0824 18.6729 19.6544 18.245ZM12.0013 15.9995C9.79104 15.9995 8.0008 14.2099 8.0008 12.0003C8.0008 11.2605 8.20284 10.5706 8.55488 9.97674L10.0711 11.4924C10.0291 11.6544 10.0031 11.8244 10.0031 12.0003C10.0031 13.1041 10.8992 13.9999 12.0033 13.9999C12.1794 13.9999 12.3494 13.9739 12.5114 13.9319L14.0276 15.4476C13.4335 15.7975 12.7434 16.0015 12.0033 16.0015L12.0013 15.9995Z"/>
<path d="M15.9919 11.8204L19.8424 15.6696C21.3046 13.7859 22.0007 11.9983 22.0007 11.9983C22.0007 11.9983 18.8803 3.99997 11.9994 3.99997C10.8212 3.99997 9.7531 4.23392 8.79297 4.62384L12.1794 8.00914C14.2457 8.10112 15.8999 9.75478 15.9919 11.8204Z"/>
</svg>
