<svg width="24" height="24" viewBox="0 0 24 24" fill="none" xmlns="http://www.w3.org/2000/svg">
<path d="M12 21C16.9698 21 21 16.9698 21 12C21 7.0302 16.9698 3 12 3C7.0302 3 3 7.0302 3 12C3 16.9698 7.0302 21 12 21ZM12.99 16.4154C12.99 16.932 12.612 17.3946 12.0972 17.4432C11.5068 17.499 11.01 17.0364 11.01 16.4586V11.514C11.01 10.9668 11.4528 10.524 12 10.524C12.5472 10.524 12.99 10.9668 12.99 11.514V16.4154ZM12 6.5532C12.549 6.5532 12.9936 6.9978 12.9936 7.5468C12.9936 8.0958 12.549 8.5404 12 8.5404C11.451 8.5404 11.0064 8.0958 11.0064 7.5468C11.0064 6.9978 11.451 6.5532 12 6.5532Z" fill="#F5BF00"/>
</svg>
