<svg width="40" height="40" viewBox="0 0 40 40" xmlns="http://www.w3.org/2000/svg">
<path d="M25.8335 23.3334H24.5168L24.0502 22.8834C26.0502 20.5501 27.0835 17.3667 26.5168 13.9834C25.7335 9.35007 21.8668 5.65007 17.2002 5.0834C10.1502 4.21673 4.23349 10.1501 5.08349 17.2001C5.65015 21.8667 9.35015 25.7334 13.9835 26.5167C17.3668 27.0834 20.5502 26.0501 22.8835 24.0501L23.3335 24.5167V25.8334L30.4335 32.9167C31.1168 33.6001 32.2168 33.6001 32.9002 32.9167L32.9168 32.9001C33.6002 32.2167 33.6002 31.1167 32.9168 30.4334L25.8335 23.3334ZM15.8335 23.3334C11.6835 23.3334 8.33349 19.9834 8.33349 15.8334C8.33349 11.6834 11.6835 8.3334 15.8335 8.3334C19.9835 8.3334 23.3335 11.6834 23.3335 15.8334C23.3335 19.9834 19.9835 23.3334 15.8335 23.3334ZM15.8335 11.6667C15.3668 11.6667 15.0002 12.0334 15.0002 12.5001V15.0001H12.5002C12.0335 15.0001 11.6668 15.3667 11.6668 15.8334C11.6668 16.3001 12.0335 16.6667 12.5002 16.6667H15.0002V19.1667C15.0002 19.6334 15.3668 20.0001 15.8335 20.0001C16.3002 20.0001 16.6668 19.6334 16.6668 19.1667V16.6667H19.1668C19.6335 16.6667 20.0002 16.3001 20.0002 15.8334C20.0002 15.3667 19.6335 15.0001 19.1668 15.0001H16.6668V12.5001C16.6668 12.0334 16.3002 11.6667 15.8335 11.6667Z" />
</svg>
