<svg width="12" height="12" viewBox="0 0 12 12" fill="none" xmlns="http://www.w3.org/2000/svg">
<path d="M7.5 1.5L8.65 2.65L7.205 4.085L7.915 4.795L9.35 3.35L10.5 4.5V1.5H7.5ZM1.5 4.5L2.65 3.35L4.085 4.795L4.795 4.085L3.35 2.65L4.5 1.5H1.5V4.5ZM4.5 10.5L3.35 9.35L4.795 7.915L4.085 7.205L2.65 8.65L1.5 7.5V10.5H4.5ZM10.5 7.5L9.35 8.65L7.915 7.205L7.205 7.915L8.65 9.35L7.5 10.5H10.5V7.5Z" fill="#2F3D78"/>
<path d="M8.75 9.5L2.5 3.25L3.25 2.5L9.5 8.75L8.75 9.5Z" fill="#2F3D78"/>
<path d="M3.25 9.5L9.5 3.25L8.75 2.5L2.5 8.75L3.25 9.5Z" fill="#2F3D78"/>
</svg>
