<svg width="113" height="112" viewBox="0 0 113 112" fill="none" xmlns="http://www.w3.org/2000/svg">
<path d="M34.6484 78.2013V19.5066C37.3415 18.7719 59.2729 32.6606 69.902 37.4562V89.3739L34.6484 78.2013Z" fill="#B3C6F1"/>
<path d="M82.9941 78.2003V19.5056C80.301 18.771 58.3697 32.6597 47.7406 37.4552V89.3729L82.9941 78.2003Z" fill="#B3C6F1"/>
<path d="M28.6641 79.4308V20.7361C31.3572 20.0014 53.2885 33.8901 63.9176 38.6857V90.6034L28.6641 79.4308Z" fill="#B3C6F1"/>
<path d="M88.791 79.4313V20.7366C86.0979 20.002 64.1665 31.2031 53.5375 35.9986V90.6039L88.791 79.4313Z" fill="#B3C6F1"/>
<path d="M93.8408 81.2708V22.5762C91.1477 21.8415 70.2455 32.2024 59.6165 36.998L58.5873 92.4435L93.8408 81.2708Z" fill="#B3C6F1"/>
<path d="M99.75 22.5046L58.9596 36.0986C58.8492 36.1354 58.7746 36.2387 58.7744 36.3551L58.6819 94.0545C58.6816 94.2392 58.8621 94.37 59.0375 94.3122L99.9204 80.8356C100.031 80.799 100.106 80.6953 100.106 80.5784V22.7615C100.106 22.5766 99.9253 22.4461 99.75 22.5046Z" fill="#C7D6F7"/>
<path d="M23.4277 81.277V22.5823C26.1208 21.8477 48.0522 33.0488 58.6813 37.8443V92.4496L23.4277 81.277Z" fill="#B3C6F1"/>
<path d="M17.6124 22.5046L58.4024 36.0985C58.513 36.1354 58.5876 36.2389 58.5876 36.3555V94.0203C58.5876 94.2048 58.4072 94.3353 58.2319 94.2775L17.4419 80.8357C17.3309 80.7991 17.2559 80.6953 17.2559 80.5784V22.7615C17.2559 22.5766 17.437 22.4461 17.6124 22.5046Z" fill="#C7D6F7"/>
<path d="M58.6449 36.1493L56.962 35.5984C56.8873 35.5739 56.8106 35.6296 56.8106 35.7081L56.8105 93.7314C56.8105 93.7812 56.8425 93.8254 56.8899 93.841L58.6447 94.4187C58.6682 94.4264 58.6935 94.4264 58.7169 94.4187L60.4717 93.841C60.519 93.8254 60.551 93.7812 60.551 93.7314V35.7081C60.551 35.6296 60.4743 35.5739 60.3997 35.5984L58.7167 36.1493C58.6934 36.1569 58.6682 36.1569 58.6449 36.1493Z" fill="#B3C6F1"/>
</svg>
