<svg width="32" height="32" viewBox="0 0 32 32" fill="none" xmlns="http://www.w3.org/2000/svg">
<path fill-rule="evenodd" clip-rule="evenodd" d="M17.3886 5.11133H8.40002C7.62681 5.11133 7 5.73814 7 6.51134V26.6003C7 27.3735 7.62681 28.0003 8.40002 28.0003H22.5996C23.3728 28.0003 23.9997 27.3735 23.9997 26.6003V10.8324H18.8109C18.0254 10.8324 17.3886 10.1956 17.3886 9.41015V5.11133Z" fill="#4475E3"/>
<path d="M18.3333 5.11122L23.9998 9.87975L19.0405 9.87975C18.6494 9.87975 18.3332 9.56281 18.3332 9.17076L18.3333 5.11122Z" fill="#4475E3"/>
<path d="M10.3146 20.4034V16.1709H11.8955C12.2194 16.1709 12.4911 16.2315 12.7107 16.3528C12.9316 16.474 13.0983 16.6407 13.2109 16.8529C13.3248 17.0637 13.3817 17.3034 13.3817 17.5721C13.3817 17.8435 13.3248 18.0846 13.2109 18.2954C13.097 18.5062 12.9289 18.6722 12.7065 18.7934C12.4842 18.9133 12.2104 18.9732 11.8852 18.9732H10.8374V18.3429H11.7823C11.9717 18.3429 12.1267 18.3099 12.2475 18.2437C12.3683 18.1776 12.4575 18.0867 12.5151 17.9709C12.5741 17.8552 12.6036 17.7222 12.6036 17.5721C12.6036 17.4219 12.5741 17.2896 12.5151 17.1753C12.4575 17.0609 12.3676 16.9721 12.2454 16.9087C12.1247 16.8439 11.9689 16.8116 11.7782 16.8116H11.0783V20.4034H10.3146Z" fill="white"/>
<path d="M10.3146 20.4034V16.1709H11.8955C12.2194 16.1709 12.4911 16.2315 12.7107 16.3528C12.9316 16.474 13.0983 16.6407 13.2109 16.8529C13.3248 17.0637 13.3817 17.3034 13.3817 17.5721C13.3817 17.8435 13.3248 18.0846 13.2109 18.2954C13.097 18.5062 12.9289 18.6722 12.7065 18.7934C12.4842 18.9133 12.2104 18.9732 11.8852 18.9732H10.8374V18.3429H11.7823C11.9717 18.3429 12.1267 18.3099 12.2475 18.2437C12.3683 18.1776 12.4575 18.0867 12.5151 17.9709C12.5741 17.8552 12.6036 17.7222 12.6036 17.5721C12.6036 17.4219 12.5741 17.2896 12.5151 17.1753C12.4575 17.0609 12.3676 16.9721 12.2454 16.9087C12.1247 16.8439 11.9689 16.8116 11.7782 16.8116H11.0783V20.4034H10.3146Z" fill="#4475E3" fill-opacity="0.05"/>
<path d="M15.6476 20.4034H14.219V16.1709H15.6764C16.0949 16.1709 16.4545 16.2556 16.755 16.4251C17.0569 16.5932 17.2889 16.835 17.4508 17.1505C17.6127 17.466 17.6937 17.8435 17.6937 18.283C17.6937 18.7239 17.6121 19.1028 17.4487 19.4196C17.2868 19.7365 17.0528 19.9797 16.7468 20.1492C16.4421 20.3186 16.0757 20.4034 15.6476 20.4034ZM14.9827 19.74H15.6105C15.9042 19.74 16.1492 19.6862 16.3454 19.5788C16.5416 19.4699 16.6892 19.308 16.788 19.0931C16.8868 18.8768 16.9362 18.6068 16.9362 18.283C16.9362 17.9592 16.8868 17.6906 16.788 17.477C16.6892 17.2621 16.543 17.1016 16.3495 16.9955C16.1574 16.888 15.9186 16.8343 15.6332 16.8343H14.9827V19.74Z" fill="white"/>
<path d="M15.6476 20.4034H14.219V16.1709H15.6764C16.0949 16.1709 16.4545 16.2556 16.755 16.4251C17.0569 16.5932 17.2889 16.835 17.4508 17.1505C17.6127 17.466 17.6937 17.8435 17.6937 18.283C17.6937 18.7239 17.6121 19.1028 17.4487 19.4196C17.2868 19.7365 17.0528 19.9797 16.7468 20.1492C16.4421 20.3186 16.0757 20.4034 15.6476 20.4034ZM14.9827 19.74H15.6105C15.9042 19.74 16.1492 19.6862 16.3454 19.5788C16.5416 19.4699 16.6892 19.308 16.788 19.0931C16.8868 18.8768 16.9362 18.6068 16.9362 18.283C16.9362 17.9592 16.8868 17.6906 16.788 17.477C16.6892 17.2621 16.543 17.1016 16.3495 16.9955C16.1574 16.888 15.9186 16.8343 15.6332 16.8343H14.9827V19.74Z" fill="#4475E3" fill-opacity="0.05"/>
<path d="M18.5932 20.4034V16.1709H21.294V16.8136H19.3569V17.9627H21.1087V18.6054H19.3569V20.4034H18.5932Z" fill="white"/>
<path d="M18.5932 20.4034V16.1709H21.294V16.8136H19.3569V17.9627H21.1087V18.6054H19.3569V20.4034H18.5932Z" fill="#4475E3" fill-opacity="0.05"/>
</svg>
