<svg width="360" height="47" viewBox="0 0 360 47" fill="none" xmlns="http://www.w3.org/2000/svg">
    <g clip-path="url(#clip0_1456_15574)">
        <rect opacity="0.867867" width="360" height="47" fill="url(#paint0_linear_1456_15574)"/>
        <rect x="8" y="27" width="244" height="4" rx="2" fill="white" fill-opacity="0.1"/>
        <circle cx="13.56" cy="29" r="6" fill="white"/>
        <g filter="url(#filter0_d_1456_15574)">
            <path d="M259.972 24.2727V33H258.915V25.3807H258.864L256.733 26.7955V25.7216L258.915 24.2727H259.972ZM265.328 33.1193C264.686 33.1193 264.139 32.9446 263.688 32.5952C263.236 32.2429 262.891 31.733 262.652 31.0653C262.413 30.3949 262.294 29.5852 262.294 28.6364C262.294 27.6932 262.413 26.8878 262.652 26.2202C262.893 25.5497 263.24 25.0384 263.692 24.6861C264.146 24.331 264.692 24.1534 265.328 24.1534C265.964 24.1534 266.509 24.331 266.96 24.6861C267.415 25.0384 267.761 25.5497 268 26.2202C268.241 26.8878 268.362 27.6932 268.362 28.6364C268.362 29.5852 268.243 30.3949 268.004 31.0653C267.766 31.733 267.42 32.2429 266.969 32.5952C266.517 32.9446 265.97 33.1193 265.328 33.1193ZM265.328 32.1818C265.964 32.1818 266.459 31.875 266.811 31.2614C267.163 30.6477 267.339 29.7727 267.339 28.6364C267.339 27.8807 267.259 27.2372 267.097 26.706C266.938 26.1747 266.707 25.7699 266.406 25.4915C266.108 25.2131 265.749 25.0739 265.328 25.0739C264.697 25.0739 264.205 25.3849 263.849 26.0071C263.494 26.6264 263.317 27.5028 263.317 28.6364C263.317 29.392 263.396 30.0341 263.555 30.5625C263.714 31.0909 263.943 31.4929 264.241 31.7685C264.543 32.044 264.905 32.1818 265.328 32.1818ZM270.732 31.8835C270.521 31.8835 270.341 31.8082 270.19 31.6577C270.04 31.5071 269.964 31.3267 269.964 31.1165C269.964 30.9062 270.04 30.7259 270.19 30.5753C270.341 30.4247 270.521 30.3494 270.732 30.3494C270.942 30.3494 271.122 30.4247 271.273 30.5753C271.423 30.7259 271.499 30.9062 271.499 31.1165C271.499 31.2557 271.463 31.3835 271.392 31.5C271.324 31.6165 271.232 31.7102 271.115 31.7812C271.001 31.8494 270.874 31.8835 270.732 31.8835ZM270.732 27.4688C270.521 27.4688 270.341 27.3935 270.19 27.2429C270.04 27.0923 269.964 26.9119 269.964 26.7017C269.964 26.4915 270.04 26.3111 270.19 26.1605C270.341 26.0099 270.521 25.9347 270.732 25.9347C270.942 25.9347 271.122 26.0099 271.273 26.1605C271.423 26.3111 271.499 26.4915 271.499 26.7017C271.499 26.8409 271.463 26.9688 271.392 27.0852C271.324 27.2017 271.232 27.2955 271.115 27.3665C271.001 27.4347 270.874 27.4688 270.732 27.4688ZM276.235 33.1193C275.673 33.1193 275.171 33.0227 274.731 32.8295C274.293 32.6364 273.945 32.3679 273.687 32.0241C273.431 31.6776 273.292 31.2756 273.269 30.8182H274.343C274.366 31.0994 274.462 31.3423 274.633 31.5469C274.803 31.7486 275.026 31.9048 275.302 32.0156C275.577 32.1264 275.883 32.1818 276.218 32.1818C276.593 32.1818 276.925 32.1165 277.215 31.9858C277.505 31.8551 277.732 31.6733 277.897 31.4403C278.062 31.2074 278.144 30.9375 278.144 30.6307C278.144 30.3097 278.065 30.027 277.906 29.7827C277.746 29.5355 277.513 29.3423 277.207 29.2031C276.9 29.0639 276.525 28.9943 276.082 28.9943H275.383V28.0568H276.082C276.428 28.0568 276.732 27.9943 276.994 27.8693C277.258 27.7443 277.464 27.5682 277.612 27.3409C277.762 27.1136 277.837 26.8466 277.837 26.5398C277.837 26.2443 277.772 25.9872 277.641 25.7685C277.511 25.5497 277.326 25.3793 277.087 25.2571C276.852 25.1349 276.573 25.0739 276.252 25.0739C275.951 25.0739 275.667 25.1293 275.4 25.2401C275.136 25.348 274.92 25.5057 274.752 25.7131C274.585 25.9176 274.494 26.1648 274.479 26.4545H273.457C273.474 25.9972 273.612 25.5966 273.87 25.2528C274.129 24.9062 274.467 24.6364 274.884 24.4432C275.305 24.25 275.766 24.1534 276.269 24.1534C276.809 24.1534 277.272 24.2628 277.658 24.4815C278.045 24.6974 278.342 24.983 278.549 25.3381C278.756 25.6932 278.86 26.0767 278.86 26.4886C278.86 26.9801 278.731 27.3991 278.472 27.7457C278.217 28.0923 277.869 28.3324 277.428 28.4659V28.5341C277.979 28.625 278.41 28.8594 278.719 29.2372C279.029 29.6122 279.184 30.0767 279.184 30.6307C279.184 31.1051 279.055 31.5312 278.796 31.9091C278.54 32.2841 278.191 32.5795 277.748 32.7955C277.305 33.0114 276.8 33.1193 276.235 33.1193ZM283.654 33.1193C283.154 33.1193 282.704 33.0199 282.303 32.821C281.903 32.6222 281.582 32.3494 281.34 32.0028C281.099 31.6562 280.967 31.2614 280.944 30.8182H281.967C282.006 31.2131 282.185 31.5398 282.504 31.7983C282.825 32.054 283.208 32.1818 283.654 32.1818C284.012 32.1818 284.33 32.098 284.609 31.9304C284.89 31.7628 285.11 31.5327 285.269 31.2401C285.431 30.9446 285.512 30.6108 285.512 30.2386C285.512 29.858 285.428 29.5185 285.261 29.2202C285.096 28.919 284.869 28.6818 284.579 28.5085C284.289 28.3352 283.958 28.2472 283.586 28.2443C283.319 28.2415 283.045 28.2827 282.763 28.3679C282.482 28.4503 282.251 28.5568 282.069 28.6875L281.08 28.5682L281.609 24.2727H286.143V25.2102H282.495L282.188 27.7841H282.239C282.418 27.642 282.643 27.5241 282.913 27.4304C283.183 27.3366 283.464 27.2898 283.756 27.2898C284.29 27.2898 284.766 27.4176 285.184 27.6733C285.604 27.9261 285.934 28.2727 286.173 28.7131C286.414 29.1534 286.535 29.6562 286.535 30.2216C286.535 30.7784 286.41 31.2756 286.16 31.7131C285.913 32.1477 285.572 32.4915 285.137 32.7443C284.702 32.9943 284.208 33.1193 283.654 33.1193Z" fill="white"/>
        </g>
        <path fill-rule="evenodd" clip-rule="evenodd" d="M316.48 22.5742C316.153 22.2505 315.625 22.2531 315.302 22.5802C314.978 22.9073 314.98 23.4349 315.307 23.7587C316.713 25.1499 317.501 27.0346 317.501 28.998C317.501 30.9614 316.713 32.8461 315.307 34.2373C314.98 34.5611 314.978 35.0887 315.302 35.4158C315.625 35.7429 316.153 35.7456 316.48 35.4218C318.2 33.7194 319.167 31.4089 319.167 28.998C319.167 26.5871 318.2 24.2766 316.48 22.5742ZM313.538 25.4859C313.211 25.1621 312.683 25.1648 312.359 25.4918C312.036 25.8189 312.038 26.3465 312.365 26.6703C312.989 27.2881 313.338 28.1241 313.338 28.9939C313.338 29.8637 312.989 30.6996 312.365 31.3174C312.038 31.6412 312.036 32.1689 312.359 32.4959C312.683 32.823 313.211 32.8257 313.538 32.5019C314.476 31.5729 315.005 30.3112 315.005 28.9939C315.005 27.6765 314.476 26.4149 313.538 25.4859ZM310.002 23.2241C310.002 22.9045 309.819 22.6131 309.531 22.4739C309.243 22.3348 308.902 22.3724 308.651 22.5708L304.711 25.6901H301.667C301.207 25.6901 300.834 26.0632 300.834 26.5234V31.4724C300.834 31.9326 301.207 32.3057 301.667 32.3057H304.711L308.651 35.4251C308.902 35.6234 309.243 35.661 309.531 35.5219C309.819 35.3827 310.002 35.0913 310.002 34.7717V23.2241ZM305.518 27.1768L308.335 24.9468V33.049L305.518 30.819C305.371 30.7025 305.189 30.6391 305.001 30.6391H302.501V27.3567H305.001C305.189 27.3567 305.371 27.2933 305.518 27.1768Z" fill="white"/>
        <path fill-rule="evenodd" clip-rule="evenodd" d="M337.001 22.3334C336.08 22.3334 335.334 23.0796 335.334 24V26.5C335.334 26.9603 335.707 27.3334 336.167 27.3334C336.628 27.3334 337.001 26.9603 337.001 26.5V24H339.501C339.961 24 340.334 23.6269 340.334 23.1667C340.334 22.7065 339.961 22.3334 339.501 22.3334H337.001ZM347.001 35.6667C347.921 35.6667 348.667 34.9205 348.667 34V31.5C348.667 31.0398 348.294 30.6667 347.834 30.6667C347.374 30.6667 347.001 31.0398 347.001 31.5V34H344.501C344.04 34 343.667 34.3731 343.667 34.8334C343.667 35.2936 344.04 35.6667 344.501 35.6667H347.001ZM347.001 22.3334C347.921 22.3334 348.667 23.0796 348.667 24V26.5C348.667 26.9603 348.294 27.3334 347.834 27.3334C347.374 27.3334 347.001 26.9603 347.001 26.5L347.001 24L344.501 24C344.04 24 343.667 23.6269 343.667 23.1667C343.667 22.7065 344.04 22.3334 344.501 22.3334H347.001ZM335.334 34C335.334 34.9205 336.08 35.6667 337.001 35.6667L339.501 35.6667C339.961 35.6667 340.334 35.2936 340.334 34.8334C340.334 34.3731 339.961 34 339.501 34H337.001L337.001 31.5C337.001 31.0398 336.628 30.6667 336.167 30.6667C335.707 30.6667 335.334 31.0398 335.334 31.5V34Z" fill="white"/>
    </g>
    <defs>
        <filter id="filter0_d_1456_15574" x="256.732" y="24.1534" width="31.8027" height="11.4658" filterUnits="userSpaceOnUse" color-interpolation-filters="sRGB">
            <feFlood flood-opacity="0" result="BackgroundImageFix"/>
            <feColorMatrix in="SourceAlpha" type="matrix" values="0 0 0 0 0 0 0 0 0 0 0 0 0 0 0 0 0 0 127 0" result="hardAlpha"/>
            <feOffset dx="1" dy="1.5"/>
            <feGaussianBlur stdDeviation="0.5"/>
            <feColorMatrix type="matrix" values="0 0 0 0 0 0 0 0 0 0 0 0 0 0 0 0 0 0 0.1 0"/>
            <feBlend mode="normal" in2="BackgroundImageFix" result="effect1_dropShadow_1456_15574"/>
            <feBlend mode="normal" in="SourceGraphic" in2="effect1_dropShadow_1456_15574" result="shape"/>
        </filter>
        <linearGradient id="paint0_linear_1456_15574" x1="4.82502" y1="1.25987" x2="4.82502" y2="47" gradientUnits="userSpaceOnUse">
            <stop stop-opacity="0.01"/>
            <stop offset="1"/>
        </linearGradient>
        <clipPath id="clip0_1456_15574">
            <rect width="360" height="47" fill="white"/>
        </clipPath>
    </defs>
</svg>
