<svg width="32" height="32" viewBox="0 0 32 32" fill="none" xmlns="http://www.w3.org/2000/svg">
<path d="M9.03833 22.0107V5.00813C9.81847 4.79532 16.1715 8.81858 19.2505 10.2078V25.2472L9.03833 22.0107Z" fill="#B3C6F1"/>
<path d="M23.0429 22.0107V5.00813C22.2628 4.79532 15.9097 8.81858 12.8307 10.2078V25.2472L23.0429 22.0107Z" fill="#B3C6F1"/>
<path d="M7.30475 22.3672V5.36458C8.08489 5.15177 14.4379 9.17503 17.517 10.5642V25.6037L7.30475 22.3672Z" fill="#B3C6F1"/>
<path d="M24.7224 22.3671V5.36448C23.9423 5.15167 17.5892 8.39638 14.5102 9.78556V25.6036L24.7224 22.3671Z" fill="#B3C6F1"/>
<path d="M26.1852 22.9001V5.89747C25.405 5.68466 19.3501 8.68598 16.2711 10.0752L15.973 26.1366L26.1852 22.9001Z" fill="#B3C6F1"/>
<path d="M27.6435 5.96158L16.212 9.77133C16.1015 9.80814 16.0269 9.91143 16.0268 10.0279L16.0006 26.3373C16.0003 26.5219 16.1809 26.6528 16.3563 26.5949L27.8139 22.818C27.925 22.7814 28 22.6777 28 22.5608V6.21855C28 6.03368 27.8189 5.90313 27.6435 5.96158Z" fill="#4475E3"/>
<path d="M5.78784 22.9022V5.89963C6.56798 5.68682 12.921 8.93154 16 10.3207V26.1387L5.78784 22.9022Z" fill="#B3C6F1"/>
<path d="M4.3565 5.96158L15.7877 9.77123C15.8983 9.80809 15.9729 9.9116 15.9729 10.0282V26.3278C15.9729 26.5123 15.7925 26.6428 15.6173 26.5851L4.18608 22.818C4.07503 22.7814 4 22.6777 4 22.5608V6.21855C4 6.03368 4.18111 5.90313 4.3565 5.96158Z" fill="#4475E3"/>
<path d="M15.9641 9.82086L15.6096 9.70482C15.5349 9.68039 15.4582 9.736 15.4582 9.81453L15.4582 26.4502C15.4582 26.5 15.4902 26.5443 15.5375 26.5599L15.9639 26.7002C15.9873 26.7079 16.0126 26.7079 16.0361 26.7002L16.4624 26.5599C16.5097 26.5443 16.5417 26.5 16.5417 26.4502V9.81453C16.5417 9.736 16.465 9.68039 16.3904 9.70482L16.0359 9.82086C16.0125 9.8285 15.9874 9.8285 15.9641 9.82086Z" fill="#1B54D5"/>
</svg>
