<svg width="112" height="112" viewBox="0 0 112 112" fill="none" xmlns="http://www.w3.org/2000/svg">
    <path d="M51.1767 39.0902V24.8672L85.7117 24.8681C89.0526 24.8681 91.8077 27.6233 91.8077 30.9642V37.0602V39.0902V93.9126C91.8077 96.1832 89.9671 97.9992 87.6964 97.9992H76.5705H45.8441L43.0491 98.0001H36.953C33.6123 98.0001 30.8672 95.2449 30.8672 91.904V45.1788H45.0806C48.4215 45.1788 51.1767 42.4317 51.1767 39.0902Z" fill="#C7D6F7"/>
    <path d="M41.3095 15V29.223C41.3095 32.5644 38.5543 35.3116 35.2134 35.3116H21V82.0368C21 85.3777 23.7451 88.1329 27.0858 88.1329H33.1819L35.9769 88.132C46.1789 88.132 66.7033 88.132 66.7033 88.132H77.8293C80.0999 88.132 81.9406 86.316 81.9406 84.0454C81.9406 71.8833 81.9406 36.3242 81.9406 29.223V27.193V21.0969C81.9406 17.756 79.1854 15.0009 75.8445 15.0009L41.3095 15ZM37.2464 16.1841L22.1923 31.2464H35.2134C36.3738 31.2464 37.2464 30.384 37.2464 29.223V16.1841Z" fill="#B3C6F1"/>
</svg>
