<svg width="205" height="205" viewBox="0 0 205 205" fill="none" xmlns="http://www.w3.org/2000/svg">
<rect width="205" height="205" fill="white"/>
<path d="M170.833 88.4491V162.697C170.835 163.583 170.644 164.461 170.272 165.276C169.9 166.091 169.355 166.826 168.67 167.437C168.653 167.455 168.635 167.473 168.615 167.489C167.323 168.627 165.616 169.259 163.844 169.256H41.1565C39.3841 169.259 37.6772 168.627 36.385 167.489C36.3654 167.473 36.347 167.455 36.3301 167.437C35.645 166.826 35.0998 166.091 34.7278 165.276C34.3559 164.461 34.1649 163.583 34.1667 162.697V88.4491C34.1671 86.405 34.6412 84.3855 35.5561 82.5304C36.4711 80.6754 37.805 79.0293 39.4654 77.7061L94.7305 33.678C96.9001 31.9491 99.6538 31 102.5 31C105.346 31 108.1 31.9491 110.27 33.678L165.535 77.7061C167.195 79.0293 168.529 80.6754 169.444 82.5304C170.359 84.3855 170.833 86.405 170.833 88.4491Z" fill="#1C77FF"/>
<path d="M152.558 48.8779H52.4419C51.1254 48.8779 50.0582 49.9452 50.0582 51.2617V148.597C50.0582 149.913 51.1254 150.981 52.4419 150.981H152.558C153.875 150.981 154.942 149.913 154.942 148.597V51.2617C154.942 49.9452 153.875 48.8779 152.558 48.8779Z" fill="#F3F7FF"/>
<path d="M102.79 102.919C112.476 102.919 120.329 95.0927 120.329 85.4384C120.329 75.7841 112.476 67.9578 102.79 67.9578C93.1033 67.9578 85.2508 75.7841 85.2508 85.4384C85.2508 95.0927 93.1033 102.919 102.79 102.919Z" fill="#C7DAFF"/>
<path d="M93.7128 85.8989L99.5021 91.2343C99.9605 91.6569 100.667 91.6547 101.123 91.2293L111.549 81.4985" stroke="#4285F4" stroke-width="2.98124" stroke-linecap="round"/>
<path d="M170.833 88.6064V167.725C170.835 168.67 170.645 169.605 170.274 170.474C169.903 171.342 169.359 172.126 168.676 172.776C168.659 172.796 168.641 172.814 168.621 172.831L110.446 123.301L112.406 122.176L170.833 88.6064Z" fill="#5B92FE"/>
<path d="M94.7305 123.301L36.385 172.831C36.3654 172.814 36.347 172.796 36.3301 172.776C35.645 172.126 35.0998 171.342 34.7278 170.474C34.3559 169.605 34.1649 168.67 34.1667 167.725V88.6064L92.7648 122.176L94.7305 123.301Z" fill="#5B92FE"/>
<path d="M168.847 172.532C167.55 173.748 165.837 174.424 164.059 174.42H40.9413C39.1626 174.424 37.4498 173.748 36.153 172.532L94.7031 122.854C96.8803 121.007 99.6436 119.992 102.5 119.992C105.356 119.992 108.12 121.007 110.297 122.854L168.847 172.532Z" fill="#70A0FF"/>
</svg>
