<svg width="240" height="240" viewBox="0 0 240 240" fill="none" xmlns="http://www.w3.org/2000/svg">
<path d="M30.7562 58.3674C30.7562 49.8013 37.7004 42.8572 46.2664 42.8572H192.221C200.787 42.8572 207.731 49.8013 207.731 58.3674V116.67C207.731 125.236 200.787 132.18 192.221 132.18H46.2665C37.7004 132.18 30.7563 125.236 30.7563 116.67L30.7562 58.3674Z" fill="#E3EAFB"/>
<path d="M18.1912 80.7706C17.6203 68.5564 27.3689 58.3414 39.5964 58.3414H119.056C124.616 58.3414 129.958 60.5026 133.955 64.3684L141.822 71.9783C145.818 75.8442 151.16 78.0053 156.72 78.0053H198.807C211.617 78.0053 221.566 89.1707 220.093 101.896L211.228 178.535C209.978 189.345 200.824 197.501 189.942 197.501H44.0979C32.6523 197.501 23.2272 188.506 22.6927 177.073L18.1912 80.7706Z" fill="#B3C6F1"/>
</svg>
