<svg width="250" height="250" viewBox="0 0 250 250" fill="none" xmlns="http://www.w3.org/2000/svg">
<circle cx="125" cy="125" r="125" transform="matrix(-1 0 0 1 250 0)" fill="#F6F8FE"/>
<mask id="mask0_2570_43615" style="mask-type:alpha" maskUnits="userSpaceOnUse" x="0" y="0" width="250" height="250">
<circle cx="125" cy="125" r="125" transform="matrix(-1 0 0 1 250 0)" fill="#F6F8FE"/>
</mask>
<g mask="url(#mask0_2570_43615)">
<mask id="mask1_2570_43615" style="mask-type:alpha" maskUnits="userSpaceOnUse" x="-2" y="0" width="250" height="250">
<circle cx="125" cy="125" r="125" transform="matrix(-1 0 0 1 248 0)" fill="#F6F8FE"/>
</mask>
<g mask="url(#mask1_2570_43615)">
<path d="M449.746 92.6C430.52 88.7549 428.918 67.5001 430.52 57.3533H388.865C390.467 64.2958 388.224 78.1809 366.435 78.1809C339.199 78.1809 283.125 94.2022 254.287 94.2022C225.448 94.2022 113.299 105.417 95.6761 108.621C78.0527 111.826 75.0462 101.979 33.7465 114.439C29.8383 115.619 28.3353 120.047 29.269 124.079C29.3545 124.623 29.5483 125.193 29.8244 125.786C30.1281 126.5 30.5159 127.181 30.988 127.807C32.9956 130.838 36.2059 134.332 37.8576 138.048C39.14 140.934 41.0523 142.643 55.4714 142.643C68.3882 142.643 71.6442 139.062 102.085 134.255C132.525 129.449 275.114 139.062 303.952 148.674C332.791 158.287 329.586 196.738 335.995 206.351C342.403 215.964 335.995 278.447 335.995 292.866C335.995 304.401 326.382 357.485 321.576 382.585H483.39C483.39 371.37 478.584 316.898 476.982 292.866C475.38 268.834 481.788 190.33 483.39 206.351C484.993 222.372 512.229 339.327 512.229 358.553C512.229 377.778 501.014 397.004 496.207 417.832C491.401 438.659 512.229 440.261 529.852 432.251C547.476 424.24 537.863 405.015 537.863 358.553C537.863 312.091 517.035 153.481 512.229 126.245C507.422 99.0085 473.778 97.4064 449.746 92.6Z" fill="#E3EAFB"/>
<path d="M398.477 108.622C427.957 112.467 443.871 98.4747 448.143 90.9982C489.799 90.9982 507.422 108.622 512.228 116.632C516.073 123.041 521.307 168.434 523.443 190.33C527.715 222.372 536.26 287.739 536.26 292.866C536.26 299.274 544.271 360.155 539.464 364.962C534.658 369.768 510.626 364.962 510.626 361.757V350.542C510.626 345.736 488.196 246.404 488.196 239.996C488.196 233.587 483.39 209.555 481.788 212.76C480.185 215.964 478.583 264.028 478.583 275.243C478.583 286.457 481.788 342.532 483.39 358.553C484.672 371.37 483.924 379.915 483.39 382.585H319.973C324.78 353.213 334.713 292.225 335.995 283.253C337.597 272.038 334.389 229.968 331.932 212.334C331.134 206.612 329.586 187.126 321.576 164.696C315.167 146.752 260.161 140.13 233.459 139.062C215.835 137.994 174.381 135.858 161.5 135.858H103.719C98.9124 135.858 97.3102 107.102 103.719 105.5C110.127 103.898 191.803 97.4067 198.212 95.8045C204.62 94.2024 274.205 90.0304 282.153 89.0368C294.406 87.5052 344.005 80.3173 371.241 74.9769C368.037 84.5897 368.998 104.776 398.477 108.622Z" fill="#4475E3"/>
<path d="M145.866 95.5005L140.104 85.4938L151.651 85.5072L145.866 95.5005ZM174.367 34.9897L174.05 35.9384L174.367 34.9897ZM190.652 201.921L189.758 201.474L190.652 201.921ZM144.866 142.886C144.866 142.333 145.313 141.885 145.865 141.885C146.418 141.884 146.866 142.332 146.866 142.884L144.866 142.886ZM144.877 86.4712C145.233 74.3829 146.975 59.5694 151.382 48.6417C153.584 43.1815 156.497 38.5773 160.343 35.8087C164.247 32.9981 169.014 32.1515 174.683 34.041L174.05 35.9384C168.948 34.2376 164.858 35.0226 161.511 37.4318C158.106 39.8831 155.376 44.087 153.237 49.3898C148.962 59.9882 147.23 74.5204 146.876 86.53L144.877 86.4712ZM174.683 34.041C178.785 35.4084 182.33 38.6226 185.37 43.1068C188.413 47.5966 191.005 53.4372 193.175 60.2031C197.517 73.7372 200.226 91.1351 201.436 109.25C202.646 127.374 202.359 146.262 200.684 162.796C199.013 179.297 195.949 193.563 191.547 202.369L189.758 201.474C193.992 193.006 197.028 179.041 198.694 162.594C200.357 146.179 200.644 127.403 199.44 109.384C198.237 91.357 195.544 74.1359 191.271 60.8141C189.133 54.1521 186.613 48.5056 183.714 44.229C180.812 39.947 177.582 37.1156 174.05 35.9384L174.683 34.041ZM191.547 202.369C187.422 210.619 182.408 215.511 177.035 216.855C171.587 218.219 166.147 215.854 161.423 210.469C156.706 205.093 152.583 196.595 149.632 185.284C146.677 173.957 144.881 159.748 144.866 142.886L146.866 142.884C146.881 159.612 148.663 173.648 151.567 184.779C154.474 195.924 158.49 204.094 162.926 209.15C167.356 214.2 172.083 216.033 176.55 214.915C181.091 213.779 185.74 209.51 189.758 201.474L191.547 202.369Z" fill="#2D2D2D"/>
</g>
<circle cx="125" cy="125" r="125" transform="matrix(-1 0 0 1 250 0)" fill="#F6F8FE"/>
<mask id="mask2_2570_43615" style="mask-type:alpha" maskUnits="userSpaceOnUse" x="0" y="0" width="250" height="250">
<circle cx="125" cy="125" r="125" transform="matrix(-1 0 0 1 250 0)" fill="#F6F8FE"/>
</mask>
<g mask="url(#mask2_2570_43615)">
</g>
<mask id="mask3_2570_43615" style="mask-type:alpha" maskUnits="userSpaceOnUse" x="0" y="0" width="250" height="250">
<circle cx="125" cy="125" r="125" transform="matrix(-1 0 0 1 250 0)" fill="#F6F8FE"/>
</mask>
<g mask="url(#mask3_2570_43615)">
<path fill-rule="evenodd" clip-rule="evenodd" d="M278.995 156.854C278.995 156.025 278.324 155.354 277.495 155.354H-26.4949C-27.3234 155.354 -27.9949 156.025 -27.9949 156.854C-27.9949 157.682 -27.3234 158.354 -26.4949 158.354H277.495C278.324 158.354 278.995 157.682 278.995 156.854Z" fill="#C7D6F7"/>
<path fill-rule="evenodd" clip-rule="evenodd" d="M278.995 196.5C278.995 195.672 278.324 195 277.495 195H-26.4949C-27.3234 195 -27.9949 195.672 -27.9949 196.5C-27.9949 197.328 -27.3234 198 -26.4949 198H277.495C278.324 198 278.995 197.328 278.995 196.5Z" fill="#C7D6F7"/>
<path d="M77.9012 106.01C77.9012 97.4527 110.347 28.6385 126.57 -4.69901L77.9012 -17C68.8091 -5.23383 51.6947 100.127 44.2071 108.684C36.7196 117.241 24.9534 129.007 23.8837 135.425C22.83 141.748 50.3224 151.184 85.3979 163.224L86.9932 163.771C122.827 176.072 115.339 156.284 104.108 151.47C92.8763 146.657 77.9012 116.706 77.9012 106.01Z" fill="#C7D6F7"/>
<path d="M165.078 134.356C160.799 122.376 166.86 33.4526 170.426 -9.51172H117.478C117.478 2.78928 136.197 124.73 136.197 134.356C136.197 143.983 128.175 164.307 129.779 173.934C131.384 183.56 165.078 177.143 192.354 179.282C219.63 181.421 224.443 169.12 216.956 164.307C209.468 159.493 170.426 149.332 165.078 134.356Z" fill="#C7D6F7"/>
<path d="M104.5 41.5L118 0L119.5 10L104.5 41.5Z" fill="#B3C6F1"/>
<path d="M168.287 133.287C166.147 132.004 164.186 133.822 163.473 134.892C152.242 147.728 142.427 145.191 139.406 143.983C136.732 142.913 136.197 141.131 135.662 139.704C135.127 140.239 134.058 142.379 131.918 148.796C129.244 156.819 126.826 168.927 128 176C129.326 183.984 165.078 180.886 178.983 180.886C192.889 180.886 198.237 181.421 208.399 180.886C218.56 180.351 224.443 173.398 222.304 166.446C220.165 159.493 209.468 157.889 192.889 151.471C176.309 145.053 170.961 134.892 168.287 133.287Z" fill="#4475E3"/>
<path d="M45.8379 104.187C46.9076 102.582 49.0469 107.93 55.9996 109C61.303 109.816 71.7653 107.787 77.62 106.698C77.62 106.698 78.435 106.01 78.435 106.544C78.435 107.078 83.2484 124.194 92.3405 137.03C101.433 149.865 124.43 158.957 112.664 166.445C100.898 173.933 78.435 162.166 59.7161 155.748C40.9972 149.331 22.8131 141.308 22.2783 135.425C21.7435 129.542 44.7683 105.791 45.8379 104.187Z" fill="#4475E3"/>
<path d="M87 128.499C90.6 136.099 104.167 148.666 110.5 153.999C90.6667 139.166 52 109.998 62.5 108.998C73.9915 107.905 76.5 103.499 79 105.999C81.1504 108.15 82.5 118.999 87 128.499Z" fill="#4475E3"/>
</g>
<path fill-rule="evenodd" clip-rule="evenodd" d="M92.7826 134.306C92.2772 133.323 91.0713 132.937 90.0891 133.442C89.2509 133.874 87.8444 134.519 86.4123 135.024C84.876 135.565 83.6859 135.804 83.1076 135.744C82.009 135.629 81.0252 136.426 80.9102 137.525C80.7952 138.623 81.5925 139.607 82.6911 139.722C84.2552 139.886 86.2129 139.335 87.7413 138.796C89.3738 138.221 90.9485 137.499 91.9193 136.999C92.9015 136.494 93.288 135.288 92.7826 134.306Z" fill="#2057D5"/>
<path fill-rule="evenodd" clip-rule="evenodd" d="M87.792 125.6C87.4479 124.55 86.3181 123.978 85.2685 124.322C84.1594 124.686 82.3041 125.2 80.4161 125.539C78.4369 125.894 76.7682 125.988 75.8452 125.76C74.7729 125.495 73.6886 126.149 73.4233 127.221C73.1579 128.293 73.8121 129.378 74.8843 129.643C76.7038 130.093 79.1154 129.836 81.1224 129.476C83.2206 129.1 85.2575 128.535 86.5145 128.123C87.5641 127.779 88.1361 126.649 87.792 125.6Z" fill="#2057D5"/>
<path d="M174.001 181.002C172.583 180.741 142.511 172.462 127.784 168.979C127.5 171.5 125.524 177.671 130.933 180.141C137.695 183.228 174.427 181.081 174.001 181.002Z" fill="#2057D5"/>
<path fill-rule="evenodd" clip-rule="evenodd" d="M191.191 148.991C190.231 148.446 189.01 148.783 188.465 149.743C188 150.563 187.176 151.873 186.254 153.079C185.264 154.373 184.399 155.225 183.882 155.491C182.9 155.996 182.513 157.202 183.018 158.184C183.523 159.166 184.729 159.553 185.711 159.048C187.11 158.329 188.447 156.796 189.431 155.509C190.482 154.134 191.405 152.667 191.944 151.718C192.489 150.757 192.152 149.536 191.191 148.991Z" fill="#2057D5"/>
<path fill-rule="evenodd" clip-rule="evenodd" d="M182.249 144.438C181.387 143.748 180.128 143.888 179.438 144.751C178.709 145.662 177.438 147.108 176.043 148.425C174.582 149.806 173.237 150.798 172.339 151.112C171.297 151.477 170.747 152.618 171.112 153.661C171.477 154.703 172.618 155.253 173.661 154.888C175.43 154.269 177.307 152.733 178.79 151.333C180.34 149.87 181.735 148.282 182.562 147.249C183.252 146.387 183.112 145.128 182.249 144.438Z" fill="#2057D5"/>
<path d="M63.5003 157C62.3003 156.2 37.667 137.5 25.5003 128.5C23.3336 130.333 20.0003 135.6 24.0003 140C29.0003 145.5 65.0003 158 63.5003 157Z" fill="#2057D5"/>
</g>
</svg>
