<svg width="250" height="250" viewBox="0 0 250 250" fill="none" xmlns="http://www.w3.org/2000/svg">
<circle cx="125" cy="125" r="125" fill="#F6F8FE"/>
<mask id="mask0_2570_43707" style="mask-type:alpha" maskUnits="userSpaceOnUse" x="0" y="0" width="250" height="250">
<circle cx="125" cy="125" r="125" fill="#F6F8FE"/>
</mask>
<g mask="url(#mask0_2570_43707)">
<mask id="mask1_2570_43707" style="mask-type:alpha" maskUnits="userSpaceOnUse" x="2" y="0" width="250" height="250">
<circle cx="127" cy="125" r="125" fill="#F6F8FE"/>
</mask>
<g mask="url(#mask1_2570_43707)">
<path d="M-199.746 92.6C-180.52 88.7549 -178.918 67.5001 -180.52 57.3533H-138.865C-140.467 64.2958 -138.224 78.1809 -116.435 78.1809C-89.1992 78.1809 -33.1248 94.2022 -4.28656 94.2022C24.5517 94.2022 136.701 105.417 154.324 108.621C171.947 111.826 174.954 101.979 216.253 114.439C220.162 115.619 221.665 120.047 220.731 124.079C220.646 124.623 220.452 125.193 220.176 125.786C219.872 126.5 219.484 127.181 219.012 127.807C217.004 130.838 213.794 134.332 212.142 138.048C210.86 140.934 208.948 142.643 194.529 142.643C181.612 142.643 178.356 139.062 147.915 134.255C117.475 129.449 -25.1142 139.062 -53.9524 148.674C-82.7907 158.287 -79.5864 196.738 -85.9949 206.351C-92.4034 215.964 -85.9949 278.447 -85.9949 292.866C-85.9949 304.401 -76.3822 357.485 -71.5758 382.585H-233.39C-233.39 371.37 -228.584 316.898 -226.982 292.866C-225.38 268.834 -231.788 190.33 -233.39 206.351C-234.993 222.372 -262.229 339.327 -262.229 358.553C-262.229 377.778 -251.014 397.004 -246.207 417.832C-241.401 438.659 -262.229 440.261 -279.852 432.251C-297.476 424.24 -287.863 405.015 -287.863 358.553C-287.863 312.091 -267.035 153.481 -262.229 126.245C-257.422 99.0085 -223.778 97.4064 -199.746 92.6Z" fill="#E3EAFB"/>
<path d="M-148.477 108.622C-177.957 112.467 -193.871 98.4747 -198.143 90.9982C-239.799 90.9982 -257.422 108.622 -262.228 116.632C-266.073 123.041 -271.307 168.434 -273.443 190.33C-277.715 222.372 -286.26 287.739 -286.26 292.866C-286.26 299.274 -294.271 360.155 -289.464 364.962C-284.658 369.768 -260.626 364.962 -260.626 361.757V350.542C-260.626 345.736 -238.196 246.404 -238.196 239.996C-238.196 233.587 -233.39 209.555 -231.788 212.76C-230.185 215.964 -228.583 264.028 -228.583 275.243C-228.583 286.457 -231.788 342.532 -233.39 358.553C-234.672 371.37 -233.924 379.915 -233.39 382.585H-69.9733C-74.7797 353.213 -84.7129 292.225 -85.9946 283.253C-87.5967 272.038 -84.389 229.968 -81.9315 212.334C-81.1343 206.612 -79.5861 187.126 -71.5755 164.696C-65.167 146.752 -10.1606 140.13 16.5414 139.062C34.1648 137.994 75.6191 135.858 88.5 135.858H146.281C151.088 135.858 152.69 107.102 146.281 105.5C139.873 103.898 58.1967 97.4067 51.7882 95.8045C45.3797 94.2024 -24.2046 90.0304 -32.1533 89.0368C-44.4064 87.5052 -94.0052 80.3173 -121.241 74.9769C-118.037 84.5897 -118.998 104.776 -148.477 108.622Z" fill="#4475E3"/>
<path d="M104.134 95.5005L109.896 85.4938L98.3487 85.5072L104.134 95.5005ZM75.6334 34.9897L75.9496 35.9384L75.6334 34.9897ZM59.3478 201.921L60.2423 201.474L59.3478 201.921ZM105.134 142.886C105.134 142.333 104.687 141.885 104.135 141.885C103.582 141.884 103.134 142.332 103.134 142.884L105.134 142.886ZM105.123 86.4712C104.767 74.3829 103.025 59.5694 98.6179 48.6417C96.4155 43.1815 93.5029 38.5773 89.6572 35.8087C85.7532 32.9981 80.9855 32.1515 75.3172 34.041L75.9496 35.9384C81.0519 34.2376 85.1421 35.0226 88.4887 37.4318C91.8936 39.8831 94.6242 44.087 96.7631 49.3898C101.038 59.9882 102.77 74.5204 103.124 86.53L105.123 86.4712ZM75.3172 34.041C71.2149 35.4084 67.67 38.6226 64.6301 43.1068C61.5865 47.5966 58.9955 53.4372 56.825 60.2031C52.4833 73.7372 49.7738 91.1351 48.5641 109.25C47.3539 127.374 47.6415 146.262 49.3161 162.796C50.9874 179.297 54.0506 193.563 58.4534 202.369L60.2423 201.474C56.0083 193.006 52.9717 179.041 51.3059 162.594C49.6433 146.179 49.3564 127.403 50.5597 109.384C51.7635 91.357 54.4557 74.1359 58.7294 60.8141C60.8665 54.1521 63.3865 48.5056 66.2856 44.229C69.1884 39.947 72.4178 37.1156 75.9496 35.9384L75.3172 34.041ZM58.4534 202.369C62.5785 210.619 67.592 215.511 72.9649 216.855C78.4126 218.219 83.8534 215.854 88.577 210.469C93.294 205.093 97.4173 196.595 100.368 185.284C103.323 173.957 105.119 159.748 105.134 142.886L103.134 142.884C103.119 159.612 101.337 173.648 98.4331 184.779C95.5256 195.924 91.5098 204.094 87.0736 209.15C82.6439 214.2 77.9174 216.033 73.4504 214.915C68.9086 213.779 64.26 209.51 60.2423 201.474L58.4534 202.369Z" fill="#2D2D2D"/>
</g>
<circle cx="125" cy="125" r="125" fill="#F6F8FE"/>
<mask id="mask2_2570_43707" style="mask-type:alpha" maskUnits="userSpaceOnUse" x="0" y="0" width="250" height="250">
<circle cx="125" cy="125" r="125" fill="#F6F8FE"/>
</mask>
<g mask="url(#mask2_2570_43707)">
</g>
<mask id="mask3_2570_43707" style="mask-type:alpha" maskUnits="userSpaceOnUse" x="0" y="0" width="250" height="250">
<circle cx="125" cy="125" r="125" fill="#F6F8FE"/>
</mask>
<g mask="url(#mask3_2570_43707)">
<path fill-rule="evenodd" clip-rule="evenodd" d="M-28.9951 156.854C-28.9951 156.025 -28.3235 155.354 -27.4951 155.354H276.495C277.323 155.354 277.995 156.025 277.995 156.854C277.995 157.682 277.323 158.354 276.495 158.354H-27.4951C-28.3235 158.354 -28.9951 157.682 -28.9951 156.854Z" fill="#C7D6F7"/>
<path fill-rule="evenodd" clip-rule="evenodd" d="M-28.9951 196.5C-28.9951 195.672 -28.3235 195 -27.4951 195H276.495C277.323 195 277.995 195.672 277.995 196.5C277.995 197.328 277.323 198 276.495 198H-27.4951C-28.3235 198 -28.9951 197.328 -28.9951 196.5Z" fill="#C7D6F7"/>
<path d="M172.099 106.01C172.099 97.4527 139.653 28.6385 123.43 -4.69901L172.099 -17C181.191 -5.23383 198.305 100.127 205.793 108.684C213.28 117.241 225.047 129.007 226.116 135.425C227.17 141.748 199.678 151.184 164.602 163.224L163.007 163.771C127.173 176.072 134.661 156.284 145.892 151.47C157.124 146.657 172.099 116.706 172.099 106.01Z" fill="#C7D6F7"/>
<path d="M84.9225 134.356C89.2011 122.376 83.1397 33.4526 79.5742 -9.51172H132.522C132.522 2.78928 113.803 124.73 113.803 134.356C113.803 143.983 121.825 164.307 120.221 173.934C118.616 183.56 84.9225 177.143 57.6464 179.282C30.3702 181.421 25.5568 169.12 33.0444 164.307C40.5319 159.493 79.5742 149.332 84.9225 134.356Z" fill="#C7D6F7"/>
<path d="M145.5 41.5L132 0L130.5 10L145.5 41.5Z" fill="#B3C6F1"/>
<path d="M81.7134 133.287C83.8527 132.004 85.8137 133.822 86.5268 134.892C97.7582 147.728 107.573 145.191 110.594 143.983C113.268 142.913 113.803 141.131 114.338 139.704C114.873 140.239 115.942 142.379 118.082 148.796C120.756 156.819 123.174 168.927 122 176C120.674 183.984 84.9223 180.886 71.0168 180.886C57.1114 180.886 51.7631 181.421 41.6014 180.886C31.4397 180.351 25.5567 173.398 27.696 166.446C29.8353 159.493 40.5318 157.889 57.1114 151.471C73.691 145.053 79.0393 134.892 81.7134 133.287Z" fill="#4475E3"/>
<path d="M204.162 104.187C203.092 102.582 200.953 107.93 194 109C188.697 109.816 178.235 107.787 172.38 106.698C172.38 106.698 171.565 106.01 171.565 106.544C171.565 107.078 166.752 124.194 157.66 137.03C148.567 149.865 125.57 158.957 137.336 166.445C149.102 173.933 171.565 162.166 190.284 155.748C209.003 149.331 227.187 141.308 227.722 135.425C228.257 129.542 205.232 105.791 204.162 104.187Z" fill="#4475E3"/>
<path d="M163 128.499C159.4 136.099 145.833 148.666 139.5 153.999C159.333 139.166 198 109.998 187.5 108.998C176.009 107.905 173.5 103.499 171 105.999C168.85 108.15 167.5 118.999 163 128.499Z" fill="#4475E3"/>
</g>
<path fill-rule="evenodd" clip-rule="evenodd" d="M157.217 134.306C157.723 133.323 158.929 132.937 159.911 133.442C160.749 133.874 162.156 134.519 163.588 135.024C165.124 135.565 166.314 135.804 166.892 135.744C167.991 135.629 168.975 136.426 169.09 137.525C169.205 138.623 168.407 139.607 167.309 139.722C165.745 139.886 163.787 139.335 162.259 138.796C160.626 138.221 159.051 137.499 158.081 136.999C157.099 136.494 156.712 135.288 157.217 134.306Z" fill="#2057D5"/>
<path fill-rule="evenodd" clip-rule="evenodd" d="M162.208 125.6C162.552 124.55 163.682 123.978 164.732 124.322C165.841 124.686 167.696 125.2 169.584 125.539C171.563 125.894 173.232 125.988 174.155 125.76C175.227 125.495 176.311 126.149 176.577 127.221C176.842 128.293 176.188 129.378 175.116 129.643C173.296 130.093 170.885 129.836 168.878 129.476C166.779 129.1 164.743 128.535 163.485 128.123C162.436 127.779 161.864 126.649 162.208 125.6Z" fill="#2057D5"/>
<path d="M75.999 181.002C77.4174 180.741 107.489 172.462 122.216 168.979C122.5 171.5 124.476 177.671 119.067 180.141C112.305 183.228 75.5726 181.081 75.999 181.002Z" fill="#2057D5"/>
<path fill-rule="evenodd" clip-rule="evenodd" d="M58.8085 148.991C59.7691 148.446 60.9898 148.783 61.5351 149.743C62.0005 150.563 62.8241 151.873 63.7465 153.079C64.7359 154.373 65.6008 155.225 66.1179 155.491C67.1002 155.996 67.487 157.202 66.9819 158.184C66.4768 159.166 65.271 159.553 64.2887 159.048C62.8901 158.329 61.5534 156.796 60.5691 155.509C59.5177 154.134 58.5955 152.667 58.0565 151.718C57.5112 150.757 57.8479 149.536 58.8085 148.991Z" fill="#2057D5"/>
<path fill-rule="evenodd" clip-rule="evenodd" d="M67.7507 144.438C68.6132 143.748 69.8718 143.888 70.5618 144.751C71.291 145.662 72.562 147.108 73.9566 148.425C75.4185 149.806 76.7633 150.798 77.6608 151.112C78.7033 151.477 79.2527 152.618 78.8878 153.661C78.5229 154.703 77.3819 155.253 76.3394 154.888C74.5702 154.269 72.6928 152.733 71.2102 151.333C69.6604 149.87 68.2648 148.282 67.4383 147.249C66.7483 146.387 66.8882 145.128 67.7507 144.438Z" fill="#2057D5"/>
<path d="M186.5 157C187.7 156.2 212.333 137.5 224.5 128.5C226.666 130.333 230 135.6 226 140C221 145.5 185 158 186.5 157Z" fill="#2057D5"/>
</g>
</svg>
