<svg width="312" height="268" viewBox="0 0 312 268" fill="none" xmlns="http://www.w3.org/2000/svg">
<g filter="url(#filter0_f_1237_106516)">
<circle cx="156" cy="134" r="105" fill="#4475E3"/>
<circle cx="156" cy="134" r="113.5" stroke="#4475E3" stroke-opacity="0.38" stroke-width="17"/>
</g>
<path d="M128.393 140V126.909H136.907V128.897H130.764V132.451H136.466V134.439H130.764V138.012H136.958V140H128.393ZM141.116 130.182L143.098 133.806L145.111 130.182H147.559L144.6 135.091L147.61 140H145.175L143.098 136.465L141.039 140H138.585L141.576 135.091L138.662 130.182H141.116ZM151.663 134.247V140H149.349V126.909H151.612V131.85H151.727C151.957 131.296 152.313 130.859 152.794 130.54C153.28 130.216 153.898 130.054 154.648 130.054C155.33 130.054 155.924 130.197 156.431 130.482C156.939 130.768 157.331 131.185 157.608 131.735C157.889 132.285 158.029 132.956 158.029 133.749V140H155.716V134.107C155.716 133.446 155.545 132.933 155.204 132.566C154.868 132.195 154.395 132.01 153.785 132.01C153.376 132.01 153.01 132.099 152.686 132.278C152.366 132.453 152.115 132.707 151.931 133.039C151.752 133.371 151.663 133.774 151.663 134.247ZM163.213 140.198C162.591 140.198 162.031 140.087 161.532 139.866C161.038 139.64 160.646 139.308 160.356 138.869C160.071 138.43 159.928 137.888 159.928 137.245C159.928 136.691 160.03 136.233 160.235 135.871C160.439 135.509 160.718 135.219 161.072 135.001C161.426 134.784 161.824 134.62 162.267 134.509C162.715 134.394 163.177 134.311 163.654 134.26C164.23 134.2 164.696 134.147 165.054 134.1C165.412 134.049 165.672 133.972 165.834 133.87C166 133.763 166.083 133.599 166.083 133.378V133.339C166.083 132.858 165.941 132.485 165.655 132.221C165.37 131.957 164.958 131.825 164.422 131.825C163.855 131.825 163.405 131.948 163.073 132.195C162.745 132.442 162.523 132.734 162.408 133.071L160.248 132.764C160.418 132.168 160.699 131.669 161.091 131.268C161.483 130.864 161.963 130.561 162.529 130.361C163.096 130.156 163.723 130.054 164.409 130.054C164.882 130.054 165.353 130.109 165.821 130.22C166.29 130.331 166.718 130.514 167.106 130.77C167.494 131.021 167.805 131.364 168.039 131.799C168.278 132.234 168.397 132.777 168.397 133.429V140H166.173V138.651H166.096C165.956 138.924 165.757 139.18 165.502 139.418C165.25 139.653 164.933 139.842 164.549 139.987C164.17 140.128 163.725 140.198 163.213 140.198ZM163.814 138.498C164.279 138.498 164.681 138.406 165.022 138.223C165.363 138.036 165.625 137.788 165.809 137.482C165.996 137.175 166.09 136.84 166.09 136.478V135.321C166.017 135.381 165.894 135.436 165.719 135.487C165.549 135.538 165.357 135.583 165.144 135.621C164.931 135.66 164.72 135.694 164.511 135.724C164.302 135.754 164.121 135.779 163.968 135.8C163.623 135.847 163.314 135.924 163.041 136.031C162.768 136.137 162.553 136.286 162.395 136.478C162.238 136.665 162.159 136.908 162.159 137.207C162.159 137.633 162.314 137.955 162.625 138.172C162.936 138.389 163.333 138.498 163.814 138.498ZM173.038 126.909V140H170.724V126.909H173.038ZM179.764 140.192C178.78 140.192 177.93 139.987 177.214 139.578C176.502 139.165 175.954 138.581 175.571 137.827C175.187 137.068 174.996 136.175 174.996 135.148C174.996 134.138 175.187 133.252 175.571 132.489C175.959 131.722 176.5 131.126 177.194 130.7C177.889 130.269 178.705 130.054 179.643 130.054C180.248 130.054 180.819 130.152 181.356 130.348C181.897 130.54 182.374 130.838 182.787 131.243C183.205 131.648 183.533 132.163 183.772 132.79C184.01 133.412 184.13 134.153 184.13 135.014V135.724H176.082V134.164H181.912C181.907 133.721 181.812 133.327 181.624 132.982C181.437 132.632 181.175 132.357 180.838 132.157C180.506 131.957 180.118 131.857 179.675 131.857C179.202 131.857 178.786 131.972 178.428 132.202C178.07 132.428 177.791 132.726 177.591 133.097C177.395 133.463 177.295 133.866 177.29 134.305V135.666C177.29 136.237 177.395 136.727 177.604 137.136C177.812 137.541 178.104 137.852 178.479 138.07C178.854 138.283 179.293 138.389 179.796 138.389C180.133 138.389 180.437 138.342 180.71 138.249C180.983 138.151 181.219 138.008 181.42 137.82C181.62 137.633 181.771 137.401 181.873 137.124L184.034 137.366C183.898 137.937 183.638 138.436 183.254 138.862C182.875 139.284 182.389 139.612 181.797 139.847C181.204 140.077 180.527 140.192 179.764 140.192Z" fill="white"/>
<defs>
<filter id="filter0_f_1237_106516" x="22" y="0" width="268" height="268" filterUnits="userSpaceOnUse" color-interpolation-filters="sRGB">
<feFlood flood-opacity="0" result="BackgroundImageFix"/>
<feBlend mode="normal" in="SourceGraphic" in2="BackgroundImageFix" result="shape"/>
<feGaussianBlur stdDeviation="6" result="effect1_foregroundBlur_1237_106516"/>
</filter>
</defs>
</svg>
