<svg width="250" height="250" viewBox="0 0 250 250" fill="none" xmlns="http://www.w3.org/2000/svg">
<circle cx="125" cy="125" r="125" fill="#F6F8FE"/>
<mask id="mask0_2570_49311" style="mask-type:alpha" maskUnits="userSpaceOnUse" x="0" y="0" width="250" height="250">
<circle cx="125" cy="125" r="125" fill="#F6F8FE"/>
</mask>
<g mask="url(#mask0_2570_49311)">
<mask id="mask1_2570_49311" style="mask-type:alpha" maskUnits="userSpaceOnUse" x="0" y="0" width="250" height="250">
<circle cx="125" cy="125" r="125" fill="#F6F8FE"/>
</mask>
<g mask="url(#mask1_2570_49311)">
<path d="M83.3996 222.504C85.3559 218.004 87.733 211.504 89.8997 208.004C114.233 208.004 163.101 208.304 163.901 209.504C164.701 210.704 165.801 219.004 167.901 222.504C170.358 223.504 176.801 218.904 218.402 214.504C260.003 210.104 262.736 226.004 258.903 234.505C220.859 282.006 143.067 284.839 102.4 281.506C36.3983 276.006 -2.64643 251.005 -10.1024 234.505C-17.2496 218.688 7.89799 214.504 37.8986 213.504C67.8993 212.504 81.8048 226.173 83.3996 222.504Z" fill="#5C82DA"/>
<path d="M90.4704 33.8614C102.871 8.66089 125.971 12.6943 135.971 17.8611C136.805 17.1944 140.672 16.261 147.472 17.8611C155.972 19.8611 161.972 30.8614 168.472 42.8616C175.809 56.4056 196.973 116.863 165.972 138.864C134.972 160.864 74.47 136.864 53.4696 122.863C32.4691 108.863 51.9696 84.3625 54.9696 80.8624C57.9697 77.3623 74.97 65.3621 90.4704 33.8614Z" fill="#4475E3"/>
<path d="M108.839 103.863C117.239 100.663 118.339 91.8626 117.839 87.8625C123.839 83.1957 135.639 76.6623 134.839 87.8625C133.839 101.863 138.839 102.363 143.339 103.863C147.839 105.363 159.34 106.363 171.84 113.363C184.34 120.363 188.84 140.864 190.84 145.864C192.84 150.864 202.841 186.865 207.841 189.365C212.841 191.865 250.342 216.365 254.342 215.365C258.342 214.365 270.342 214.365 273.842 215.365C277.342 216.365 280.36 227.365 275.36 231.366C270.36 235.366 257.342 233.866 251.842 231.866C246.341 229.866 245.841 223.865 241.341 223.365C236.841 222.865 204.341 209.865 192.84 204.865C183.64 200.865 171.007 168.531 165.84 152.864L159.34 211.365H90.3381L87.3381 152.864L77.3379 177.864C76.0045 181.031 72.3378 189.565 68.3377 198.365C63.3376 209.365 18.3366 220.865 14.3365 221.865C10.3364 222.865 7.33638 226.865 -1.1638 231.366C-9.66398 235.866 -18.1637 233.366 -23.1638 231.366C-28.1639 229.366 -22.6638 216.365 -18.1637 214.365C-13.6636 212.365 2.33675 215.865 5.83683 214.365C9.3369 212.865 47.8377 187.365 49.8378 182.865C51.8378 178.364 68.8382 126.863 77.3383 116.863C85.8385 106.863 98.3388 107.863 108.839 103.863Z" fill="#B3C6F1"/>
<path d="M135.207 32.1143C124.976 50.7155 106.34 56.916 97.233 57.691C96.2642 56.916 92.2288 55.1333 90.8337 58.8536C89.4386 62.5739 95.6792 68.5418 99.167 70.4794C100.523 79.005 107.654 96.1724 125.325 96.6375C142.996 97.1025 150.127 79.3925 151.483 70.4794C157.101 65.2478 158.459 61.7601 158.459 57.691C158.459 54.4358 154.971 54.7846 153.227 55.3659C153.614 52.0719 153.227 47.2278 148.577 43.7401C144.693 40.827 137.726 35.4082 135.207 32.1143Z" fill="#B3C6F1"/>
<path d="M145.857 104.863C129.457 115.663 111.69 109.363 104.856 104.863C77.2557 104.863 61.3553 131.197 56.8552 144.364L82.3558 169.364V210.865C100.756 217.265 147.69 213.532 168.858 210.865V169.364L193.858 144.364C181.458 109.563 156.691 103.53 145.857 104.863Z" fill="#2F65E0"/>
<path fill-rule="evenodd" clip-rule="evenodd" d="M162.671 84.0846C163.895 82.2321 166.476 81.8872 168.044 83.639C169.412 85.1668 169.228 87.6141 168.126 89.1407C167.026 90.6657 165.244 91.4043 163.51 91.5546C159.31 91.9186 155.782 89.8398 152.768 87.5005C152.521 87.3088 152.476 86.9532 152.668 86.7063C152.86 86.4593 153.215 86.4145 153.462 86.6061C156.426 88.9068 159.659 90.7519 163.413 90.4266C164.92 90.296 166.353 89.6631 167.208 88.4782C168.074 87.279 168.135 85.4372 167.201 84.394C166.167 83.2393 164.464 83.425 163.615 84.709C163.287 85.2051 163.16 85.6659 163.243 86.1805C163.286 86.4468 163.521 86.7365 163.801 86.947C164.051 87.1346 164.102 87.4894 163.914 87.7395C163.727 87.9897 163.372 88.0403 163.122 87.8528C162.755 87.5775 162.238 87.0584 162.125 86.3602C161.988 85.5036 162.224 84.7597 162.671 84.0846Z" fill="#E3EAFB"/>
<path fill-rule="evenodd" clip-rule="evenodd" d="M156.962 96.1775C158.557 95.8904 160.177 97.0877 160.261 98.804C160.337 100.368 159.027 101.54 157.656 101.727C156.308 101.911 154.966 101.335 153.941 100.521C151.446 98.5404 150.427 95.7158 149.811 93.0386C149.741 92.7339 149.931 92.4301 150.236 92.36C150.54 92.2899 150.844 92.4801 150.914 92.7847C151.513 95.3889 152.458 97.8981 154.645 99.6342C155.527 100.335 156.566 100.733 157.503 100.605C158.431 100.479 159.171 99.7062 159.13 98.8589C159.081 97.8491 158.109 97.1214 157.163 97.2917C156.797 97.3575 156.59 97.4906 156.451 97.7083C156.436 97.7328 156.414 97.7894 156.41 97.8931C156.406 97.9942 156.421 98.1072 156.446 98.2099C156.521 98.5134 156.336 98.8202 156.032 98.8951C155.729 98.97 155.422 98.7846 155.347 98.4811C155.268 98.1615 155.194 97.5771 155.496 97.1015C155.849 96.5456 156.379 96.2825 156.962 96.1775Z" fill="#E3EAFB"/>
</g>
</g>
</svg>
