<svg width="250" height="250" viewBox="0 0 250 250" fill="none" xmlns="http://www.w3.org/2000/svg">
<circle cx="125" cy="125" r="113" stroke="#4475E3" stroke-opacity="0.1" stroke-width="24"/>
<path d="M125 12C154.696 12 183.198 23.6894 204.342 44.54C225.487 65.3907 237.574 93.7265 237.989 123.419C238.404 153.112 227.115 181.775 206.562 203.209C186.009 224.643 157.845 237.125 128.161 237.956C98.477 238.786 69.659 227.899 47.9396 207.648C26.2202 187.397 13.3453 159.41 12.0995 129.741C10.8536 100.071 21.3369 71.1038 41.2821 49.1032C61.2273 27.1027 89.0312 13.8376 118.68 12.1769" stroke="#4475E3" stroke-width="24" stroke-linecap="round" stroke-linejoin="round"/>
<path d="M80.0959 140.554C77.7569 140.554 75.7493 139.962 74.0732 138.778C72.4065 137.585 71.1233 135.866 70.2237 133.622C69.3336 131.368 68.8885 128.655 68.8885 125.483C68.898 122.311 69.3478 119.612 70.2379 117.386C71.1375 115.152 72.4207 113.447 74.0874 112.273C75.7635 111.098 77.7663 110.511 80.0959 110.511C82.4254 110.511 84.4283 111.098 86.1044 112.273C87.7805 113.447 89.0637 115.152 89.9538 117.386C90.8535 119.621 91.3033 122.32 91.3033 125.483C91.3033 128.665 90.8535 131.383 89.9538 133.636C89.0637 135.881 87.7805 137.595 86.1044 138.778C84.4377 139.962 82.4349 140.554 80.0959 140.554ZM80.0959 136.108C81.9141 136.108 83.3487 135.213 84.3999 133.423C85.4605 131.624 85.9908 128.977 85.9908 125.483C85.9908 123.172 85.7493 121.231 85.2663 119.659C84.7834 118.087 84.1016 116.903 83.2209 116.108C82.3402 115.303 81.2985 114.901 80.0959 114.901C78.2872 114.901 76.8572 115.8 75.8061 117.599C74.755 119.389 74.2247 122.017 74.2152 125.483C74.2057 127.803 74.4377 129.754 74.9112 131.335C75.3942 132.917 76.076 134.11 76.9567 134.915C77.8374 135.71 78.8838 136.108 80.0959 136.108ZM106.776 140.554C104.437 140.554 102.429 139.962 100.753 138.778C99.0862 137.585 97.803 135.866 96.9034 133.622C96.0133 131.368 95.5682 128.655 95.5682 125.483C95.5777 122.311 96.0275 119.612 96.9176 117.386C97.8172 115.152 99.1004 113.447 100.767 112.273C102.443 111.098 104.446 110.511 106.776 110.511C109.105 110.511 111.108 111.098 112.784 112.273C114.46 113.447 115.743 115.152 116.634 117.386C117.533 119.621 117.983 122.32 117.983 125.483C117.983 128.665 117.533 131.383 116.634 133.636C115.743 135.881 114.46 137.595 112.784 138.778C111.117 139.962 109.115 140.554 106.776 140.554ZM106.776 136.108C108.594 136.108 110.028 135.213 111.08 133.423C112.14 131.624 112.67 128.977 112.67 125.483C112.67 123.172 112.429 121.231 111.946 119.659C111.463 118.087 110.781 116.903 109.901 116.108C109.02 115.303 107.978 114.901 106.776 114.901C104.967 114.901 103.537 115.8 102.486 117.599C101.435 119.389 100.904 122.017 100.895 125.483C100.885 127.803 101.117 129.754 101.591 131.335C102.074 132.917 102.756 134.11 103.636 134.915C104.517 135.71 105.563 136.108 106.776 136.108ZM125.927 136.506C125.065 136.506 124.326 136.203 123.711 135.597C123.095 134.981 122.792 134.242 122.802 133.381C122.792 132.528 123.095 131.799 123.711 131.193C124.326 130.587 125.065 130.284 125.927 130.284C126.76 130.284 127.485 130.587 128.1 131.193C128.725 131.799 129.042 132.528 129.052 133.381C129.042 133.958 128.891 134.484 128.597 134.957C128.313 135.431 127.934 135.81 127.461 136.094C126.997 136.368 126.486 136.506 125.927 136.506ZM125.927 122.088C125.065 122.088 124.326 121.785 123.711 121.179C123.095 120.563 122.792 119.825 122.802 118.963C122.792 118.111 123.095 117.382 123.711 116.776C124.326 116.16 125.065 115.852 125.927 115.852C126.76 115.852 127.485 116.16 128.1 116.776C128.725 117.382 129.042 118.111 129.052 118.963C129.042 119.531 128.891 120.052 128.597 120.526C128.313 120.999 127.934 121.378 127.461 121.662C126.997 121.946 126.486 122.088 125.927 122.088ZM134.304 140V136.193L144.403 126.293C145.369 125.317 146.174 124.451 146.818 123.693C147.462 122.936 147.945 122.202 148.267 121.491C148.589 120.781 148.75 120.024 148.75 119.219C148.75 118.3 148.542 117.514 148.125 116.861C147.708 116.198 147.135 115.687 146.406 115.327C145.677 114.967 144.848 114.787 143.92 114.787C142.964 114.787 142.126 114.986 141.406 115.384C140.687 115.772 140.128 116.326 139.73 117.045C139.342 117.765 139.148 118.622 139.148 119.616H134.134C134.134 117.77 134.555 116.165 135.398 114.801C136.241 113.437 137.401 112.382 138.878 111.634C140.365 110.885 142.069 110.511 143.991 110.511C145.942 110.511 147.656 110.876 149.134 111.605C150.611 112.334 151.757 113.333 152.571 114.602C153.395 115.871 153.807 117.32 153.807 118.949C153.807 120.038 153.598 121.108 153.182 122.159C152.765 123.21 152.031 124.375 150.98 125.653C149.938 126.932 148.475 128.48 146.591 130.298L141.577 135.398V135.597H154.247V140H134.304ZM169.901 140.554C167.562 140.554 165.554 139.962 163.878 138.778C162.211 137.585 160.928 135.866 160.028 133.622C159.138 131.368 158.693 128.655 158.693 125.483C158.703 122.311 159.152 119.612 160.043 117.386C160.942 115.152 162.225 113.447 163.892 112.273C165.568 111.098 167.571 110.511 169.901 110.511C172.23 110.511 174.233 111.098 175.909 112.273C177.585 113.447 178.868 115.152 179.759 117.386C180.658 119.621 181.108 122.32 181.108 125.483C181.108 128.665 180.658 131.383 179.759 133.636C178.868 135.881 177.585 137.595 175.909 138.778C174.242 139.962 172.24 140.554 169.901 140.554ZM169.901 136.108C171.719 136.108 173.153 135.213 174.205 133.423C175.265 131.624 175.795 128.977 175.795 125.483C175.795 123.172 175.554 121.231 175.071 119.659C174.588 118.087 173.906 116.903 173.026 116.108C172.145 115.303 171.103 114.901 169.901 114.901C168.092 114.901 166.662 115.8 165.611 117.599C164.56 119.389 164.029 122.017 164.02 125.483C164.01 127.803 164.242 129.754 164.716 131.335C165.199 132.917 165.881 134.11 166.761 134.915C167.642 135.71 168.688 136.108 169.901 136.108Z" fill="#4475E3"/>
</svg>
