<svg width="250" height="250" viewBox="0 0 250 250" fill="none" xmlns="http://www.w3.org/2000/svg">
<path d="M170.607 69.3164C171.134 67.172 173.299 65.8603 175.443 66.3868L217.859 76.7993C220.003 77.3257 221.315 79.4909 220.788 81.6352L198.778 171.295C198.252 173.439 196.087 174.751 193.942 174.224L151.527 163.812C149.382 163.285 148.071 161.12 148.597 158.976L170.607 69.3164Z" fill="#4475E3"/>
<path d="M172.828 71.1979C173.179 69.7683 174.623 68.8939 176.052 69.2448L215.965 79.0429C217.394 79.3939 218.269 80.8373 217.918 82.2669L196.56 169.267C196.209 170.697 194.766 171.571 193.336 171.22L153.424 161.422C151.994 161.071 151.12 159.628 151.471 158.198L172.828 71.1979Z" fill="white"/>
<circle cx="195.152" cy="78.2309" r="1.26027" transform="rotate(13.7927 195.152 78.2309)" fill="#4475E3"/>
<path d="M217.337 91.4652C217.403 91.1948 217.676 91.0294 217.947 91.0958L218.926 91.3361C219.196 91.4025 219.362 91.6755 219.295 91.9459L218.033 97.0864C217.967 97.3568 217.694 97.5222 217.423 97.4558L216.444 97.2154C216.174 97.149 216.009 96.876 216.075 96.6057L217.337 91.4652Z" fill="#4475E3"/>
<path d="M215.595 98.5633C215.661 98.2929 215.934 98.1275 216.204 98.1939L217.184 98.4343C217.454 98.5007 217.619 98.7737 217.553 99.044L215.45 107.612C215.383 107.882 215.11 108.047 214.84 107.981L213.861 107.741C213.59 107.674 213.425 107.401 213.491 107.131L215.595 98.5633Z" fill="#4475E3"/>
<mask id="mask0_2570_52683" style="mask-type:alpha" maskUnits="userSpaceOnUse" x="0" y="0" width="250" height="250">
<circle cx="125" cy="125" r="125" fill="#F6F8FE"/>
</mask>
<g mask="url(#mask0_2570_52683)">
<mask id="mask1_2570_52683" style="mask-type:alpha" maskUnits="userSpaceOnUse" x="0" y="0" width="250" height="250">
<circle cx="125" cy="125" r="125" fill="#F6F8FE"/>
</mask>
<g mask="url(#mask1_2570_52683)">
<path d="M-199.746 92.6003C-180.52 88.7552 -178.918 67.5003 -180.52 57.3535H-138.865C-140.467 64.2961 -138.224 78.1811 -116.435 78.1811C-89.1992 78.1811 -33.1248 94.2024 -4.28656 94.2024C24.5517 94.2024 136.701 105.417 154.324 108.622C171.947 111.826 174.954 101.979 216.253 114.44C220.162 115.619 221.665 120.047 220.731 124.079C220.646 124.624 220.452 125.194 220.176 125.787C219.872 126.5 219.484 127.181 219.012 127.808C217.004 130.839 213.794 134.332 212.142 138.049C210.86 140.934 208.948 142.644 194.529 142.644C181.612 142.644 178.356 139.062 147.915 134.256C117.475 129.449 -25.1142 139.062 -53.9524 148.675C-82.7907 158.287 -79.5864 196.738 -85.9949 206.351C-92.4034 215.964 -85.9949 278.447 -85.9949 292.866C-85.9949 304.401 -76.3822 357.485 -71.5758 382.585H-233.39C-233.39 371.37 -228.584 316.898 -226.982 292.866C-225.38 268.834 -231.788 190.33 -233.39 206.351C-234.993 222.372 -262.229 339.328 -262.229 358.553C-262.229 377.779 -251.014 397.004 -246.207 417.832C-241.401 438.659 -262.229 440.262 -279.852 432.251C-297.476 424.24 -287.863 405.015 -287.863 358.553C-287.863 312.091 -267.035 153.481 -262.229 126.245C-257.422 99.0088 -223.778 97.4067 -199.746 92.6003Z" fill="#B3C6F1"/>
<path d="M-148.477 108.622C-177.957 112.467 -193.871 98.4749 -198.143 90.9983C-239.799 90.9983 -257.422 108.622 -262.228 116.632C-266.073 123.041 -271.307 168.434 -273.443 190.33C-277.715 222.373 -286.26 287.739 -286.26 292.866C-286.26 299.275 -294.271 360.155 -289.464 364.962C-284.658 369.768 -260.626 364.962 -260.626 361.757V350.543C-260.626 345.736 -238.196 246.404 -238.196 239.996C-238.196 233.587 -233.39 209.556 -231.788 212.76C-230.185 215.964 -228.583 264.028 -228.583 275.243C-228.583 286.458 -231.788 342.532 -233.39 358.553C-234.672 371.37 -233.924 379.915 -233.39 382.585H-69.9733C-74.7797 353.213 -84.7129 292.225 -85.9946 283.253C-87.5967 272.038 -84.389 229.969 -81.9315 212.334C-81.1343 206.613 -79.5861 187.126 -71.5755 164.696C-65.167 146.752 -10.1606 140.13 16.5414 139.062C34.1648 137.994 75.6191 135.858 88.5 135.858H146.281C151.088 135.858 152.69 107.103 146.281 105.5C139.873 103.898 58.1967 97.4068 51.7882 95.8047C45.3797 94.2026 -24.2046 90.0306 -32.1533 89.037C-44.4064 87.5054 -94.0052 80.3175 -121.241 74.9771C-118.037 84.5898 -118.998 104.777 -148.477 108.622Z" fill="#4475E3"/>
<path fill-rule="evenodd" clip-rule="evenodd" d="M103.09 85.5015L98.3487 85.507L104.134 95.5003L109.896 85.4936L105.092 85.4992C104.673 73.5962 102.908 59.2781 98.6179 48.6415C96.4155 43.1813 93.5029 38.5771 89.6572 35.8085C85.7532 32.9979 80.9855 32.1514 75.3172 34.0408C71.2149 35.4082 67.67 38.6224 64.6301 43.1066C61.5865 47.5964 58.9955 53.437 56.825 60.203C52.4833 73.737 49.7738 91.1349 48.5641 109.25C47.3539 127.373 47.6415 146.262 49.3161 162.795C50.9874 179.297 54.0506 193.563 58.4534 202.368C62.5785 210.619 67.592 215.511 72.9649 216.855C78.4126 218.219 83.8534 215.853 88.577 210.469C93.294 205.093 97.4173 196.595 100.368 185.283C103.323 173.957 105.119 159.747 105.134 142.885C105.134 142.333 104.687 141.885 104.135 141.885C103.582 141.884 103.134 142.331 103.134 142.884C103.119 159.612 101.337 173.648 98.4331 184.778C95.5256 195.924 91.5098 204.094 87.0736 209.15C82.6439 214.199 77.9174 216.033 73.4504 214.915C68.9086 213.779 64.26 209.51 60.2423 201.474C56.0083 193.006 52.9717 179.04 51.3059 162.594C49.6433 146.179 49.3564 127.403 50.5597 109.384C51.7635 91.3569 54.4557 74.1357 58.7294 60.8139C60.8665 54.152 63.3865 48.5054 66.2856 44.2289C69.1884 39.9468 72.4178 37.1155 75.9496 35.9382C81.0519 34.2374 85.1421 35.0224 88.4887 37.4316C91.8936 39.8829 94.6242 44.0868 96.7631 49.3897C100.917 59.6873 102.67 73.6987 103.09 85.5015Z" fill="#2057D5"/>
</g>
</g>
</svg>
