<svg width="250" height="250" viewBox="0 0 250 250" fill="none" xmlns="http://www.w3.org/2000/svg">
<circle cx="125" cy="125" r="125" transform="matrix(-1 0 0 1 250 0)" fill="#F6F8FE"/>
<path d="M79.3926 69.3164C78.8662 67.172 76.7011 65.8603 74.5567 66.3868L32.1411 76.7993C29.9967 77.3257 28.6851 79.4909 29.2115 81.6352L51.2219 171.295C51.7483 173.439 53.9134 174.751 56.0578 174.224L98.4734 163.812C100.618 163.285 101.929 161.12 101.403 158.976L79.3926 69.3164Z" fill="#4475E3"/>
<path d="M77.1716 71.1979C76.8206 69.7683 75.3772 68.8939 73.9476 69.2448L34.0351 79.0429C32.6055 79.3939 31.7311 80.8373 32.082 82.2669L53.4397 169.267C53.7906 170.697 55.234 171.571 56.6636 171.22L96.5761 161.422C98.0057 161.071 98.8801 159.628 98.5292 158.198L77.1716 71.1979Z" fill="white"/>
<circle cx="1.26027" cy="1.26027" r="1.26027" transform="matrix(-0.971165 0.23841 0.23841 0.971165 55.7715 76.7065)" fill="#4475E3"/>
<path d="M32.6632 91.4652C32.5968 91.1948 32.3238 91.0294 32.0534 91.0958L31.0743 91.3361C30.8039 91.4025 30.6385 91.6755 30.7049 91.9459L31.9668 97.0864C32.0332 97.3568 32.3062 97.5222 32.5766 97.4558L33.5557 97.2154C33.8261 97.149 33.9915 96.876 33.9251 96.6057L32.6632 91.4652Z" fill="#4475E3"/>
<path d="M34.4053 98.5633C34.339 98.2929 34.066 98.1275 33.7956 98.1939L32.8164 98.4343C32.5461 98.5007 32.3807 98.7737 32.4471 99.044L34.5503 107.612C34.6167 107.882 34.8897 108.047 35.16 107.981L36.1392 107.741C36.4096 107.674 36.5749 107.401 36.5086 107.131L34.4053 98.5633Z" fill="#4475E3"/>
<mask id="mask0_2570_52453" style="mask-type:alpha" maskUnits="userSpaceOnUse" x="0" y="0" width="250" height="250">
<circle cx="125" cy="125" r="125" transform="matrix(-1 0 0 1 250 0)" fill="#F6F8FE"/>
</mask>
<g mask="url(#mask0_2570_52453)">
<mask id="mask1_2570_52453" style="mask-type:alpha" maskUnits="userSpaceOnUse" x="0" y="0" width="250" height="250">
<circle cx="125" cy="125" r="125" transform="matrix(-1 0 0 1 250 0)" fill="#F6F8FE"/>
</mask>
<g mask="url(#mask1_2570_52453)">
<path d="M449.746 92.6003C430.52 88.7552 428.918 67.5003 430.52 57.3535H388.865C390.467 64.2961 388.224 78.1811 366.435 78.1811C339.199 78.1811 283.125 94.2024 254.287 94.2024C225.448 94.2024 113.299 105.417 95.6761 108.622C78.0527 111.826 75.0462 101.979 33.7465 114.44C29.8383 115.619 28.3353 120.047 29.269 124.079C29.3545 124.624 29.5483 125.194 29.8244 125.787C30.1281 126.5 30.5159 127.181 30.988 127.808C32.9956 130.839 36.2059 134.332 37.8576 138.049C39.14 140.934 41.0523 142.644 55.4714 142.644C68.3882 142.644 71.6442 139.062 102.085 134.256C132.525 129.449 275.114 139.062 303.952 148.675C332.791 158.287 329.586 196.738 335.995 206.351C342.403 215.964 335.995 278.447 335.995 292.866C335.995 304.401 326.382 357.485 321.576 382.585H483.39C483.39 371.37 478.584 316.898 476.982 292.866C475.38 268.834 481.788 190.33 483.39 206.351C484.993 222.372 512.229 339.328 512.229 358.553C512.229 377.779 501.014 397.004 496.207 417.832C491.401 438.659 512.229 440.262 529.852 432.251C547.476 424.24 537.863 405.015 537.863 358.553C537.863 312.091 517.035 153.481 512.229 126.245C507.422 99.0088 473.778 97.4067 449.746 92.6003Z" fill="#B3C6F1"/>
<path d="M398.477 108.622C427.957 112.467 443.871 98.4749 448.143 90.9983C489.799 90.9983 507.422 108.622 512.228 116.632C516.073 123.041 521.307 168.434 523.443 190.33C527.715 222.373 536.26 287.739 536.26 292.866C536.26 299.275 544.271 360.155 539.464 364.962C534.658 369.768 510.626 364.962 510.626 361.757V350.543C510.626 345.736 488.196 246.404 488.196 239.996C488.196 233.587 483.39 209.556 481.788 212.76C480.185 215.964 478.583 264.028 478.583 275.243C478.583 286.458 481.788 342.532 483.39 358.553C484.672 371.37 483.924 379.915 483.39 382.585H319.973C324.78 353.213 334.713 292.225 335.995 283.253C337.597 272.038 334.389 229.969 331.932 212.334C331.134 206.613 329.586 187.126 321.576 164.696C315.167 146.752 260.161 140.13 233.459 139.062C215.835 137.994 174.381 135.858 161.5 135.858H103.719C98.9124 135.858 97.3102 107.103 103.719 105.5C110.127 103.898 191.803 97.4068 198.212 95.8047C204.62 94.2026 274.205 90.0306 282.153 89.037C294.406 87.5054 344.005 80.3175 371.241 74.9771C368.037 84.5898 368.998 104.777 398.477 108.622Z" fill="#4475E3"/>
<path fill-rule="evenodd" clip-rule="evenodd" d="M146.91 85.5015L151.651 85.507L145.866 95.5003L140.104 85.4936L144.908 85.4992C145.327 73.5962 147.092 59.2781 151.382 48.6415C153.584 43.1813 156.497 38.5771 160.343 35.8085C164.247 32.9979 169.014 32.1514 174.683 34.0408C178.785 35.4082 182.33 38.6224 185.37 43.1066C188.413 47.5964 191.005 53.437 193.175 60.203C197.517 73.737 200.226 91.1349 201.436 109.25C202.646 127.373 202.359 146.262 200.684 162.795C199.013 179.297 195.949 193.563 191.547 202.368C187.422 210.619 182.408 215.511 177.035 216.855C171.587 218.219 166.147 215.853 161.423 210.469C156.706 205.093 152.583 196.595 149.632 185.283C146.677 173.957 144.881 159.747 144.866 142.885C144.866 142.333 145.313 141.885 145.865 141.885C146.418 141.884 146.866 142.331 146.866 142.884C146.881 159.612 148.663 173.648 151.567 184.778C154.474 195.924 158.49 204.094 162.926 209.15C167.356 214.199 172.083 216.033 176.55 214.915C181.091 213.779 185.74 209.51 189.758 201.474C193.992 193.006 197.028 179.04 198.694 162.594C200.357 146.179 200.644 127.403 199.44 109.384C198.237 91.3569 195.544 74.1357 191.271 60.8139C189.133 54.152 186.613 48.5054 183.714 44.2289C180.812 39.9468 177.582 37.1155 174.05 35.9382C168.948 34.2374 164.858 35.0224 161.511 37.4316C158.106 39.8829 155.376 44.0868 153.237 49.3897C149.083 59.6873 147.33 73.6987 146.91 85.5015Z" fill="#2057D5"/>
</g>
</g>
</svg>
