<svg width="250" height="250" viewBox="0 0 250 250" fill="none" xmlns="http://www.w3.org/2000/svg">
<circle cx="125" cy="125" r="125" fill="#F6F8FE"/>
<mask id="mask0_2623_18463" style="mask-type:alpha" maskUnits="userSpaceOnUse" x="0" y="0" width="250" height="250">
<circle cx="125" cy="125" r="125" fill="#F6F8FE"/>
</mask>
<g mask="url(#mask0_2623_18463)">
<mask id="mask1_2623_18463" style="mask-type:alpha" maskUnits="userSpaceOnUse" x="0" y="0" width="250" height="250">
<circle cx="125" cy="125" r="125" fill="#F6F8FE"/>
</mask>
<g mask="url(#mask1_2623_18463)">
<circle cx="82" cy="102" r="24" fill="#E3EAFB"/>
<circle cx="73.3028" cy="115.529" r="28.5" transform="rotate(-6.31292 73.3028 115.529)" fill="#4475E3"/>
<path d="M161.266 83.0199C161.415 81.9254 162.422 81.1585 163.517 81.307L199.07 86.1321C200.165 86.2806 200.932 87.2883 200.783 88.3829L195.958 123.936C195.809 125.031 194.802 125.797 193.707 125.649L158.154 120.824C157.06 120.675 156.293 119.668 156.441 118.573L161.266 83.0199Z" fill="#E3EAFB"/>
<path d="M146.493 61.9818C146.641 60.8873 147.649 60.1204 148.744 60.269L193.335 66.3206C194.429 66.4691 195.196 67.4768 195.048 68.5714L188.996 113.163C188.847 114.257 187.84 115.024 186.745 114.875L142.154 108.824C141.059 108.675 140.293 107.668 140.441 106.573L146.493 61.9818Z" fill="#4475E3"/>
<path d="M139.507 140.179C140.125 138.769 142.038 138.558 142.95 139.798L170.781 177.668C171.693 178.909 170.92 180.671 169.389 180.84L122.678 186.008C121.147 186.177 120.008 184.627 120.626 183.217L139.507 140.179Z" fill="#E3EAFB"/>
<path d="M129.661 139.921C130.28 138.511 132.192 138.3 133.104 139.54L166.44 184.9C167.352 186.14 166.578 187.903 165.048 188.072L109.098 194.262C107.568 194.431 106.428 192.88 107.046 191.47L129.661 139.921Z" fill="#4475E3"/>
</g>
</g>
</svg>
