<svg width="250" height="250" viewBox="0 0 250 250" fill="none" xmlns="http://www.w3.org/2000/svg">
<circle cx="125" cy="125" r="125" fill="#F6F8FE"/>
<mask id="mask0_2623_49427" style="mask-type:alpha" maskUnits="userSpaceOnUse" x="0" y="0" width="250" height="250">
<circle cx="125" cy="125" r="125" fill="#F6F8FE"/>
</mask>
<g mask="url(#mask0_2623_49427)">
<path d="M47.6986 100.471L66.7764 193.214C66.2592 190.67 70.1901 185.047 90.0513 182.91C114.878 180.238 142.324 190.161 143.469 193.214C144.385 195.657 143.851 248.428 143.469 274.508H138.127L134.312 211.152H69.4473C67.9211 211.152 66.7015 213.124 65.6317 219.167C59.1453 255.807 57.4919 258.606 52.6589 274.508H46.554C46.554 274.508 48.9959 270.386 52.6589 253.899C57.2375 233.289 57.2375 204.283 56.4744 194.741C55.8639 187.108 44.0103 129.986 38.1598 102.379L47.6986 100.471Z" fill="#7F9EE2"/>
<path d="M153.024 270.401C153.221 266.498 161.494 215.869 165.903 191.04C171.82 189.416 182.61 187.417 182.61 191.315C182.61 196.188 168.688 251.535 166.947 261.627C165.971 267.286 173.212 266.847 183.655 272.417C194.097 277.986 180.075 280.597 173.212 277.986C165.903 275.204 152.676 277.293 153.024 270.401Z" fill="#A8BAE6"/>
<path d="M152.994 254.32L164.163 193.059C168.34 189.23 175.302 189.926 178.434 196.888C180.94 202.457 178.55 217.076 177.042 223.69C174.721 235.64 169.354 256.756 168.309 257.104C166.46 257.72 156.823 256.756 152.994 254.32Z" fill="#184DC6"/>
<path d="M128.041 74.4082C134.326 77.4522 148.244 97.7821 154.418 107.566C152.734 122.244 139.265 109.741 133.092 102.674C126.918 95.6078 120.183 70.6031 128.041 74.4082Z" fill="#2057D5"/>
<path d="M133.43 88.9874C130.646 81.1905 132.27 69.8647 133.43 66.5C130.646 61.1628 125.736 51.0449 121.002 59.3987C115.085 69.8409 96.8825 88.9874 94.0979 94.9047C91.3133 100.822 87.1364 151.293 84.6998 169.045C82.2633 186.797 93.0537 190.625 100.015 193.41C105.584 195.638 150.834 194.338 172.763 193.41C172.531 198.051 172.206 208.586 172.763 213.598C173.459 219.864 177.288 258.848 176.244 271.379C175.207 283.823 185.451 282.275 206.437 279.102L206.874 279.036C211.502 278.337 214.286 271.379 202.349 271.379C187.833 271.379 188.645 267.199 189.573 254.668C190.372 243.874 191.907 185.056 191.559 179.835C191.28 175.658 147.121 166.028 125.076 161.735C124.844 158.951 124.52 151.014 125.076 141.547C125.773 129.712 136.911 98.7335 133.43 88.9874Z" fill="#AFC2EE"/>
<path d="M87.2385 187.141C81.7654 180.148 83.5257 166.141 85.8462 159.295C93.968 160.224 113.728 159.197 127.615 160.688C144.5 162.5 187.401 176.861 189.588 178.091C204.535 186.5 189.588 252.58 187.5 255.016C186.141 256.602 175.65 256.408 174.954 253.972C173.727 249.68 172.155 216.96 170.762 198.976C159.972 199.788 134.075 201.413 119.595 201.413C101.496 201.413 93.5041 195.147 87.2385 187.141Z" fill="#2057D5"/>
<path d="M131.793 77.1495C129.565 77.1495 120.771 69.9559 115.781 65.3149C104.295 73.6687 95.2397 88.8685 92.2738 94.9013C81.3218 117.178 82.8758 156.859 85.3123 161.036C87.7488 165.213 132 163.436 132 161C132 159.051 137.5 132.5 137 121.5C140.713 125.213 143.719 133.329 149.01 136.67C155.623 140.847 159.8 137.367 161.193 133.538C162.585 129.709 156.668 118.57 153.883 115.09C151.099 111.609 134.577 77.1495 131.793 77.1495Z" fill="#4475E3"/>
<path d="M122.048 52.0859C125.236 65.1593 136.387 73.1327 143 70C145.517 68.8079 155.505 56.2065 153.025 42.6901C150.979 29.0552 146.411 20.3339 130.4 24.2389C120.314 26.6985 118.859 39.0126 122.048 52.0859Z" fill="#B3C6F1"/>
<path d="M134.738 79.0401C136.227 77.617 142.494 86.175 146 90.6319C149.314 94.6514 156.527 107.132 160.093 120.402C163.66 133.671 158.906 136.528 156.24 132.615C153.573 128.702 150.755 109.821 149.332 105.765C147.909 101.708 142.055 100.224 141.363 94.8984C140.671 89.5723 132.878 80.8191 134.738 79.0401Z" fill="#B3C6F1"/>
<path d="M151 96.1177C150.443 96.1177 147.456 97.9178 145.367 99.0781C145.715 99.5422 149.962 105.97 150.24 107.084C150.588 108.476 151.981 117.526 153.373 124.139C154.765 130.753 166 139.5 164 128C163.253 123.703 151.696 96.1177 151 96.1177Z" fill="#2057D5"/>
<path d="M136 85C134.98 87.896 137.885 95.5508 138.571 98.9634C140.841 101.123 147.23 102.965 144.394 95.5503C140.489 85.3393 137.275 81.38 136 85Z" fill="#BDCFFA"/>
<path d="M152.161 108.838C154.292 113.175 159.105 127.978 161.245 134.838L140 98.288L145.768 97.542C147.336 100.058 150.03 104.502 152.161 108.838Z" fill="#2E62D7"/>
<path d="M139.059 90.028C130.893 74.473 117.567 69.9375 110.212 76.2152C103.276 82.1345 108.24 95.8768 110.21 98.7407C114.035 104.3 134.924 133.193 151.549 138.404C164.607 142.496 164.5 133 163.118 129.364C160.86 123.427 149.266 109.472 139.059 90.028Z" fill="#2F65E0"/>
<path d="M153.514 56.4583C153.405 55.6267 151.286 54.4258 150.24 53.9293C149.616 55.7038 148.653 59.1729 149.787 58.854C151.205 58.4553 153.652 57.4978 153.514 56.4583Z" fill="#B3C6F1"/>
<path d="M147.803 42.3386C154.416 40.9494 155.181 36.4773 152 32.0002C138.5 13 118.508 23.5 113.691 34.3252C110.499 41.4998 109.515 53.1209 111.603 57.994C113.692 62.867 142.93 71.5689 141.886 68.0882C140.841 64.6074 132.958 60.8189 130.747 53.8171C128.659 47.2036 134.237 45.1881 147.803 42.3386Z" fill="#2057D5"/>
</g>
</svg>
