<svg width="250" height="250" viewBox="0 0 250 250" fill="none" xmlns="http://www.w3.org/2000/svg">
<circle cx="125" cy="125" r="113" stroke="#4475E3" stroke-opacity="0.1" stroke-width="24"/>
<path d="M125 12C151.143 12 176.478 21.0648 196.686 37.6498C216.895 54.2349 230.728 77.314 235.829 102.955C240.929 128.596 236.981 155.212 224.657 178.268C212.333 201.324 192.396 219.394 168.243 229.398C144.09 239.403 117.215 240.723 92.1978 233.134C67.1804 225.545 45.5683 209.517 31.0439 187.779C16.5196 166.042 9.98164 139.941 12.5441 113.924C15.1066 87.9068 26.611 63.5829 45.097 45.0969" stroke="#4475E3" stroke-width="24" stroke-linecap="round" stroke-linejoin="round"/>
<path d="M80.7795 140.554C78.4405 140.554 76.4329 139.962 74.7567 138.778C73.0901 137.585 71.8069 135.866 70.9073 133.622C70.0172 131.368 69.5721 128.655 69.5721 125.483C69.5816 122.311 70.0314 119.612 70.9215 117.386C71.8211 115.152 73.1043 113.447 74.771 112.273C76.4471 111.098 78.4499 110.511 80.7795 110.511C83.109 110.511 85.1119 111.098 86.788 112.273C88.4641 113.447 89.7473 115.152 90.6374 117.386C91.5371 119.621 91.9869 122.32 91.9869 125.483C91.9869 128.665 91.5371 131.383 90.6374 133.636C89.7473 135.881 88.4641 137.595 86.788 138.778C85.1213 139.962 83.1185 140.554 80.7795 140.554ZM80.7795 136.108C82.5977 136.108 84.0323 135.213 85.0835 133.423C86.1441 131.624 86.6744 128.977 86.6744 125.483C86.6744 123.172 86.4329 121.231 85.9499 119.659C85.467 118.087 84.7852 116.903 83.9045 116.108C83.0238 115.303 81.9821 114.901 80.7795 114.901C78.9708 114.901 77.5408 115.8 76.4897 117.599C75.4386 119.389 74.9083 122.017 74.8988 125.483C74.8893 127.803 75.1213 129.754 75.5948 131.335C76.0778 132.917 76.7596 134.11 77.6403 134.915C78.521 135.71 79.5674 136.108 80.7795 136.108ZM107.459 140.554C105.12 140.554 103.113 139.962 101.436 138.778C99.7698 137.585 98.4866 135.866 97.587 133.622C96.6969 131.368 96.2518 128.655 96.2518 125.483C96.2612 122.311 96.7111 119.612 97.6012 117.386C98.5008 115.152 99.784 113.447 101.451 112.273C103.127 111.098 105.13 110.511 107.459 110.511C109.789 110.511 111.792 111.098 113.468 112.273C115.144 113.447 116.427 115.152 117.317 117.386C118.217 119.621 118.667 122.32 118.667 125.483C118.667 128.665 118.217 131.383 117.317 133.636C116.427 135.881 115.144 137.595 113.468 138.778C111.801 139.962 109.798 140.554 107.459 140.554ZM107.459 136.108C109.277 136.108 110.712 135.213 111.763 133.423C112.824 131.624 113.354 128.977 113.354 125.483C113.354 123.172 113.113 121.231 112.63 119.659C112.147 118.087 111.465 116.903 110.584 116.108C109.703 115.303 108.662 114.901 107.459 114.901C105.65 114.901 104.221 115.8 103.169 117.599C102.118 119.389 101.588 122.017 101.578 125.483C101.569 127.803 101.801 129.754 102.275 131.335C102.757 132.917 103.439 134.11 104.32 134.915C105.201 135.71 106.247 136.108 107.459 136.108ZM126.61 136.506C125.749 136.506 125.01 136.203 124.395 135.597C123.779 134.981 123.476 134.242 123.485 133.381C123.476 132.528 123.779 131.799 124.395 131.193C125.01 130.587 125.749 130.284 126.61 130.284C127.444 130.284 128.168 130.587 128.784 131.193C129.409 131.799 129.726 132.528 129.735 133.381C129.726 133.958 129.574 134.484 129.281 134.957C128.997 135.431 128.618 135.81 128.145 136.094C127.681 136.368 127.169 136.506 126.61 136.506ZM126.61 122.088C125.749 122.088 125.01 121.785 124.395 121.179C123.779 120.563 123.476 119.825 123.485 118.963C123.476 118.111 123.779 117.382 124.395 116.776C125.01 116.16 125.749 115.852 126.61 115.852C127.444 115.852 128.168 116.16 128.784 116.776C129.409 117.382 129.726 118.111 129.735 118.963C129.726 119.531 129.574 120.052 129.281 120.526C128.997 120.999 128.618 121.378 128.145 121.662C127.681 121.946 127.169 122.088 126.61 122.088ZM134.988 140V136.193L145.087 126.293C146.053 125.317 146.858 124.451 147.502 123.693C148.146 122.936 148.629 122.202 148.951 121.491C149.273 120.781 149.434 120.024 149.434 119.219C149.434 118.3 149.225 117.514 148.809 116.861C148.392 116.198 147.819 115.687 147.09 115.327C146.361 114.967 145.532 114.787 144.604 114.787C143.648 114.787 142.81 114.986 142.09 115.384C141.37 115.772 140.811 116.326 140.414 117.045C140.025 117.765 139.831 118.622 139.831 119.616H134.817C134.817 117.77 135.239 116.165 136.081 114.801C136.924 113.437 138.084 112.382 139.561 111.634C141.048 110.885 142.753 110.511 144.675 110.511C146.626 110.511 148.34 110.876 149.817 111.605C151.294 112.334 152.44 113.333 153.255 114.602C154.078 115.871 154.49 117.32 154.49 118.949C154.49 120.038 154.282 121.108 153.865 122.159C153.449 123.21 152.715 124.375 151.664 125.653C150.622 126.932 149.159 128.48 147.275 130.298L142.26 135.398V135.597H154.931V140H134.988ZM169.945 140.398C168.051 140.398 166.356 140.043 164.86 139.332C163.364 138.613 162.175 137.628 161.294 136.378C160.423 135.128 159.959 133.698 159.902 132.088H165.016C165.111 133.281 165.627 134.257 166.564 135.014C167.502 135.762 168.629 136.136 169.945 136.136C170.977 136.136 171.896 135.9 172.701 135.426C173.506 134.953 174.14 134.295 174.604 133.452C175.068 132.609 175.295 131.648 175.286 130.568C175.295 129.47 175.063 128.494 174.59 127.642C174.116 126.79 173.468 126.122 172.644 125.639C171.82 125.147 170.873 124.901 169.803 124.901C168.932 124.891 168.075 125.052 167.232 125.384C166.389 125.715 165.721 126.151 165.229 126.69L160.471 125.909L161.99 110.909H178.865V115.312H166.351L165.513 123.026H165.684C166.223 122.391 166.986 121.866 167.971 121.449C168.955 121.023 170.035 120.81 171.209 120.81C172.971 120.81 174.542 121.226 175.925 122.06C177.308 122.884 178.397 124.02 179.192 125.469C179.988 126.918 180.385 128.575 180.385 130.44C180.385 132.363 179.94 134.077 179.05 135.582C178.169 137.079 176.943 138.258 175.371 139.119C173.809 139.972 172 140.398 169.945 140.398Z" fill="#4475E3"/>
</svg>
