<svg width="250" height="250" viewBox="0 0 250 250" fill="none" xmlns="http://www.w3.org/2000/svg">
<circle cx="125" cy="125" r="125" fill="#F6F8FE"/>
<mask id="mask0_1237_107202" style="mask-type:alpha" maskUnits="userSpaceOnUse" x="0" y="0" width="250" height="250">
<circle cx="125" cy="125" r="125" fill="#F6F8FE"/>
</mask>
<g mask="url(#mask0_1237_107202)">
<mask id="mask1_1237_107202" style="mask-type:alpha" maskUnits="userSpaceOnUse" x="0" y="0" width="250" height="250">
<circle cx="125" cy="125" r="125" fill="#F6F8FE"/>
</mask>
<g mask="url(#mask1_1237_107202)">
<path d="M140.731 237.014L139.396 229.577L137.217 254.096L138.551 261.533L140.731 237.014Z" fill="#4475E3"/>
<path d="M33.3377 164.164L32.0029 156.727L137.215 254.096L138.55 261.533L33.3377 164.164Z" fill="#4475E3"/>
<path d="M32.0034 156.726L137.216 254.095L139.396 229.576L54.9969 150.405L32.0034 156.726Z" fill="#E3EAFB"/>
<path d="M75.6519 125.91C81.4577 127.143 97.0004 147.501 108.609 147.501C100 139.501 83.3856 121.882 95.3873 108.392C110.389 91.5305 108.702 61.4439 91.0765 55.6178C56.8674 44.3097 13.1804 76.8171 24.9049 112.08C33.8627 139.022 65.1006 123.669 75.6519 125.91Z" fill="#E3EAFB"/>
<ellipse cx="48.1938" cy="154.99" rx="0.539735" ry="1.07947" transform="rotate(-38.9244 48.1938 154.99)" fill="#4475E3"/>
<path d="M249.74 133.331C236.363 184.138 189 210.498 178.3 207.681C137.943 197.055 124.326 148.877 124.326 95.9826C124.326 53.8813 178.497 11.9108 218.854 22.5368C259.21 33.1627 263.117 82.5243 249.74 133.331Z" fill="#B3C6F1"/>
<path d="M198.002 233.661C210.956 213.799 203.976 194.44 198.578 187.244L254.881 143.424C253.802 159.256 259.415 192 290.504 196.318C329.365 201.715 358.51 236.258 367.146 266.483C375.782 296.709 339.08 588.166 339.08 616.232C339.08 644.298 91.8809 650.775 80.0067 627.027C68.1325 603.278 97.2782 328.013 122.106 276.199C146.934 224.384 181.81 258.489 198.002 233.661Z" fill="#B3C6F1"/>
<ellipse cx="242.567" cy="131.362" rx="12.9536" ry="18.351" transform="rotate(27.7504 242.567 131.362)" fill="#B3C6F1"/>
<path d="M164.289 178.033C165.421 181.492 160.149 186.32 152.514 188.817C144.878 191.315 143.628 187.332 142.497 183.873C141.365 180.414 140.781 178.788 148.416 176.291C156.052 173.794 163.158 174.573 164.289 178.033Z" fill="#F6F8FE"/>
<path d="M216.078 127.287C218.669 116.061 203.484 72.9537 195.568 52.8036C195.568 43.4482 211.545 19.5577 227.952 20.4212C248.462 21.5007 267.893 65.759 274.37 93.8252C280.847 121.891 257.098 172.627 247.383 169.388C237.668 166.15 212.84 141.32 216.078 127.287Z" fill="#4475E3"/>
<path d="M122.868 64.3114C126.054 35.1822 169.33 11.7803 194.552 6.84961C207.638 9.88389 235.401 24.3726 241.773 33.0203C248.145 41.668 236.843 57.4842 230.395 64.3114C223.378 75.3107 235.518 141.117 194.552 79.6724C181.783 60.52 118.885 100.723 122.868 64.3114Z" fill="#4475E3"/>
<path d="M234.599 131.839C229.88 140.809 225.349 153.55 219.018 150.219C212.687 146.888 206.952 128.746 211.671 119.776C216.39 110.807 225.348 106.237 231.68 109.568C238.011 112.899 239.318 122.87 234.599 131.839Z" fill="#B3C6F1"/>
<circle cx="53.2274" cy="98.4811" r="3.23841" transform="rotate(-34.7983 53.2274 98.4811)" fill="#4475E3"/>
<circle cx="65.115" cy="90.2193" r="3.23841" transform="rotate(-34.7983 65.115 90.2193)" fill="#4475E3"/>
<circle cx="77.0027" cy="81.9576" r="3.23841" transform="rotate(-34.7983 77.0027 81.9576)" fill="#4475E3"/>
<path d="M206.501 242.386C196.138 243.249 195.691 235.743 195.691 232.145C176.621 241.14 122.167 260.211 110.293 286.118C98.3807 312.108 77.9084 455.235 69.2726 523.602C63.8752 559.944 56.3189 634.571 69.2726 642.344C85.4646 652.059 135.12 655.297 212.842 656.377C275.02 657.24 319.35 640.904 333.743 632.628C345.257 529.719 366.559 312.673 359.65 267.767C352.742 222.861 291.284 201.56 261.418 196.522C260.339 197.602 262.498 197.602 256.021 205.158C245.577 217.342 219.454 241.306 206.501 242.386Z" fill="#4475E3"/>
<path d="M113.152 297.138C120.867 301.017 140.558 331.701 149.439 346.558C157.821 340.301 173.202 324.965 167.666 313.676C160.746 299.563 147.697 263.52 147.153 248.264C146.608 233.008 129.402 207.296 118.886 203.699C110.474 200.822 106.715 212.383 104.245 223.063C100.839 220.384 92.9774 218.937 92.7156 232.144C92.3885 248.654 103.508 292.288 113.152 297.138Z" fill="#B3C6F1"/>
<path d="M122.301 142.254C123.666 130.875 127.61 124.617 129.128 125.754C132.162 132.392 136.865 151.47 133.679 151.925C129.697 152.494 120.594 156.477 122.301 142.254Z" fill="#B3C6F1"/>
</g>
</g>
</svg>
