<svg width="360" height="157" viewBox="0 0 360 157" fill="none" xmlns="http://www.w3.org/2000/svg">
    <line x1="200" y1="77" x2="360" y2="77" stroke="#4475E3" stroke-opacity="0.38" stroke-width="2"/>
    <line x1="0" y1="77" x2="200" y2="77" stroke="#DAE3F9" stroke-width="2"/>
    <g opacity="0.6">
        <rect x="1" y="49.9258" width="1" height="57.0249" fill="#4475E3"/>
        <rect x="3" y="62.1445" width="1" height="32.5857" fill="#4475E3"/>
        <rect x="5" y="58.0732" width="1" height="40.732" fill="#4475E3"/>
    </g>
    <g opacity="0.6">
        <rect x="34" y="47.0352" width="1" height="62.7127" fill="#4475E3"/>
        <rect x="36" y="39.1953" width="1" height="78.3909" fill="#4475E3"/>
        <rect x="38" y="43.1143" width="1" height="70.5518" fill="#4475E3"/>
        <rect x="40" y="47.0352" width="1" height="62.7127" fill="#4475E3"/>
        <rect x="42" y="54.874" width="1" height="47.0346" fill="#4475E3"/>
        <rect x="44" y="58.793" width="1" height="39.1954" fill="#4475E3"/>
        <rect x="46" y="50.9541" width="1" height="54.8736" fill="#4475E3"/>
        <rect x="48" y="47.0352" width="1" height="62.7127" fill="#4475E3"/>
        <rect x="50" y="43.1143" width="1" height="70.5518" fill="#4475E3"/>
        <rect x="52" y="39.1953" width="1" height="78.3909" fill="#4475E3"/>
        <rect x="54" y="35.2764" width="1" height="86.23" fill="#4475E3"/>
        <rect x="56" width="1" height="156.782" fill="#4475E3"/>
        <rect x="58" y="31.3564" width="1" height="94.0691" fill="#4475E3"/>
        <rect x="60" y="31.3564" width="1" height="94.0691" fill="#4475E3"/>
        <rect x="62" y="7.83984" width="1" height="141.104" fill="#4475E3"/>
        <rect x="64" y="15.6777" width="1" height="125.425" fill="#4475E3"/>
        <rect x="66" width="1" height="156.782" fill="#4475E3"/>
        <rect x="68" y="39.1953" width="1" height="78.3909" fill="#4475E3"/>
        <rect x="70" y="47.0352" width="1" height="62.7127" fill="#4475E3"/>
        <rect x="72" y="35.2764" width="1" height="86.23" fill="#4475E3"/>
        <rect x="74" y="47.0352" width="1" height="62.7127" fill="#4475E3"/>
        <rect x="76" y="39.1953" width="1" height="78.3909" fill="#4475E3"/>
        <rect x="78" y="66.6328" width="1" height="23.5173" fill="#4475E3"/>
        <rect x="7" y="67.6133" width="1" height="23.5173" fill="#4475E3"/>
        <rect x="80" y="62.7119" width="1" height="31.3564" fill="#4475E3"/>
        <rect x="9" y="63.6924" width="1" height="31.3564" fill="#4475E3"/>
        <rect x="82" y="62.7119" width="1" height="31.3564" fill="#4475E3"/>
        <rect x="11" y="63.6924" width="1" height="31.3564" fill="#4475E3"/>
        <rect x="84" y="66.6328" width="1" height="23.5173" fill="#4475E3"/>
        <rect x="13" y="67.6133" width="1" height="23.5173" fill="#4475E3"/>
        <rect x="86" y="66.6328" width="1" height="23.5173" fill="#4475E3"/>
        <rect x="15" y="67.6133" width="1" height="23.5173" fill="#4475E3"/>
        <rect x="88" y="39.1953" width="1" height="78.3909" fill="#4475E3"/>
        <rect x="90" y="50.9541" width="1" height="54.8736" fill="#4475E3"/>
        <rect x="92" y="43.1143" width="1" height="70.5518" fill="#4475E3"/>
        <rect x="94" y="35.2764" width="1" height="86.23" fill="#4475E3"/>
        <rect x="96" y="35.2764" width="1" height="86.23" fill="#4475E3"/>
        <rect x="98" y="31.3564" width="1" height="94.0691" fill="#4475E3"/>
        <rect x="100" y="35.2764" width="1" height="86.23" fill="#4475E3"/>
        <rect x="102" y="62.7119" width="1" height="31.3564" fill="#4475E3"/>
        <rect x="104" y="50.9541" width="1" height="54.8736" fill="#4475E3"/>
        <rect x="106" y="47.0352" width="1" height="62.7127" fill="#4475E3"/>
        <rect x="108" y="43.1143" width="1" height="70.5518" fill="#4475E3"/>
        <rect x="110" y="62.7119" width="1" height="31.3564" fill="#4475E3"/>
        <rect x="112" y="62.7119" width="1" height="31.3564" fill="#4475E3"/>
        <rect x="114" y="39.1953" width="1" height="78.3909" fill="#4475E3"/>
        <rect x="116" y="58.793" width="1" height="39.1954" fill="#4475E3"/>
        <rect x="21" y="73.4912" width="1" height="7.34915" fill="#4475E3"/>
        <rect x="23" y="73.4912" width="1" height="7.34915" fill="#4475E3"/>
        <rect x="25" y="73.4912" width="1" height="7.34915" fill="#4475E3"/>
        <rect x="27" y="73.4912" width="1" height="7.34915" fill="#4475E3"/>
        <rect x="29" y="73.4912" width="1" height="7.34915" fill="#4475E3"/>
    </g>
    <g opacity="0.6">
        <rect width="1" height="62.7127" transform="matrix(-1 0 0 1 201 47.0352)" fill="#4475E3"/>
        <rect width="1" height="78.3909" transform="matrix(-1 0 0 1 199 39.1953)" fill="#4475E3"/>
        <rect width="1" height="70.5518" transform="matrix(-1 0 0 1 197 43.1143)" fill="#4475E3"/>
        <rect width="1" height="62.7127" transform="matrix(-1 0 0 1 195 47.0352)" fill="#4475E3"/>
        <rect width="1" height="47.0346" transform="matrix(-1 0 0 1 193 54.874)" fill="#4475E3"/>
        <rect width="1" height="39.1954" transform="matrix(-1 0 0 1 191 58.793)" fill="#4475E3"/>
        <rect width="1" height="54.8736" transform="matrix(-1 0 0 1 189 50.9541)" fill="#4475E3"/>
        <rect width="1" height="62.7127" transform="matrix(-1 0 0 1 187 47.0352)" fill="#4475E3"/>
        <rect width="1" height="70.5518" transform="matrix(-1 0 0 1 185 43.1143)" fill="#4475E3"/>
        <rect width="1" height="78.3909" transform="matrix(-1 0 0 1 183 39.1953)" fill="#4475E3"/>
        <rect width="1" height="86.23" transform="matrix(-1 0 0 1 181 35.2764)" fill="#4475E3"/>
        <rect width="1" height="156.782" transform="matrix(-1 0 0 1 179 0)" fill="#4475E3"/>
        <rect width="1" height="94.0691" transform="matrix(-1 0 0 1 177 31.3564)" fill="#4475E3"/>
        <rect width="1" height="94.0691" transform="matrix(-1 0 0 1 175 31.3564)" fill="#4475E3"/>
        <rect width="1" height="141.104" transform="matrix(-1 0 0 1 173 7.83984)" fill="#4475E3"/>
        <rect width="1" height="125.425" transform="matrix(-1 0 0 1 171 15.6777)" fill="#4475E3"/>
        <rect width="1" height="156.782" transform="matrix(-1 0 0 1 169 0)" fill="#4475E3"/>
        <rect width="1" height="78.3909" transform="matrix(-1 0 0 1 167 39.1953)" fill="#4475E3"/>
        <rect width="1" height="62.7127" transform="matrix(-1 0 0 1 165 47.0352)" fill="#4475E3"/>
        <rect width="1" height="86.23" transform="matrix(-1 0 0 1 163 35.2764)" fill="#4475E3"/>
        <rect width="1" height="62.7127" transform="matrix(-1 0 0 1 161 47.0352)" fill="#4475E3"/>
        <rect width="1" height="78.3909" transform="matrix(-1 0 0 1 159 39.1953)" fill="#4475E3"/>
        <rect width="1" height="23.5173" transform="matrix(-1 0 0 1 157 66.6328)" fill="#4475E3"/>
        <rect width="1" height="23.5173" transform="matrix(-1 0 0 1 228 67.6133)" fill="#4475E3"/>
        <rect width="1" height="31.3564" transform="matrix(-1 0 0 1 155 62.7119)" fill="#4475E3"/>
        <rect width="1" height="31.3564" transform="matrix(-1 0 0 1 226 63.6924)" fill="#4475E3"/>
        <rect width="1" height="31.3564" transform="matrix(-1 0 0 1 153 62.7119)" fill="#4475E3"/>
        <rect width="1" height="31.3564" transform="matrix(-1 0 0 1 224 63.6924)" fill="#4475E3"/>
        <rect width="1" height="23.5173" transform="matrix(-1 0 0 1 151 66.6328)" fill="#4475E3"/>
        <rect width="1" height="23.5173" transform="matrix(-1 0 0 1 222 67.6133)" fill="#4475E3"/>
        <rect width="1" height="23.5173" transform="matrix(-1 0 0 1 149 66.6328)" fill="#4475E3"/>
        <rect width="1" height="23.5173" transform="matrix(-1 0 0 1 220 67.6133)" fill="#4475E3"/>
        <rect width="1" height="78.3909" transform="matrix(-1 0 0 1 147 39.1953)" fill="#4475E3"/>
        <rect width="1" height="54.8736" transform="matrix(-1 0 0 1 145 50.9541)" fill="#4475E3"/>
        <rect width="1" height="70.5518" transform="matrix(-1 0 0 1 143 43.1143)" fill="#4475E3"/>
        <rect width="1" height="86.23" transform="matrix(-1 0 0 1 141 35.2764)" fill="#4475E3"/>
        <rect width="1" height="86.23" transform="matrix(-1 0 0 1 139 35.2764)" fill="#4475E3"/>
        <rect width="1" height="94.0691" transform="matrix(-1 0 0 1 137 31.3564)" fill="#4475E3"/>
        <rect width="1" height="86.23" transform="matrix(-1 0 0 1 135 35.2764)" fill="#4475E3"/>
        <rect width="1" height="31.3564" transform="matrix(-1 0 0 1 133 62.7119)" fill="#4475E3"/>
        <rect width="1" height="54.8736" transform="matrix(-1 0 0 1 131 50.9541)" fill="#4475E3"/>
        <rect width="1" height="62.7127" transform="matrix(-1 0 0 1 129 47.0352)" fill="#4475E3"/>
        <rect width="1" height="70.5518" transform="matrix(-1 0 0 1 127 43.1143)" fill="#4475E3"/>
        <rect width="1" height="31.3564" transform="matrix(-1 0 0 1 125 62.7119)" fill="#4475E3"/>
        <rect width="1" height="31.3564" transform="matrix(-1 0 0 1 123 62.7119)" fill="#4475E3"/>
        <rect width="1" height="78.3909" transform="matrix(-1 0 0 1 121 39.1953)" fill="#4475E3"/>
        <rect width="1" height="39.1954" transform="matrix(-1 0 0 1 119 58.793)" fill="#4475E3"/>
        <rect width="1" height="7.34915" transform="matrix(-1 0 0 1 214 73.4912)" fill="#4475E3"/>
        <rect width="1" height="7.34915" transform="matrix(-1 0 0 1 212 73.4912)" fill="#4475E3"/>
        <rect width="1" height="7.34915" transform="matrix(-1 0 0 1 210 73.4912)" fill="#4475E3"/>
        <rect width="1" height="7.34915" transform="matrix(-1 0 0 1 208 73.4912)" fill="#4475E3"/>
        <rect width="1" height="7.34915" transform="matrix(-1 0 0 1 206 73.4912)" fill="#4475E3"/>
    </g>
<g opacity="0.6">
<rect x="236" y="66.5195" width="1" height="21.0526" fill="#4475E3"/>
<rect x="238" y="53.9971" width="1" height="48.8785" fill="#4475E3"/>
<rect x="240" y="49.9258" width="1" height="57.0249" fill="#4475E3"/>
<rect x="242" y="45.8496" width="1" height="65.1713" fill="#4475E3"/>
<rect x="244" y="58.0732" width="1" height="40.732" fill="#4475E3"/>
<rect x="246" y="29.5596" width="1" height="97.7569" fill="#4475E3"/>
<rect x="248" y="45.8496" width="1" height="65.1713" fill="#4475E3"/>
<rect x="250" y="29.5596" width="1" height="97.7569" fill="#4475E3"/>
<rect x="252" y="1.0459" width="1" height="154.782" fill="#4475E3"/>
<rect x="254" y="13.2646" width="1" height="130.343" fill="#4475E3"/>
<rect x="256" y="33.6318" width="1" height="89.6105" fill="#4475E3"/>
<rect x="258" y="21.4121" width="1" height="114.05" fill="#4475E3"/>
<rect x="260" y="41.7783" width="1" height="73.3177" fill="#4475E3"/>
<rect x="262" y="33.6318" width="1" height="89.6105" fill="#4475E3"/>
<rect x="264" y="41.7783" width="1" height="73.3177" fill="#4475E3"/>
<rect x="266" y="45.8496" width="1" height="65.1713" fill="#4475E3"/>
<rect x="268" y="41.7783" width="1" height="73.3177" fill="#4475E3"/>
<rect x="270" y="62.1445" width="1" height="32.5857" fill="#4475E3"/>
<rect x="272" y="49.9258" width="1" height="57.0249" fill="#4475E3"/>
<rect x="274" y="49.9258" width="1" height="57.0249" fill="#4475E3"/>
<rect x="276" y="62.1445" width="1" height="32.5857" fill="#4475E3"/>
<rect x="278" y="58.0732" width="1" height="40.732" fill="#4475E3"/>
</g>
<g opacity="0.6">
<rect x="307" y="47.0352" width="1" height="62.7127" fill="#4475E3"/>
<rect x="309" y="39.1953" width="1" height="78.3909" fill="#4475E3"/>
<rect x="311" y="43.1143" width="1" height="70.5518" fill="#4475E3"/>
<rect x="313" y="47.0352" width="1" height="62.7127" fill="#4475E3"/>
<rect x="315" y="54.874" width="1" height="47.0346" fill="#4475E3"/>
<rect x="317" y="58.793" width="1" height="39.1954" fill="#4475E3"/>
<rect x="319" y="50.9541" width="1" height="54.8736" fill="#4475E3"/>
<rect x="321" y="47.0352" width="1" height="62.7127" fill="#4475E3"/>
<rect x="323" y="43.1143" width="1" height="70.5518" fill="#4475E3"/>
<rect x="325" y="39.1953" width="1" height="78.3909" fill="#4475E3"/>
<rect x="327" y="35.2764" width="1" height="86.23" fill="#4475E3"/>
<rect x="329" width="1" height="156.782" fill="#4475E3"/>
<rect x="331" y="31.3564" width="1" height="94.0691" fill="#4475E3"/>
<rect x="333" y="31.3564" width="1" height="94.0691" fill="#4475E3"/>
<rect x="335" y="7.83984" width="1" height="141.104" fill="#4475E3"/>
<rect x="337" y="15.6777" width="1" height="125.425" fill="#4475E3"/>
<rect x="339" width="1" height="156.782" fill="#4475E3"/>
<rect x="341" y="39.1953" width="1" height="78.3909" fill="#4475E3"/>
<rect x="343" y="47.0352" width="1" height="62.7127" fill="#4475E3"/>
<rect x="345" y="35.2764" width="1" height="86.23" fill="#4475E3"/>
<rect x="347" y="47.0352" width="1" height="62.7127" fill="#4475E3"/>
<rect x="349" y="39.1953" width="1" height="78.3909" fill="#4475E3"/>
<rect x="351" y="66.6328" width="1" height="23.5173" fill="#4475E3"/>
<rect x="280" y="67.6133" width="1" height="23.5173" fill="#4475E3"/>
<rect x="353" y="62.7119" width="1" height="31.3564" fill="#4475E3"/>
<rect x="282" y="63.6924" width="1" height="31.3564" fill="#4475E3"/>
<rect x="355" y="62.7119" width="1" height="31.3564" fill="#4475E3"/>
<rect x="284" y="63.6924" width="1" height="31.3564" fill="#4475E3"/>
<rect x="357" y="66.6328" width="1" height="23.5173" fill="#4475E3"/>
<rect x="286" y="67.6133" width="1" height="23.5173" fill="#4475E3"/>
<rect x="359" y="66.6328" width="1" height="23.5173" fill="#4475E3"/>
<rect x="288" y="67.6133" width="1" height="23.5173" fill="#4475E3"/>
<rect x="294" y="73.4912" width="1" height="7.34915" fill="#4475E3"/>
<rect x="296" y="73.4912" width="1" height="7.34915" fill="#4475E3"/>
<rect x="298" y="73.4912" width="1" height="7.34915" fill="#4475E3"/>
<rect x="300" y="73.4912" width="1" height="7.34915" fill="#4475E3"/>
<rect x="302" y="73.4912" width="1" height="7.34915" fill="#4475E3"/>
</g>
</svg>
