<svg width="360" height="157" viewBox="0 0 360 157" fill="none" xmlns="http://www.w3.org/2000/svg">
<line y1="77" x2="360" y2="77" stroke="#4475E3" stroke-opacity="0.38" stroke-width="2"/>
<g opacity="0.6">
<rect x="236" y="66.519" width="1" height="21.0526" fill="#4475E3"/>
<rect x="238" y="53.9966" width="1" height="48.8785" fill="#4475E3"/>
<rect x="240" y="49.9253" width="1" height="57.0249" fill="#4475E3"/>
<rect x="242" y="45.8491" width="1" height="65.1713" fill="#4475E3"/>
<rect x="244" y="58.0723" width="1" height="40.732" fill="#4475E3"/>
<rect x="246" y="29.5591" width="1" height="97.7569" fill="#4475E3"/>
<rect x="248" y="45.8491" width="1" height="65.1713" fill="#4475E3"/>
<rect x="250" y="29.5591" width="1" height="97.7569" fill="#4475E3"/>
<rect x="252" y="1.04541" width="1" height="154.782" fill="#4475E3"/>
<rect x="254" y="13.2646" width="1" height="130.343" fill="#4475E3"/>
<rect x="256" y="33.6309" width="1" height="89.6105" fill="#4475E3"/>
<rect x="258" y="21.4116" width="1" height="114.05" fill="#4475E3"/>
<rect x="260" y="41.7783" width="1" height="73.3177" fill="#4475E3"/>
<rect x="262" y="33.6309" width="1" height="89.6105" fill="#4475E3"/>
<rect x="264" y="41.7783" width="1" height="73.3177" fill="#4475E3"/>
<rect x="266" y="45.8491" width="1" height="65.1713" fill="#4475E3"/>
<rect x="268" y="41.7783" width="1" height="73.3177" fill="#4475E3"/>
<rect x="270" y="62.1436" width="1" height="32.5857" fill="#4475E3"/>
<rect x="272" y="49.9253" width="1" height="57.0249" fill="#4475E3"/>
<rect x="274" y="49.9253" width="1" height="57.0249" fill="#4475E3"/>
<rect x="276" y="62.1436" width="1" height="32.5857" fill="#4475E3"/>
<rect x="278" y="58.0723" width="1" height="40.732" fill="#4475E3"/>
</g>
<g opacity="0.6">
<rect x="307" y="47.0347" width="1" height="62.7127" fill="#4475E3"/>
<rect x="309" y="39.1953" width="1" height="78.3909" fill="#4475E3"/>
<rect x="311" y="43.1143" width="1" height="70.5518" fill="#4475E3"/>
<rect x="313" y="47.0347" width="1" height="62.7127" fill="#4475E3"/>
<rect x="315" y="54.8745" width="1" height="47.0346" fill="#4475E3"/>
<rect x="317" y="58.793" width="1" height="39.1954" fill="#4475E3"/>
<rect x="319" y="50.9536" width="1" height="54.8736" fill="#4475E3"/>
<rect x="321" y="47.0347" width="1" height="62.7127" fill="#4475E3"/>
<rect x="323" y="43.1143" width="1" height="70.5518" fill="#4475E3"/>
<rect x="325" y="39.1953" width="1" height="78.3909" fill="#4475E3"/>
<rect x="327" y="35.2769" width="1" height="86.23" fill="#4475E3"/>
<rect x="329" width="1" height="156.782" fill="#4475E3"/>
<rect x="331" y="31.356" width="1" height="94.0691" fill="#4475E3"/>
<rect x="333" y="31.356" width="1" height="94.0691" fill="#4475E3"/>
<rect x="335" y="7.83936" width="1" height="141.104" fill="#4475E3"/>
<rect x="337" y="15.6782" width="1" height="125.425" fill="#4475E3"/>
<rect x="339" width="1" height="156.782" fill="#4475E3"/>
<rect x="341" y="39.1953" width="1" height="78.3909" fill="#4475E3"/>
<rect x="343" y="47.0347" width="1" height="62.7127" fill="#4475E3"/>
<rect x="345" y="35.2769" width="1" height="86.23" fill="#4475E3"/>
<rect x="347" y="47.0347" width="1" height="62.7127" fill="#4475E3"/>
<rect x="349" y="39.1953" width="1" height="78.3909" fill="#4475E3"/>
<rect x="351" y="66.6328" width="1" height="23.5173" fill="#4475E3"/>
<rect x="280" y="67.6133" width="1" height="23.5173" fill="#4475E3"/>
<rect x="353" y="62.7119" width="1" height="31.3564" fill="#4475E3"/>
<rect x="282" y="63.6924" width="1" height="31.3564" fill="#4475E3"/>
<rect x="355" y="62.7119" width="1" height="31.3564" fill="#4475E3"/>
<rect x="284" y="63.6924" width="1" height="31.3564" fill="#4475E3"/>
<rect x="357" y="66.6328" width="1" height="23.5173" fill="#4475E3"/>
<rect x="286" y="67.6133" width="1" height="23.5173" fill="#4475E3"/>
<rect x="359" y="66.6328" width="1" height="23.5173" fill="#4475E3"/>
<rect x="288" y="67.6133" width="1" height="23.5173" fill="#4475E3"/>
<rect x="294" y="73.4917" width="1" height="7.34915" fill="#4475E3"/>
<rect x="296" y="73.4917" width="1" height="7.34915" fill="#4475E3"/>
<rect x="298" y="73.4917" width="1" height="7.34915" fill="#4475E3"/>
<rect x="300" y="73.4917" width="1" height="7.34915" fill="#4475E3"/>
<rect x="302" y="73.4917" width="1" height="7.34915" fill="#4475E3"/>
</g>
</svg>
