<svg width="250" height="250" viewBox="0 0 250 250" fill="none" xmlns="http://www.w3.org/2000/svg">
<circle cx="125" cy="125" r="125" fill="#F6F8FE"/>
<mask id="mask0_2651_20360" style="mask-type:alpha" maskUnits="userSpaceOnUse" x="0" y="0" width="250" height="250">
<circle cx="125" cy="125" r="125" fill="#F6F8FE"/>
</mask>
<g mask="url(#mask0_2651_20360)">
<mask id="mask1_2651_20360" style="mask-type:alpha" maskUnits="userSpaceOnUse" x="0" y="0" width="250" height="250">
<circle cx="125" cy="125" r="125" fill="#F6F8FE"/>
</mask>
<g mask="url(#mask1_2651_20360)">
<path d="M120.676 230.037V221.924L113.722 247.422V255.536L120.676 230.037Z" fill="#4475E3"/>
<path d="M21 132.679V124.565L113.722 247.422V255.535L21 132.679Z" fill="#4475E3"/>
<path d="M21 124.566L113.722 247.422L120.676 221.924L46.4985 122.248L21 124.566Z" fill="#E3EAFB"/>
<ellipse cx="38.4394" cy="125.803" rx="0.579512" ry="1.15902" transform="rotate(-28.7498 38.4394 125.803)" fill="#4475E3"/>
<path d="M63.101 278.229C70.5188 283.792 85.5088 319.954 92.0766 337.339C102.122 332.317 121.284 319.027 117.575 306.046C112.939 289.82 105.985 249.254 108.303 233.027C110.621 216.801 102.508 177.394 92.0766 171.599C83.7316 166.963 72.3732 187.439 67.7372 198.256C64.6464 194.779 57.7695 191.302 54.9878 205.21C51.5108 222.596 53.8288 271.275 63.101 278.229Z" fill="#B3C6F1"/>
<path d="M214.609 125C203.139 168.564 188.004 198.301 164.621 206.286C160.042 207.85 155.026 207.491 150.507 205.761C114.007 191.787 112.841 151.754 117.433 105.587C126.472 56.0203 171.278 28.3214 214.609 39.7305C257.94 51.1396 227.204 77.164 214.609 125Z" fill="#B3C6F1"/>
<path d="M184 222C183.6 216 178.833 202.833 176.5 197C179 192 184.4 183.1 186 187.5C188 193 184.5 229.5 184 222Z" fill="#B3C6F1"/>
<path d="M182.105 235.832C196.013 214.506 188.519 193.721 182.723 185.994L251.106 157.019C249.947 174.018 255.974 209.175 289.354 213.811C331.079 219.606 362.373 256.695 371.645 289.147C380.917 321.6 341.51 634.537 341.51 664.671C341.51 694.806 76.0932 701.76 63.344 676.261C50.5947 650.763 81.8884 355.212 108.546 299.579C135.203 243.945 164.719 262.49 182.105 235.832Z" fill="#B3C6F1"/>
<path d="M196.014 245.105C184.887 246.032 182.106 239.696 182.106 235.832C161.63 245.491 117.2 270.603 104.451 298.419C91.6613 326.325 69.6803 480 60.408 553.405C54.6129 592.425 46.4997 672.552 60.408 680.897C77.7934 691.329 131.108 694.806 214.558 695.965C281.318 696.892 328.915 679.352 344.369 670.466C356.732 559.973 379.603 326.931 372.185 278.716C364.768 230.501 298.781 207.629 266.714 202.221C265.555 203.38 267.874 203.38 260.919 211.493C249.706 224.575 209.922 243.946 196.014 245.105Z" fill="#4475E3"/>
<path d="M302.644 218.447C259.064 208.247 192.536 342.462 164.72 410.845L48.8174 329.713C53.4535 350.576 65.8153 396.611 70.8388 410.845L70.8599 410.904C77.9067 430.871 134.651 591.651 200.65 589.335C266.714 587.017 320.029 405.05 347.846 348.258C375.662 291.466 357.118 231.196 302.644 218.447Z" fill="#2F65E0"/>
<ellipse cx="207.066" cy="123.979" rx="13.9083" ry="19.7034" transform="rotate(27.7504 207.066 123.979)" fill="#B3C6F1"/>
<path d="M117.201 123.246C117.245 123.557 117.273 123.921 117.278 124.331L119.519 155.699C113.724 152.222 103.756 143.877 110.246 138.313C115.992 133.389 117.318 127.495 117.278 124.331L117.201 123.246Z" fill="#B3C6F1"/>
<ellipse cx="126.063" cy="184.167" rx="15.6666" ry="10.0985" transform="rotate(-18.5764 126.063 184.167)" fill="#F6F8FE"/>
<path d="M143.859 91.9505C133.38 84.6158 118.166 88.6485 118.768 75.7875C118.916 72.6337 120.347 69.6535 122.069 67.0075C163.799 2.89322 225.504 35.4153 250.488 47.9076C275.987 60.6569 325.825 220.602 322.348 260.009C318.871 299.416 191.378 327.232 177.47 298.257C163.561 269.281 179.364 255.43 184 219.5C188.636 183.57 172.833 191.626 180.947 168.446C189.06 145.265 186.742 148.742 170.515 131.357C154.289 113.972 155.449 100.064 143.859 91.9505Z" fill="#4475E3"/>
<path d="M50.9989 98.6553L48.5151 99.3089L50.5509 77.8543L52.9964 77.2108L65.3282 94.8848L62.8444 95.5384L52.6645 80.6076L52.5117 80.6478L50.9989 98.6553ZM49.905 90.7717L59.9164 88.1374L60.4694 90.239L50.458 92.8734L49.905 90.7717Z" fill="#4475E3"/>
<path d="M68.3756 94.083L63.2275 74.5187L65.5966 73.8953L67.8891 82.6075L78.3208 79.8626L76.0284 71.1504L78.3975 70.527L83.5455 90.0912L81.1764 90.7146L78.8739 81.9642L68.4421 84.7091L70.7447 93.4596L68.3756 94.083Z" fill="#4475E3"/>
<path d="M101.105 73.8878L101.658 75.9894L93.0983 78.2417L92.5453 76.1401L101.105 73.8878Z" fill="#4475E3"/>
</g>
</g>
</svg>
