<svg width="360" height="157" viewBox="0 0 360 157" fill="none" xmlns="http://www.w3.org/2000/svg">
<line y1="77" x2="360" y2="77" stroke="#4475E3" stroke-opacity="0.38" stroke-width="2"/>
<g opacity="0.6">
<rect x="307" y="47.0347" width="1" height="62.7127" fill="#4475E3"/>
<rect x="309" y="39.1953" width="1" height="78.3909" fill="#4475E3"/>
<rect x="311" y="43.1143" width="1" height="70.5518" fill="#4475E3"/>
<rect x="313" y="47.0347" width="1" height="62.7127" fill="#4475E3"/>
<rect x="315" y="54.8745" width="1" height="47.0346" fill="#4475E3"/>
<rect x="317" y="58.793" width="1" height="39.1954" fill="#4475E3"/>
<rect x="319" y="50.9536" width="1" height="54.8736" fill="#4475E3"/>
<rect x="321" y="47.0347" width="1" height="62.7127" fill="#4475E3"/>
<rect x="323" y="43.1143" width="1" height="70.5518" fill="#4475E3"/>
<rect x="325" y="39.1953" width="1" height="78.3909" fill="#4475E3"/>
<rect x="327" y="35.2769" width="1" height="86.23" fill="#4475E3"/>
<rect x="329" width="1" height="156.782" fill="#4475E3"/>
<rect x="331" y="31.356" width="1" height="94.0691" fill="#4475E3"/>
<rect x="333" y="31.356" width="1" height="94.0691" fill="#4475E3"/>
<rect x="335" y="7.83936" width="1" height="141.104" fill="#4475E3"/>
<rect x="337" y="15.6782" width="1" height="125.425" fill="#4475E3"/>
<rect x="339" width="1" height="156.782" fill="#4475E3"/>
<rect x="341" y="39.1953" width="1" height="78.3909" fill="#4475E3"/>
<rect x="343" y="47.0347" width="1" height="62.7127" fill="#4475E3"/>
<rect x="345" y="35.2769" width="1" height="86.23" fill="#4475E3"/>
<rect x="347" y="47.0347" width="1" height="62.7127" fill="#4475E3"/>
<rect x="349" y="39.1953" width="1" height="78.3909" fill="#4475E3"/>
<rect x="351" y="66.6328" width="1" height="23.5173" fill="#4475E3"/>
<rect x="353" y="62.7119" width="1" height="31.3564" fill="#4475E3"/>
<rect x="355" y="62.7119" width="1" height="31.3564" fill="#4475E3"/>
<rect x="357" y="66.6328" width="1" height="23.5173" fill="#4475E3"/>
<rect x="359" y="66.6328" width="1" height="23.5173" fill="#4475E3"/>
</g>
</svg>
