<svg width="250" height="250" viewBox="0 0 250 250" fill="none" xmlns="http://www.w3.org/2000/svg">
<circle cx="125" cy="125" r="125" transform="matrix(-1 0 0 1 250 0)" fill="#F6F8FE"/>
<mask id="mask0_2476_25209" style="mask-type:alpha" maskUnits="userSpaceOnUse" x="0" y="0" width="250" height="250">
<circle cx="125" cy="125" r="125" transform="matrix(-1 0 0 1 250 0)" fill="#F6F8FE"/>
</mask>
<g mask="url(#mask0_2476_25209)">
<path d="M176.647 35.6371C176.647 30.3147 172.333 26 167.01 26H88.9826C83.6601 26 79.3455 30.3147 79.3455 35.6371V215.458C79.3455 220.78 83.6601 225.095 88.9826 225.095H167.01C172.333 225.095 176.647 220.78 176.647 215.458V35.6371Z" fill="#4475E3"/>
<path d="M173.653 35.4194C173.653 31.8711 170.777 28.9946 167.229 28.9946H88.7639C85.2156 28.9946 82.3391 31.8711 82.3391 35.4194V215.677C82.3391 219.225 85.2156 222.102 88.7639 222.102H167.229C170.777 222.102 173.653 219.225 173.653 215.677V35.4194Z" fill="white"/>
<circle cx="1.30983" cy="1.30983" r="1.30983" transform="matrix(-1 0 0 1 130.616 31.9878)" fill="#4475E3"/>
<circle cx="10.3631" cy="10.3631" r="10.3631" transform="matrix(-1 0 0 1 155.159 101.103)" fill="#2057D5"/>
<circle cx="10.3631" cy="10.3631" r="10.3631" transform="matrix(-1 0 0 1 121.537 101.103)" fill="#2057D5"/>
<path d="M104.877 209.424C95.596 211.071 81.3558 226.934 69.3245 234.498C56.6005 245.485 49.8662 243.474 49.6789 254.801H-3.50882C2.66611 236.214 25.9499 209.911 29.842 184.911C34.7071 153.663 41.4434 148.797 49.1153 145.991C56.7872 143.184 54.1675 148.797 59.4069 145.991C64.6462 143.184 66.5174 149.172 73.4408 148.797C80.3642 148.423 85.7907 159.089 89.3464 159.089C92.902 159.089 102.819 145.429 111.239 134.015C119.659 122.601 123.645 117.095 128.267 120.543C131.304 122.808 117.283 145.991 108.994 159.089C100.923 171.843 85.604 191.086 89.3464 197.261C93.0887 203.436 111.613 195.203 119.285 195.577C126.957 195.952 130.755 203.544 124.712 205.495C118.655 207.45 116.479 207.366 104.877 209.424Z" fill="#B3C6F1"/>
<path d="M115.397 114.046C117.136 118.595 97.0884 147.217 86.8474 160.96C81.3608 159.131 69.8312 156.544 73.0731 155.129C77.1254 153.36 96.223 129.101 101.614 121.965C107.005 114.83 113.223 108.359 115.397 114.046Z" fill="#B3C6F1"/>
</g>
</svg>
