<svg width="250" height="250" viewBox="0 0 250 250" fill="none" xmlns="http://www.w3.org/2000/svg">
<circle cx="125" cy="125" r="125" fill="#F6F8FE"/>
<mask id="mask0_1237_107973" style="mask-type:alpha" maskUnits="userSpaceOnUse" x="0" y="0" width="250" height="250">
<circle cx="125" cy="125" r="125" fill="#F6F8FE"/>
</mask>
<g mask="url(#mask0_1237_107973)">
<path d="M73.3525 35.6371C73.3525 30.3147 77.6672 26 82.9896 26H161.017C166.34 26 170.655 30.3147 170.655 35.6371V215.458C170.655 220.78 166.34 225.095 161.017 225.095H82.9896C77.6672 225.095 73.3525 220.78 73.3525 215.458V35.6371Z" fill="#4475E3"/>
<path d="M76.3467 35.4194C76.3467 31.8711 79.2231 28.9946 82.7714 28.9946H161.236C164.784 28.9946 167.661 31.8711 167.661 35.4194V215.677C167.661 219.225 164.784 222.102 161.236 222.102H82.7714C79.2231 222.102 76.3467 219.225 76.3467 215.677V35.4194Z" fill="white"/>
<circle cx="120.694" cy="33.2976" r="1.30983" fill="#4475E3"/>
<circle cx="105.204" cy="111.466" r="10.3631" fill="#2057D5"/>
<circle cx="138.826" cy="111.466" r="10.3631" fill="#2057D5"/>
<path d="M145.123 209.424C154.404 211.071 168.644 226.934 180.676 234.498C193.399 245.485 200.134 243.474 200.321 254.801H253.509C247.334 236.214 224.05 209.911 220.158 184.911C215.293 153.663 208.557 148.797 200.885 145.991C193.213 143.184 195.832 148.797 190.593 145.991C185.354 143.184 183.483 149.172 176.559 148.797C169.636 148.423 164.209 159.089 160.654 159.089C157.098 159.089 147.181 145.429 138.761 134.015C130.341 122.601 126.355 117.095 121.733 120.543C118.696 122.808 132.717 145.991 141.006 159.089C149.077 171.843 164.396 191.086 160.654 197.261C156.911 203.436 138.387 195.203 130.715 195.577C123.043 195.952 119.245 203.544 125.288 205.495C131.345 207.45 133.521 207.366 145.123 209.424Z" fill="#B3C6F1"/>
<path d="M134.603 114.046C132.864 118.595 152.912 147.217 163.153 160.96C168.639 159.131 180.169 156.544 176.927 155.129C172.875 153.36 153.777 129.101 148.386 121.965C142.995 114.83 136.777 108.359 134.603 114.046Z" fill="#B3C6F1"/>
</g>
</svg>
