<svg width="250" height="250" viewBox="0 0 250 250" fill="none" xmlns="http://www.w3.org/2000/svg">
<circle cx="125" cy="125" r="125" fill="#4475E3" fill-opacity="0.05"/>
<circle cx="125" cy="125" r="125" fill="#F6F8FE"/>
<path d="M117.338 56.1936C115.823 56.1936 115.524 57.14 115.918 58.5597C107.873 65.1846 99.5921 84.8229 96.5163 91.9211C93.4404 99.0192 85.6324 127.649 82.3199 129.778C79.0074 131.907 72.3825 135.457 76.4048 138.059C80.4271 140.662 86.5788 135.93 88.2351 135.457C89.8913 134.983 92.0208 137.586 92.9672 136.64C93.9136 135.693 90.8377 132.854 90.8377 129.778C90.8377 126.702 102.431 103.042 102.431 108.957C102.431 114.872 108.11 133.8 108.11 142.318C108.11 150.836 94.1502 160.3 83.9762 169.764C73.8021 179.229 62.6816 182.541 62.6816 188.929C62.6816 195.318 74.1875 212.029 77.5 210.136C80.8125 208.244 75.4658 196.645 75.939 192.149C76.6232 185.649 111.896 166.925 120.65 163.139C127.654 160.111 128.774 142.318 128.458 133.8C135.399 158.88 150.557 209.987 151.882 213.773C153.538 218.505 168.681 217.559 174.596 213.773C179.328 210.744 167.104 207.148 160.4 205.728C151.724 167.162 135.036 90.4068 137.686 91.9211C140.998 93.8139 167.735 114.162 168.681 118.184C169.628 122.207 173.177 124.099 172.703 122.207C172.23 120.314 171.993 119.604 173.65 120.314C175.306 121.024 179.328 122.916 180.748 120.314C182.168 117.711 178.145 117.474 168.681 109.903C161.11 103.846 140.446 78.1979 131.771 65.8944C132.165 65.5001 133.427 64.0016 133.427 62.1087C133.427 59.7427 119.23 56.1936 117.338 56.1936Z" fill="#B3C6F1"/>
<path d="M106.218 109.43C102.621 93.9091 120.414 63.2923 123.726 47.913C126.566 45.4523 130.588 51.2256 132.244 53.8283C132.244 63.1348 122.827 83.8297 126.802 93.1046C130.777 102.38 142.024 111.245 141.945 114.399C131.456 119.21 109.814 124.952 106.218 109.43Z" fill="#B3C6F1"/>
<path d="M160.163 198.868L141.944 114.399C138.158 112.696 126.644 113.69 121.359 114.399L146.676 202.417L160.163 198.868Z" fill="#2057D5"/>
<path d="M127.748 156.281C128.513 152.201 130.508 127.889 130.824 116.058C121.596 114.087 103.141 110.9 103.141 113.929C103.141 117.715 105.034 129.308 105.744 138.063C106.453 146.817 104.324 148.473 103.141 150.366C102.195 151.88 82.6488 168.693 73.5 176.501L83.5 185.001C91.5446 180.426 107.637 172.039 116.154 167.875C126.802 162.67 127.038 160.067 127.748 156.281Z" fill="#225BDF"/>
<path d="M117.591 54.6103C114.562 54.0425 114.594 57.0552 114.988 58.6326C105.524 64.3112 100.319 77.0878 97.006 83.4762C93.6936 89.8645 83.9927 122.989 84.4659 124.882C84.9392 126.775 91.5641 128.904 92.5105 126.538C93.2677 124.646 99.2933 113.762 102.212 108.556C102.054 109.739 101.833 115.223 102.212 117.684C102.685 120.76 143.263 120.077 143.5 117.001C143.689 114.54 140.542 99.7231 138.412 94.1234C146.615 101.143 163.398 115.181 164.912 115.181C166.805 115.181 171.774 111.159 169.408 108.556C167.515 106.474 144.485 78.9807 133.207 65.4941C133.759 64.7843 134.863 62.8915 134.863 60.9986C134.863 58.6326 121.376 55.3201 117.591 54.6103Z" fill="#4475E3"/>
<path d="M143.621 40.4264C145.701 48.3939 142.443 56.1432 136.344 57.7349C129.984 58.0537 123.616 54.1579 121.537 46.1904C119.457 38.2229 122.715 30.4736 128.814 28.8819C134.912 27.2902 141.542 32.4589 143.621 40.4264Z" fill="#B3C6F1"/>
<path d="M160.836 203.248C160.051 202.937 159.497 203.652 159.317 204.049C156.273 208.953 152.856 208.646 151.781 208.408C150.829 208.198 150.246 208.068 149.989 207.621C149.84 207.829 149.907 208.167 149.545 210.428C149.094 213.254 148.952 217.43 149.733 219.727C150.615 222.321 162.383 219.319 167.027 218.554C171.67 217.789 173.485 217.674 176.849 216.936C180.213 216.199 181.795 213.553 180.698 211.349C179.602 209.145 175.941 209.198 170.052 207.967C164.163 206.736 161.818 203.637 160.836 203.248Z" fill="#4475E3"/>
<path d="M165.368 218.869C164.88 218.86 154.383 217.75 149.274 217.397C149.318 218.254 148.997 220.424 150.939 220.951C153.367 221.61 165.515 218.872 165.368 218.869Z" fill="#2057D5"/>
<path fill-rule="evenodd" clip-rule="evenodd" d="M169.35 207.234C168.999 207.104 168.61 207.284 168.48 207.635C168.37 207.934 168.167 208.417 167.926 208.87C167.666 209.357 167.424 209.689 167.266 209.806C166.966 210.029 166.903 210.453 167.126 210.753C167.349 211.053 167.773 211.116 168.073 210.894C168.5 210.576 168.862 209.991 169.12 209.507C169.396 208.99 169.623 208.45 169.751 208.103C169.88 207.752 169.7 207.363 169.35 207.234Z" fill="#2057D5"/>
<path fill-rule="evenodd" clip-rule="evenodd" d="M166.113 206.207C165.787 206.024 165.375 206.14 165.192 206.466C164.998 206.811 164.654 207.363 164.26 207.88C163.848 208.421 163.454 208.827 163.171 208.981C162.843 209.16 162.722 209.571 162.902 209.899C163.081 210.228 163.492 210.348 163.82 210.169C164.377 209.865 164.919 209.249 165.337 208.7C165.774 208.126 166.153 207.519 166.372 207.129C166.555 206.803 166.439 206.39 166.113 206.207Z" fill="#2057D5"/>
<path d="M69.4316 180.524C70.0306 180.214 69.7014 182.311 71.5429 183.947C72.9475 185.194 79.0136 187.391 79.0063 188.696C78.999 190.001 77.22 193.717 77.5867 199.488C77.9534 205.26 82.6293 212.569 77.8533 212.754C73.0774 212.94 68.6113 205.016 64.285 199.488C59.9587 193.961 56.0751 188.023 56.9689 186.055C57.8626 184.087 68.8325 180.834 69.4316 180.524Z" fill="#4475E3"/>
<path fill-rule="evenodd" clip-rule="evenodd" d="M77.7791 198.84C77.8066 198.434 77.5231 198.087 77.1458 198.064C76.8238 198.045 76.2974 197.988 75.7888 197.881C75.2431 197.767 74.8524 197.621 74.6942 197.494C74.3936 197.253 73.9637 197.322 73.734 197.65C73.5043 197.977 73.5617 198.439 73.8623 198.68C74.2903 199.023 74.961 199.213 75.5038 199.327C76.0837 199.449 76.673 199.513 77.046 199.535C77.4233 199.557 77.7515 199.246 77.7791 198.84Z" fill="#2057D5"/>
<path fill-rule="evenodd" clip-rule="evenodd" d="M77.8752 195.144C77.9619 194.747 77.7338 194.355 77.3655 194.268C76.9764 194.177 76.3423 193.995 75.7299 193.75C75.088 193.494 74.5833 193.213 74.3543 192.969C74.0882 192.685 73.6545 192.69 73.3856 192.981C73.1166 193.272 73.1143 193.739 73.3803 194.023C73.8318 194.505 74.5827 194.873 75.2336 195.133C75.9142 195.404 76.6103 195.605 77.0513 195.708C77.4196 195.794 77.7884 195.542 77.8752 195.144Z" fill="#2057D5"/>
<path d="M65.1692 200.587C64.9612 200.109 61.0982 189.578 59.1481 184.452C58.1875 184.631 56.2731 185.682 56.657 187.825C57.1369 190.504 65.4292 201.184 65.1692 200.587Z" fill="#2057D5"/>
<path d="M132.364 37.1551C137.231 33.9808 135.538 35.039 137.125 33.9809C137.919 34.51 140.564 37.1552 141.357 37.1552C143.051 37.1552 143.474 40.5941 143.474 39.536C143.474 38.4779 142.68 31.8649 136.067 28.6906C129.453 25.5162 123.105 28.4261 119.666 34.7749C116.227 41.1236 122.047 55.9368 123.37 49.853C123.547 49.0358 123.634 47.2074 123.369 44.5621C123.105 41.9168 126.279 41.1231 132.364 37.1551Z" fill="#2057D5"/>
<path d="M143.476 39.8007L137.127 33.7163C138.097 33.099 140.301 32.182 141.359 33.4517C142.418 34.7215 143.476 38.2136 143.476 39.8007Z" fill="#2057D5"/>
<path d="M125.981 27.808C126.543 27.6032 126.762 28.6122 126.994 29.3534C126.913 30.0587 125.711 30.1585 125.268 29.8694C124.825 29.5803 124.737 28.3538 125.234 28.1727C125.465 28.0888 125.672 28.2069 125.825 28.3812C125.758 28.135 125.758 27.8893 125.981 27.808Z" fill="#2057D5"/>
<path d="M134.889 39.9489C137.819 37.0372 137.854 34.2294 137.505 33.1895C134.366 33.7094 122.857 41.5088 122.333 43.0687C121.81 44.6286 131.227 43.5887 134.889 39.9489Z" fill="#2057D5"/>
<ellipse cx="122.852" cy="45.6735" rx="1.96753" ry="2.95129" transform="rotate(-25.4162 122.852 45.6735)" fill="#B3C6F1"/>
</svg>
