<svg width="250" height="250" viewBox="0 0 250 250" fill="none" xmlns="http://www.w3.org/2000/svg">
<circle cx="125" cy="125" r="125" fill="#F6F8FE"/>
<mask id="mask0_2168_215166" style="mask-type:alpha" maskUnits="userSpaceOnUse" x="0" y="0" width="250" height="250">
<circle cx="125" cy="125" r="125" fill="#F6F8FE"/>
</mask>
<g mask="url(#mask0_2168_215166)">
<mask id="mask1_2168_215166" style="mask-type:alpha" maskUnits="userSpaceOnUse" x="2" y="0" width="250" height="250">
<circle cx="127" cy="125" r="125" fill="#F6F8FE"/>
</mask>
<g mask="url(#mask1_2168_215166)">
<path d="M-199.747 92.6C-180.521 88.7549 -178.919 67.5001 -180.521 57.3533H-138.866C-140.468 64.2958 -138.225 78.1809 -116.436 78.1809C-89.2002 78.1809 -33.1258 94.2022 -4.28754 94.2022C24.5507 94.2022 136.7 105.417 154.323 108.621C171.946 111.826 174.953 101.979 216.253 114.439C220.161 115.619 221.664 120.047 220.73 124.079C220.645 124.623 220.451 125.193 220.175 125.786C219.871 126.5 219.483 127.181 219.011 127.807C217.003 130.838 213.793 134.332 212.141 138.048C210.859 140.934 208.947 142.643 194.528 142.643C181.611 142.643 178.355 139.062 147.914 134.255C117.474 129.449 -25.1152 139.062 -53.9534 148.674C-82.7917 158.287 -79.5874 196.738 -85.9959 206.351C-92.4044 215.964 -85.9959 278.447 -85.9959 292.866C-85.9959 304.401 -76.3832 357.485 -71.5768 382.585H-233.391C-233.391 371.37 -228.585 316.898 -226.983 292.866C-225.381 268.834 -231.789 190.33 -233.391 206.351C-234.994 222.372 -262.23 339.327 -262.23 358.553C-262.23 377.778 -251.015 397.004 -246.208 417.832C-241.402 438.659 -262.23 440.261 -279.853 432.251C-297.477 424.24 -287.864 405.015 -287.864 358.553C-287.864 312.091 -267.036 153.481 -262.23 126.245C-257.423 99.0085 -223.779 97.4064 -199.747 92.6Z" fill="#E3EAFB"/>
<path d="M-148.477 108.621C-177.957 112.467 -193.871 98.4746 -198.143 90.9981C-239.799 90.9981 -257.422 108.621 -262.228 116.632C-266.073 123.041 -271.307 168.434 -273.443 190.33C-277.715 222.372 -286.26 287.739 -286.26 292.866C-286.26 299.274 -294.271 360.155 -289.464 364.961C-284.658 369.768 -260.626 364.961 -260.626 361.757V350.542C-260.626 345.736 -238.196 246.404 -238.196 239.996C-238.196 233.587 -233.39 209.555 -231.788 212.76C-230.185 215.964 -228.583 264.028 -228.583 275.242C-228.583 286.457 -231.788 342.532 -233.39 358.553C-234.672 371.37 -233.924 379.915 -233.39 382.585H-69.9733C-74.7797 353.213 -84.7129 292.225 -85.9946 283.253C-87.5967 272.038 -84.389 229.968 -81.9315 212.334C-81.1343 206.612 -79.5861 187.126 -71.5755 164.696C-65.167 146.752 -10.1606 140.13 16.5414 139.062C34.1648 137.994 75.6191 135.858 88.5 135.858H146.281C151.088 135.858 152.69 107.102 146.281 105.5C139.873 103.898 58.1967 97.4066 51.7882 95.8044C45.3797 94.2023 -24.2046 90.0304 -32.1533 89.0368C-44.4064 87.5051 -94.0052 80.3172 -121.241 74.9768C-118.037 84.5896 -118.998 104.776 -148.477 108.621Z" fill="#4475E3"/>
<path d="M104.135 95.5005L109.897 85.4938L98.3497 85.5072L104.135 95.5005ZM75.6344 34.9897L75.9506 35.9384L75.6344 34.9897ZM59.3488 201.921L60.2432 201.474L59.3488 201.921ZM105.135 142.886C105.135 142.333 104.688 141.885 104.136 141.885C103.583 141.884 103.135 142.332 103.135 142.884L105.135 142.886ZM105.124 86.4712C104.768 74.3829 103.026 59.5694 98.6188 48.6417C96.4165 43.1815 93.5039 38.5773 89.6582 35.8087C85.7542 32.9981 80.9865 32.1515 75.3181 34.041L75.9506 35.9384C81.0528 34.2376 85.1431 35.0226 88.4897 37.4318C91.8946 39.8831 94.6252 44.087 96.764 49.3898C101.039 59.9882 102.771 74.5204 103.125 86.53L105.124 86.4712ZM75.3181 34.041C71.2159 35.4084 67.671 38.6226 64.6311 43.1068C61.5875 47.5966 58.9964 53.4372 56.8259 60.2031C52.4842 73.7372 49.7748 91.1351 48.5651 109.25C47.3548 127.374 47.6425 146.262 49.3171 162.796C50.9884 179.297 54.0516 193.563 58.4544 202.369L60.2432 201.474C56.0092 193.006 52.9727 179.041 51.3069 162.594C49.6443 146.179 49.3573 127.403 50.5606 109.384C51.7645 91.357 54.4567 74.1359 58.7303 60.8141C60.8675 54.1521 63.3875 48.5056 66.2866 44.229C69.1894 39.947 72.4187 37.1156 75.9506 35.9384L75.3181 34.041ZM58.4544 202.369C62.5794 210.619 67.5929 215.511 72.9659 216.855C78.4136 218.219 83.8543 215.854 88.578 210.469C93.295 205.093 97.4183 196.595 100.369 185.284C103.324 173.957 105.12 159.748 105.135 142.886L103.135 142.884C103.12 159.612 101.338 173.648 98.434 184.779C95.5266 195.924 91.5108 204.094 87.0745 209.15C82.6449 214.2 77.9183 216.033 73.4514 214.915C68.9096 213.779 64.261 209.51 60.2432 201.474L58.4544 202.369Z" fill="#2D2D2D"/>
</g>
<circle cx="125" cy="125" r="125" fill="#F6F8FE"/>
<mask id="mask2_2168_215166" style="mask-type:alpha" maskUnits="userSpaceOnUse" x="0" y="0" width="250" height="250">
<circle cx="125" cy="125" r="125" fill="#F6F8FE"/>
</mask>
<g mask="url(#mask2_2168_215166)">
</g>
<mask id="mask3_2168_215166" style="mask-type:alpha" maskUnits="userSpaceOnUse" x="0" y="0" width="250" height="250">
<circle cx="125" cy="125" r="125" fill="#F6F8FE"/>
</mask>
<g mask="url(#mask3_2168_215166)">
<path fill-rule="evenodd" clip-rule="evenodd" d="M-28.9941 156.854C-28.9941 156.025 -28.3226 155.354 -27.4941 155.354H276.496C277.324 155.354 277.996 156.025 277.996 156.854C277.996 157.682 277.324 158.354 276.496 158.354H-27.4941C-28.3226 158.354 -28.9941 157.682 -28.9941 156.854Z" fill="#C7D6F7"/>
<path fill-rule="evenodd" clip-rule="evenodd" d="M-28.9941 196.5C-28.9941 195.672 -28.3226 195 -27.4941 195H276.496C277.324 195 277.996 195.672 277.996 196.5C277.996 197.328 277.324 198 276.496 198H-27.4941C-28.3226 198 -28.9941 197.328 -28.9941 196.5Z" fill="#C7D6F7"/>
<path d="M172.101 106.01C172.101 97.4527 139.655 28.6385 123.432 -4.69901L172.101 -17C181.193 -5.23383 198.307 100.127 205.795 108.684C213.282 117.241 225.049 129.007 226.118 135.425C227.172 141.748 199.68 151.184 164.604 163.224L163.009 163.771C127.175 176.072 134.663 156.284 145.894 151.47C157.126 146.657 172.101 116.706 172.101 106.01Z" fill="#C7D6F7"/>
<path d="M84.9225 134.356C89.2011 122.376 83.1397 33.4526 79.5742 -9.51172H132.522C132.522 2.78928 113.803 124.73 113.803 134.356C113.803 143.983 121.825 164.307 120.221 173.934C118.616 183.56 84.9225 177.143 57.6464 179.282C30.3702 181.421 25.5568 169.12 33.0444 164.307C40.5319 159.493 79.5742 149.332 84.9225 134.356Z" fill="#C7D6F7"/>
<path d="M145.5 41.5L132 0L130.5 10L145.5 41.5Z" fill="#B3C6F1"/>
<path d="M81.7144 133.287C83.8537 132.004 85.8147 133.822 86.5278 134.892C97.7592 147.728 107.574 145.191 110.595 143.983C113.269 142.913 113.804 141.131 114.339 139.704C114.874 140.239 115.943 142.379 118.082 148.796C120.757 156.819 123.175 168.927 122 176C120.675 183.984 84.9233 180.886 71.0178 180.886C57.1123 180.886 51.7641 181.421 41.6024 180.886C31.4407 180.351 25.5576 173.398 27.6969 166.446C29.8362 159.493 40.5328 157.889 57.1124 151.471C73.692 145.053 79.0402 134.892 81.7144 133.287Z" fill="#4475E3"/>
<path d="M204.163 104.187C203.093 102.582 200.954 107.93 194.001 109C188.698 109.816 178.236 107.787 172.381 106.698C172.381 106.698 171.566 106.01 171.566 106.544C171.566 107.078 166.753 124.194 157.66 137.03C148.568 149.865 125.571 158.957 137.337 166.445C149.103 173.933 171.566 162.166 190.285 155.748C209.004 149.331 227.188 141.308 227.723 135.425C228.258 129.542 205.233 105.791 204.163 104.187Z" fill="#4475E3"/>
<path d="M163 128.499C159.4 136.099 145.833 148.666 139.5 153.999C159.333 139.166 198 109.998 187.5 108.999C176.009 107.905 173.5 103.499 171 105.999C168.85 108.15 167.5 118.999 163 128.499Z" fill="#4475E3"/>
</g>
<path fill-rule="evenodd" clip-rule="evenodd" d="M157.218 134.306C157.724 133.324 158.93 132.937 159.912 133.442C160.75 133.874 162.157 134.519 163.589 135.024C165.125 135.565 166.315 135.804 166.893 135.744C167.992 135.629 168.976 136.426 169.091 137.525C169.206 138.623 168.408 139.607 167.31 139.722C165.746 139.886 163.788 139.335 162.26 138.796C160.627 138.221 159.052 137.499 158.082 136.999C157.099 136.494 156.713 135.288 157.218 134.306Z" fill="#2057D5"/>
<path fill-rule="evenodd" clip-rule="evenodd" d="M162.208 125.6C162.552 124.55 163.682 123.978 164.732 124.322C165.841 124.686 167.696 125.2 169.584 125.539C171.563 125.894 173.232 125.989 174.155 125.76C175.227 125.495 176.311 126.149 176.577 127.221C176.842 128.293 176.188 129.378 175.116 129.643C173.296 130.093 170.885 129.836 168.878 129.476C166.779 129.1 164.743 128.535 163.485 128.123C162.436 127.779 161.864 126.649 162.208 125.6Z" fill="#2057D5"/>
<path d="M75.999 181.002C77.4174 180.741 107.489 172.462 122.216 168.979C122.5 171.5 124.476 177.671 119.067 180.141C112.305 183.228 75.5726 181.081 75.999 181.002Z" fill="#2057D5"/>
<path fill-rule="evenodd" clip-rule="evenodd" d="M58.8095 148.991C59.7701 148.446 60.9908 148.783 61.5361 149.743C62.0014 150.563 62.8251 151.873 63.7475 153.079C64.7369 154.373 65.6018 155.225 66.1188 155.491C67.1011 155.996 67.488 157.202 66.9829 158.184C66.4778 159.166 65.272 159.553 64.2897 159.048C62.8911 158.329 61.5544 156.796 60.5701 155.509C59.5187 154.134 58.5964 152.667 58.0575 151.718C57.5122 150.757 57.8489 149.536 58.8095 148.991Z" fill="#2057D5"/>
<path fill-rule="evenodd" clip-rule="evenodd" d="M67.7507 144.438C68.6132 143.748 69.8718 143.888 70.5618 144.751C71.291 145.662 72.562 147.108 73.9566 148.425C75.4185 149.806 76.7633 150.798 77.6608 151.112C78.7033 151.477 79.2527 152.618 78.8878 153.661C78.5229 154.703 77.3819 155.253 76.3394 154.888C74.5702 154.269 72.6928 152.733 71.2102 151.333C69.6604 149.87 68.2648 148.282 67.4383 147.249C66.7483 146.387 66.8882 145.128 67.7507 144.438Z" fill="#2057D5"/>
<path d="M186.499 157C187.699 156.2 212.332 137.5 224.499 128.5C226.665 130.333 229.999 135.6 225.999 140C220.999 145.5 184.999 158 186.499 157Z" fill="#2057D5"/>
</g>
</svg>
