<svg width="250" height="250" viewBox="0 0 250 250" fill="none" xmlns="http://www.w3.org/2000/svg">
<circle cx="125" cy="125" r="125" fill="#F6F8FE"/>
<mask id="mask0_2168_215169" style="mask-type:alpha" maskUnits="userSpaceOnUse" x="0" y="0" width="250" height="250">
<circle cx="125" cy="125" r="125" fill="#F6F8FE"/>
</mask>
<g mask="url(#mask0_2168_215169)">
<mask id="mask1_2168_215169" style="mask-type:alpha" maskUnits="userSpaceOnUse" x="0" y="0" width="250" height="250">
<circle cx="125" cy="125" r="125" fill="#F6F8FE"/>
</mask>
<g mask="url(#mask1_2168_215169)">
<path d="M83.4003 222.504C85.3565 218.004 87.7337 211.504 89.9004 208.004C114.234 208.004 163.102 208.304 163.902 209.504C164.702 210.704 165.802 219.004 167.902 222.504C170.358 223.504 176.802 218.904 218.403 214.504C260.004 210.104 262.737 226.005 258.904 234.505C220.859 282.006 143.068 284.839 102.4 281.506C36.399 276.006 -2.64576 251.005 -10.1017 234.505C-17.2489 218.688 7.89866 214.504 37.8993 213.504C67.8999 212.504 81.8055 226.173 83.4003 222.504Z" fill="#5C82DA"/>
<path d="M90.4695 33.8614C102.87 8.66089 125.97 12.6943 135.97 17.8611C136.804 17.1944 140.671 16.261 147.471 17.8611C155.971 19.8611 161.971 30.8614 168.471 42.8616C175.808 56.4056 196.972 116.863 165.971 138.864C134.971 160.864 74.4692 136.864 53.4687 122.863C32.4683 108.863 51.9687 84.3625 54.9688 80.8624C57.9688 77.3623 74.9692 65.3621 90.4695 33.8614Z" fill="#4475E3"/>
<path d="M108.839 103.863C117.239 100.663 118.339 91.8625 117.839 87.8625C123.839 83.1957 135.639 76.6622 134.839 87.8625C133.839 101.863 138.839 102.363 143.34 103.863C147.84 105.363 159.34 106.363 171.84 113.363C184.34 120.363 188.84 140.864 190.841 145.864C192.841 150.864 202.841 186.865 207.841 189.365C212.841 191.865 250.342 216.365 254.342 215.365C258.342 214.365 270.342 214.365 273.842 215.365C277.342 216.365 280.36 227.365 275.36 231.365C270.36 235.366 257.342 233.866 251.842 231.866C246.342 229.865 245.842 223.865 241.342 223.365C236.841 222.865 204.341 209.865 192.841 204.865C183.64 200.865 171.007 168.531 165.84 152.864L159.34 211.365H90.3384L87.3383 152.864L77.3381 177.864C76.0048 181.031 72.338 189.565 68.3379 198.365C63.3378 209.365 18.3369 220.865 14.3368 221.865C10.3367 222.865 7.33663 226.865 -1.16355 231.365C-9.66373 235.866 -18.1634 233.366 -23.1635 231.365C-28.1637 229.365 -22.6635 216.365 -18.1634 214.365C-13.6633 212.365 2.337 215.865 5.83707 214.365C9.33714 212.865 47.838 187.365 49.838 182.864C51.838 178.364 68.8384 126.863 77.3386 116.863C85.8388 106.863 98.339 107.863 108.839 103.863Z" fill="#B3C6F1"/>
<path d="M135.206 32.1143C124.975 50.7155 106.339 56.916 97.2321 57.691C96.2632 56.916 92.2278 55.1333 90.8327 58.8536C89.4377 62.5739 95.6783 68.5418 99.166 70.4794C100.522 79.005 107.653 96.1724 125.324 96.6375C142.995 97.1025 150.126 79.3925 151.482 70.4794C157.1 65.2478 158.458 61.7601 158.458 57.691C158.458 54.4358 154.97 54.7846 153.226 55.3659C153.613 52.0719 153.226 47.2278 148.576 43.7401C144.692 40.827 137.725 35.4082 135.206 32.1143Z" fill="#B3C6F1"/>
<path d="M145.857 104.863C129.457 115.663 111.69 109.363 104.856 104.863C77.2559 104.863 61.3556 131.197 56.8555 144.364L82.356 169.364V210.865C100.756 217.265 147.691 213.532 168.858 210.865V169.364L193.858 144.364C181.458 109.563 156.691 103.53 145.857 104.863Z" fill="#2F65E0"/>
<path fill-rule="evenodd" clip-rule="evenodd" d="M162.67 84.0847C163.895 82.2323 166.476 81.8873 168.044 83.6391C169.412 85.1669 169.228 87.6142 168.126 89.1408C167.026 90.6658 165.244 91.4045 163.51 91.5547C159.31 91.9187 155.782 89.84 152.768 87.5006C152.521 87.309 152.476 86.9533 152.668 86.7064C152.859 86.4594 153.215 86.4146 153.462 86.6063C156.426 88.9069 159.659 90.7521 163.413 90.4268C164.92 90.2961 166.353 89.6632 167.208 88.4783C168.073 87.2791 168.134 85.4374 167.201 84.3941C166.167 83.2394 164.464 83.4251 163.615 84.7091C163.287 85.2052 163.16 85.666 163.243 86.1806C163.286 86.4469 163.52 86.7366 163.801 86.9472C164.051 87.1347 164.102 87.4896 163.914 87.7397C163.727 87.9898 163.372 88.0405 163.122 87.8529C162.755 87.5776 162.237 87.0585 162.125 86.3603C161.988 85.5038 162.224 84.7598 162.67 84.0847Z" fill="#E3EAFB"/>
<path fill-rule="evenodd" clip-rule="evenodd" d="M156.963 96.1774C158.557 95.8903 160.178 97.0876 160.261 98.804C160.337 100.368 159.027 101.54 157.657 101.727C156.308 101.911 154.967 101.335 153.942 100.521C151.447 98.5404 150.427 95.7157 149.811 93.0385C149.741 92.7338 149.931 92.43 150.236 92.3599C150.541 92.2898 150.845 92.48 150.915 92.7847C151.514 95.3888 152.459 97.8981 154.645 99.6341C155.528 100.334 156.566 100.733 157.503 100.605C158.432 100.479 159.172 99.7062 159.13 98.8589C159.081 97.849 158.109 97.1214 157.163 97.2917C156.798 97.3575 156.59 97.4906 156.452 97.7083C156.436 97.7327 156.414 97.7894 156.41 97.8931C156.406 97.9941 156.421 98.1072 156.447 98.2098C156.522 98.5133 156.336 98.8201 156.033 98.895C155.729 98.9699 155.422 98.7846 155.347 98.4811C155.269 98.1615 155.194 97.577 155.496 97.1014C155.849 96.5456 156.379 96.2825 156.963 96.1774Z" fill="#E3EAFB"/>
</g>
</g>
</svg>
