<svg width="250" height="250" viewBox="0 0 250 250" fill="none" xmlns="http://www.w3.org/2000/svg">
<circle cx="125" cy="125" r="125" fill="#F6F8FE"/>
<mask id="mask0_2168_215168" style="mask-type:alpha" maskUnits="userSpaceOnUse" x="0" y="0" width="250" height="250">
<circle cx="125" cy="125" r="125" fill="#F6F8FE"/>
</mask>
<g mask="url(#mask0_2168_215168)">
<circle cx="125" cy="125" r="125" fill="#F6F8FE"/>
<mask id="mask1_2168_215168" style="mask-type:alpha" maskUnits="userSpaceOnUse" x="0" y="0" width="250" height="250">
<circle cx="125" cy="125" r="125" fill="#F6F8FE"/>
</mask>
<g mask="url(#mask1_2168_215168)">
</g>
<mask id="mask2_2168_215168" style="mask-type:alpha" maskUnits="userSpaceOnUse" x="0" y="0" width="250" height="250">
<circle cx="125" cy="125" r="125" fill="#F6F8FE"/>
</mask>
<g mask="url(#mask2_2168_215168)">
<path d="M77 122.069V118.569L74 129.569V133.069L77 122.069Z" fill="#4475E3"/>
<path d="M34 80.0693V76.5693L74 129.569V133.069L34 80.0693Z" fill="#4475E3"/>
<path d="M34 76.5693L74 129.569L77 118.569L45 75.5693L34 76.5693Z" fill="#E3EAFB"/>
<ellipse cx="41.5222" cy="77.1033" rx="0.25" ry="0.5" transform="rotate(-28.7498 41.5222 77.1033)" fill="#4475E3"/>
<path d="M52.1621 142.859C55.3621 145.259 61.8287 160.859 64.6621 168.359C68.9954 166.193 77.2621 160.459 75.6621 154.859C73.6621 147.859 70.6621 130.359 71.6621 123.359C72.6621 116.359 69.1621 99.3594 64.6621 96.8594C61.062 94.8594 56.1621 103.693 54.1621 108.359C52.8288 106.859 49.8621 105.359 48.6621 111.359C47.1621 118.859 48.1621 139.859 52.1621 142.859Z" fill="#B3C6F1"/>
<path d="M156.911 81.0029C150.715 104.536 128 117.069 111.845 114.702C93.1526 109.78 84.8032 86.6026 90.9995 63.0693C97.1958 39.5361 115.591 24.5586 134.284 29.4804C152.977 34.4023 163.108 57.4697 156.911 81.0029Z" fill="#B3C6F1"/>
<path d="M117.5 124.569C123.5 115.369 120.267 106.403 117.767 103.069L147.267 90.5693C146.767 97.9027 149.367 113.069 163.767 115.069C181.767 117.569 195.267 133.569 199.267 147.569C203.267 161.569 186.267 296.569 186.267 309.569C186.267 322.569 71.7669 325.569 66.2669 314.569C60.7669 303.569 74.2669 176.069 85.7669 152.069C97.2669 128.069 110 136.069 117.5 124.569Z" fill="#B3C6F1"/>
<path d="M123.5 128.569C118.7 128.969 117.5 126.236 117.5 124.569C108.667 128.736 89.5005 139.569 84.0005 151.569C78.483 163.607 69.0004 229.903 65.0004 261.569C62.5004 278.403 59.0004 312.969 65.0004 316.569C72.5004 321.069 95.5004 322.569 131.5 323.069C160.3 323.469 180.834 315.903 187.5 312.069C192.834 264.403 202.7 163.869 199.5 143.069C196.3 122.269 167.834 112.403 154 110.069C153.5 110.569 154.5 110.569 151.5 114.069C146.663 119.713 129.5 128.069 123.5 128.569Z" fill="#4475E3"/>
<path d="M109.5 201.069L145.5 140.569C147 181.069 147.2 263.969 136 271.569C122 281.069 120 276.069 98 256.569C80.4 240.969 65.3333 188.736 60 164.569L78 154.069L109.5 201.069Z" fill="#2F65E0"/>
<path d="M169.5 117.069C150.7 112.669 122 170.569 110 200.069L60 165.069C62 174.069 67.3329 193.929 69.5 200.069L69.5091 200.095C72.5491 208.709 97.0285 278.068 125.5 277.069C154 276.069 177 197.569 189 173.069C201 148.569 193 122.569 169.5 117.069Z" fill="#2F65E0"/>
<path d="M78.5006 165.069C81.7006 152.669 87.6672 144.903 90.5005 142.569L64.0005 316.069C62.6672 312.403 59.8006 302.569 59.0006 292.569C58.0006 280.069 74.5006 180.569 78.5006 165.069Z" fill="#2F65E0"/>
<path d="M133.5 50.0695C124.3 56.4695 100 57.4028 89 57.0695C92.1667 47.7362 103.9 28.7695 125.5 27.5695C152.5 26.0695 159.5 47.5695 162 63.5695C164.5 79.5695 151 105.069 148 100.069C145.6 96.0693 137.167 64.0695 133.5 50.0695Z" fill="#4475E3"/>
<path d="M106 59.0693C108.5 58.5693 110 59.5693 116.5 52.0693L135 48.5693C134.334 49.736 131.3 53.1693 124.5 57.5693C116 63.0693 103.5 59.5693 106 59.0693Z" fill="#4475E3"/>
<ellipse cx="145.268" cy="79.8854" rx="6" ry="8.5" transform="rotate(27.7504 145.268 79.8854)" fill="#B3C6F1"/>
<path fill-rule="evenodd" clip-rule="evenodd" d="M87.9758 100.467C88.0996 100.714 88 101.014 87.7532 101.138C86.9645 101.534 85.6466 102.014 84.2141 102.188C82.7878 102.361 81.1725 102.239 79.8662 101.337C79.6389 101.18 79.5818 100.869 79.7387 100.642C79.8956 100.414 80.207 100.357 80.4342 100.514C81.4557 101.219 82.785 101.354 84.0936 101.195C85.3962 101.037 86.6037 100.596 87.3047 100.244C87.5515 100.121 87.8519 100.22 87.9758 100.467Z" fill="#4475E3"/>
<path fill-rule="evenodd" clip-rule="evenodd" d="M90.7759 104.002C90.9896 104.177 91.0211 104.492 90.8462 104.705C89.8888 105.875 88.2116 107.533 86.2687 108.718C84.3422 109.894 82.0356 110.675 79.8943 109.866C79.636 109.768 79.5058 109.479 79.6035 109.221C79.7011 108.963 79.9897 108.833 80.248 108.93C81.9496 109.574 83.9063 108.988 85.7478 107.864C87.5728 106.751 89.1682 105.177 90.0723 104.072C90.2471 103.858 90.5621 103.827 90.7759 104.002Z" fill="#4475E3"/>
<path fill-rule="evenodd" clip-rule="evenodd" d="M92.9956 109.036C93.2575 109.123 93.399 109.406 93.3115 109.668C92.5831 111.85 91.1567 115.078 89.2317 117.681C87.3326 120.249 84.8095 122.389 81.877 121.983C81.6035 121.946 81.4124 121.693 81.4503 121.42C81.4881 121.146 81.7405 120.955 82.0141 120.993C84.3518 121.316 86.5571 119.616 88.4277 117.086C90.2724 114.592 91.6568 111.467 92.363 109.352C92.4504 109.09 92.7337 108.948 92.9956 109.036Z" fill="#4475E3"/>
</g>
</g>
</svg>
