<svg width="250" height="250" viewBox="0 0 250 250" fill="none" xmlns="http://www.w3.org/2000/svg">
<circle cx="125" cy="125" r="125" fill="#F6F8FE"/>
<path d="M170.607 69.3164C171.134 67.172 173.299 65.8603 175.443 66.3868L217.859 76.7993C220.003 77.3257 221.315 79.4909 220.788 81.6352L198.778 171.295C198.252 173.439 196.087 174.751 193.942 174.224L151.527 163.812C149.382 163.285 148.071 161.12 148.597 158.976L170.607 69.3164Z" fill="#4475E3"/>
<path d="M172.827 71.1979C173.178 69.7683 174.622 68.8939 176.051 69.2448L215.964 79.0429C217.394 79.3939 218.268 80.8373 217.917 82.2669L196.559 169.267C196.208 170.697 194.765 171.571 193.335 171.22L153.423 161.422C151.993 161.071 151.119 159.628 151.47 158.198L172.827 71.1979Z" fill="white"/>
<circle cx="195.152" cy="78.2312" r="1.26027" transform="rotate(13.7927 195.152 78.2312)" fill="#4475E3"/>
<path d="M217.337 91.4654C217.403 91.195 217.676 91.0296 217.947 91.096L218.926 91.3364C219.196 91.4028 219.362 91.6758 219.295 91.9461L218.033 97.0866C217.967 97.357 217.694 97.5224 217.423 97.456L216.444 97.2157C216.174 97.1493 216.009 96.8763 216.075 96.6059L217.337 91.4654Z" fill="#4475E3"/>
<path d="M215.595 98.5633C215.661 98.2929 215.934 98.1275 216.204 98.1939L217.184 98.4343C217.454 98.5007 217.619 98.7737 217.553 99.044L215.45 107.612C215.383 107.882 215.11 108.047 214.84 107.981L213.861 107.741C213.59 107.674 213.425 107.401 213.491 107.131L215.595 98.5633Z" fill="#4475E3"/>
<mask id="mask0_2168_215165" style="mask-type:alpha" maskUnits="userSpaceOnUse" x="0" y="0" width="250" height="250">
<circle cx="125" cy="125" r="125" fill="#F6F8FE"/>
</mask>
<g mask="url(#mask0_2168_215165)">
<mask id="mask1_2168_215165" style="mask-type:alpha" maskUnits="userSpaceOnUse" x="0" y="0" width="250" height="250">
<circle cx="125" cy="125" r="125" fill="#F6F8FE"/>
</mask>
<g mask="url(#mask1_2168_215165)">
<path d="M-199.747 92.6C-180.521 88.7549 -178.919 67.5001 -180.521 57.3533H-138.866C-140.468 64.2958 -138.225 78.1809 -116.436 78.1809C-89.2002 78.1809 -33.1258 94.2022 -4.28754 94.2022C24.5507 94.2022 136.7 105.417 154.323 108.621C171.946 111.826 174.953 101.979 216.253 114.439C220.161 115.619 221.664 120.047 220.73 124.079C220.645 124.623 220.451 125.193 220.175 125.786C219.871 126.5 219.483 127.181 219.011 127.807C217.003 130.838 213.793 134.332 212.141 138.048C210.859 140.934 208.947 142.643 194.528 142.643C181.611 142.643 178.355 139.062 147.914 134.255C117.474 129.449 -25.1152 139.062 -53.9534 148.674C-82.7917 158.287 -79.5874 196.738 -85.9959 206.351C-92.4044 215.964 -85.9959 278.447 -85.9959 292.866C-85.9959 304.401 -76.3832 357.485 -71.5768 382.585H-233.391C-233.391 371.37 -228.585 316.898 -226.983 292.866C-225.381 268.834 -231.789 190.33 -233.391 206.351C-234.994 222.372 -262.23 339.327 -262.23 358.553C-262.23 377.778 -251.015 397.004 -246.208 417.832C-241.402 438.659 -262.23 440.261 -279.853 432.251C-297.477 424.24 -287.864 405.015 -287.864 358.553C-287.864 312.091 -267.036 153.481 -262.23 126.245C-257.423 99.0085 -223.779 97.4064 -199.747 92.6Z" fill="#B3C6F1"/>
<path d="M-148.477 108.621C-177.957 112.467 -193.871 98.4746 -198.143 90.9981C-239.799 90.9981 -257.422 108.621 -262.228 116.632C-266.073 123.041 -271.307 168.434 -273.443 190.33C-277.715 222.372 -286.26 287.739 -286.26 292.866C-286.26 299.274 -294.271 360.155 -289.464 364.961C-284.658 369.768 -260.626 364.961 -260.626 361.757V350.542C-260.626 345.736 -238.196 246.404 -238.196 239.996C-238.196 233.587 -233.39 209.555 -231.788 212.76C-230.185 215.964 -228.583 264.028 -228.583 275.242C-228.583 286.457 -231.788 342.532 -233.39 358.553C-234.672 371.37 -233.924 379.915 -233.39 382.585H-69.9733C-74.7797 353.213 -84.7129 292.225 -85.9946 283.253C-87.5967 272.038 -84.389 229.968 -81.9315 212.334C-81.1343 206.612 -79.5861 187.126 -71.5755 164.696C-65.167 146.752 -10.1606 140.13 16.5414 139.062C34.1648 137.994 75.6191 135.858 88.5 135.858H146.281C151.088 135.858 152.69 107.102 146.281 105.5C139.873 103.898 58.1967 97.4066 51.7882 95.8044C45.3797 94.2023 -24.2046 90.0304 -32.1533 89.0368C-44.4064 87.5051 -94.0052 80.3172 -121.241 74.9768C-118.037 84.5896 -118.998 104.776 -148.477 108.621Z" fill="#4475E3"/>
<path fill-rule="evenodd" clip-rule="evenodd" d="M103.091 85.5018L98.3497 85.5073L104.135 95.5006L109.897 85.4938L105.092 85.4994C104.674 73.5964 102.909 59.2783 98.6188 48.6418C96.4165 43.1816 93.5039 38.5773 89.6582 35.8088C85.7542 32.9982 80.9865 32.1516 75.3181 34.0411C71.2159 35.4085 67.671 38.6226 64.6311 43.1069C61.5875 47.5966 58.9964 53.4372 56.8259 60.2032C52.4842 73.7372 49.7748 91.1351 48.5651 109.251C47.3548 127.374 47.6425 146.262 49.3171 162.796C50.9884 179.297 54.0516 193.563 58.4544 202.369C62.5794 210.619 67.5929 215.511 72.9659 216.856C78.4136 218.219 83.8543 215.854 88.578 210.47C93.295 205.093 97.4183 196.595 100.369 185.284C103.324 173.957 105.12 159.748 105.135 142.886C105.135 142.333 104.688 141.885 104.136 141.885C103.583 141.884 103.135 142.332 103.135 142.884C103.12 159.612 101.338 173.648 98.434 184.779C95.5266 195.924 91.5108 204.094 87.0745 209.151C82.6449 214.2 77.9183 216.033 73.4514 214.915C68.9096 213.779 64.261 209.51 60.2432 201.474C56.0092 193.006 52.9727 179.041 51.3069 162.594C49.6443 146.179 49.3573 127.403 50.5606 109.384C51.7645 91.3571 54.4567 74.136 58.7303 60.8141C60.8675 54.1522 63.3875 48.5057 66.2866 44.2291C69.1894 39.947 72.4187 37.1157 75.9506 35.9384C81.0528 34.2377 85.1431 35.0226 88.4897 37.4319C91.8946 39.8831 94.6252 44.0871 96.764 49.3899C100.918 59.6876 102.671 73.6989 103.091 85.5018Z" fill="#2057D5"/>
</g>
</g>
</svg>
