<svg width="250" height="250" viewBox="0 0 250 250" fill="none" xmlns="http://www.w3.org/2000/svg">
<circle cx="125" cy="125" r="125" fill="#F6F8FE"/>
<mask id="mask0_2168_215176" style="mask-type:alpha" maskUnits="userSpaceOnUse" x="0" y="0" width="250" height="250">
<circle cx="125" cy="125" r="125" fill="#F6F8FE"/>
</mask>
<g mask="url(#mask0_2168_215176)">
<path d="M47.6986 100.471L66.7764 193.214C66.2592 190.67 70.1901 185.047 90.0513 182.91C114.878 180.238 142.324 190.161 143.469 193.214C144.385 195.657 143.851 248.428 143.469 274.508H138.127L134.312 211.152H69.4473C67.9211 211.152 66.7015 213.124 65.6317 219.167C59.1453 255.807 57.4919 258.606 52.6589 274.508H46.554C46.554 274.508 48.9959 270.386 52.6589 253.899C57.2375 233.289 57.2375 204.283 56.4744 194.741C55.8639 187.108 44.0103 129.986 38.1598 102.379L47.6986 100.471Z" fill="#7F9EE2"/>
<path d="M153.024 270.401C153.221 266.498 161.494 215.869 165.903 191.04C171.82 189.416 182.61 187.417 182.61 191.315C182.61 196.188 168.688 251.535 166.947 261.627C165.971 267.286 173.212 266.847 183.655 272.417C194.097 277.986 180.075 280.597 173.212 277.986C165.903 275.204 152.676 277.293 153.024 270.401Z" fill="#A8BAE6"/>
<path d="M152.994 254.32L164.163 193.059C168.34 189.23 175.302 189.926 178.434 196.888C180.94 202.457 178.55 217.076 177.042 223.69C174.721 235.64 169.354 256.756 168.309 257.104C166.46 257.72 156.823 256.756 152.994 254.32Z" fill="#184DC6"/>
<path d="M128.04 74.4084C134.325 77.4525 148.243 97.7823 154.417 107.567C152.733 122.244 139.264 109.741 133.091 102.675C126.917 95.608 120.182 70.6034 128.04 74.4084Z" fill="#2057D5"/>
<path d="M133.431 88.9874C130.647 81.1905 132.271 69.8647 133.431 66.5C130.647 61.1628 125.737 51.0449 121.003 59.3987C115.086 69.8409 96.8835 88.9874 94.0989 94.9047C91.3143 100.822 87.1373 151.293 84.7008 169.045C82.2643 186.797 93.0546 190.625 100.016 193.41C105.585 195.638 150.835 194.338 172.764 193.41C172.532 198.051 172.207 208.586 172.764 213.598C173.46 219.864 177.289 258.848 176.245 271.379C175.208 283.823 185.452 282.275 206.438 279.102L206.875 279.036C211.503 278.337 214.287 271.379 202.35 271.379C187.834 271.379 188.646 267.199 189.574 254.668C190.373 243.874 191.908 185.056 191.56 179.835C191.281 175.658 147.122 166.028 125.077 161.735C124.845 158.951 124.521 151.014 125.077 141.547C125.774 129.712 136.912 98.7335 133.431 88.9874Z" fill="#AFC2EE"/>
<path d="M87.2395 187.141C81.7664 180.148 83.5267 166.141 85.8472 159.295C93.969 160.224 113.729 159.197 127.616 160.688C144.501 162.5 187.402 176.861 189.589 178.091C204.536 186.5 189.589 252.58 187.501 255.016C186.142 256.602 175.651 256.408 174.955 253.972C173.728 249.68 172.156 216.96 170.763 198.976C159.973 199.788 134.076 201.413 119.596 201.413C101.497 201.413 93.5051 195.147 87.2395 187.141Z" fill="#2057D5"/>
<path d="M131.792 77.1497C129.564 77.1497 120.77 69.9562 115.78 65.3152C104.294 73.669 95.2387 88.8688 92.2728 94.9016C81.3208 117.178 82.8748 156.859 85.3113 161.036C87.7479 165.213 131.999 163.437 131.999 161C131.999 159.051 137.499 132.5 136.999 121.5C140.712 125.213 143.718 133.329 149.009 136.671C155.623 140.848 159.799 137.367 161.192 133.538C162.584 129.709 156.667 118.571 153.882 115.09C151.098 111.609 134.577 77.1497 131.792 77.1497Z" fill="#4475E3"/>
<path d="M122.047 52.0859C125.235 65.1593 136.386 73.1327 142.999 70C145.516 68.8079 155.504 56.2065 153.024 42.6901C150.978 29.0552 146.41 20.3339 130.399 24.2389C120.313 26.6985 118.858 39.0126 122.047 52.0859Z" fill="#B3C6F1"/>
<path d="M134.739 79.0404C136.228 77.6173 142.495 86.1752 146.001 90.6322C149.315 94.6516 156.528 107.132 160.094 120.402C163.66 133.672 158.907 136.529 156.241 132.615C153.574 128.702 150.756 109.822 149.333 105.765C147.91 101.709 142.056 100.225 141.364 94.8986C140.672 89.5725 132.879 80.8193 134.739 79.0404Z" fill="#B3C6F1"/>
<path d="M151 96.1179C150.443 96.1179 147.456 97.9181 145.367 99.0783C145.715 99.5424 149.962 105.97 150.24 107.084C150.588 108.476 151.981 117.526 153.373 124.14C154.765 130.753 166 139.5 164 128C163.253 123.703 151.696 96.1179 151 96.1179Z" fill="#2057D5"/>
<path d="M136 85C134.98 87.896 137.885 95.5508 138.571 98.9634C140.841 101.123 147.23 102.965 144.394 95.5503C140.489 85.3393 137.275 81.38 136 85Z" fill="#BDCFFA"/>
<path d="M152.162 108.838C154.293 113.175 159.106 127.978 161.246 134.838L140.001 98.2877L145.769 97.5417C147.337 100.058 150.031 104.502 152.162 108.838Z" fill="#2E62D7"/>
<path d="M139.059 90.028C130.893 74.473 117.567 69.9375 110.212 76.2152C103.276 82.1345 108.24 95.8768 110.21 98.7407C114.035 104.3 134.924 133.193 151.549 138.404C164.607 142.496 164.5 133 163.118 129.364C160.86 123.427 149.266 109.472 139.059 90.028Z" fill="#2F65E0"/>
<path d="M153.514 56.4583C153.405 55.6267 151.286 54.4258 150.24 53.9293C149.616 55.7038 148.653 59.1729 149.787 58.854C151.205 58.4553 153.652 57.4978 153.514 56.4583Z" fill="#B3C6F1"/>
<path d="M147.803 42.3386C154.416 40.9494 155.181 36.4773 152 32.0002C138.5 13 118.508 23.5 113.691 34.3252C110.499 41.4998 109.515 53.1209 111.603 57.994C113.692 62.867 142.93 71.5689 141.886 68.0882C140.841 64.6074 132.958 60.8189 130.747 53.8171C128.659 47.2036 134.237 45.1881 147.803 42.3386Z" fill="#2057D5"/>
</g>
</svg>
