<svg width="250" height="250" viewBox="0 0 250 250" fill="none" xmlns="http://www.w3.org/2000/svg">
<circle cx="125" cy="125" r="125" fill="#F6F8FE"/>
<mask id="mask0_2168_215171" style="mask-type:alpha" maskUnits="userSpaceOnUse" x="0" y="0" width="250" height="250">
<circle cx="125" cy="125" r="125" fill="#F6F8FE"/>
</mask>
<g mask="url(#mask0_2168_215171)">
<mask id="mask1_2168_215171" style="mask-type:alpha" maskUnits="userSpaceOnUse" x="0" y="0" width="250" height="250">
<circle cx="125" cy="125" r="125" fill="#F6F8FE"/>
</mask>
<g mask="url(#mask1_2168_215171)">
<path d="M140.731 237.013L139.396 229.576L137.217 254.095L138.551 261.532L140.731 237.013Z" fill="#4475E3"/>
<path d="M33.3387 164.163L32.0039 156.725L137.216 254.095L138.551 261.532L33.3387 164.163Z" fill="#4475E3"/>
<path d="M32.0044 156.725L137.217 254.095L139.397 229.576L54.9979 150.405L32.0044 156.725Z" fill="#E3EAFB"/>
<path d="M75.6525 125.909C81.4583 127.142 97.001 147.5 108.61 147.5C100.001 139.5 83.3861 121.881 95.3878 108.391C110.39 91.5295 108.702 61.443 91.0771 55.6168C56.8679 44.3087 13.181 76.8161 24.9054 112.079C33.8632 139.021 65.1012 123.668 75.6525 125.909Z" fill="#E3EAFB"/>
<ellipse cx="48.1938" cy="154.99" rx="0.539735" ry="1.07947" transform="rotate(-38.9244 48.1938 154.99)" fill="#4475E3"/>
<path d="M249.74 133.331C236.363 184.138 189 210.498 178.3 207.681C137.943 197.055 124.326 148.876 124.326 95.9823C124.326 53.881 178.497 11.9106 218.854 22.5365C259.21 33.1625 263.117 82.5241 249.74 133.331Z" fill="#B3C6F1"/>
<path d="M198.002 233.661C210.956 213.799 203.976 194.44 198.578 187.244L254.881 143.424C253.802 159.256 259.415 192 290.504 196.318C329.365 201.715 358.51 236.258 367.146 266.483C375.782 296.708 339.08 588.165 339.08 616.232C339.08 644.298 91.8808 650.775 80.0067 627.026C68.1325 603.278 97.2782 328.013 122.106 276.198C146.934 224.384 181.81 258.489 198.002 233.661Z" fill="#B3C6F1"/>
<ellipse cx="242.568" cy="131.361" rx="12.9536" ry="18.351" transform="rotate(27.7504 242.568 131.361)" fill="#B3C6F1"/>
<path d="M164.289 178.032C165.421 181.491 160.149 186.32 152.514 188.817C144.878 191.314 143.628 187.332 142.497 183.873C141.365 180.413 140.781 178.787 148.416 176.29C156.052 173.793 163.158 174.573 164.289 178.032Z" fill="#F6F8FE"/>
<path d="M216.078 127.287C218.669 116.061 203.484 72.954 195.568 52.8039C195.568 43.4485 211.545 19.5579 227.952 20.4215C248.462 21.501 267.893 65.7592 274.37 93.8255C280.847 121.892 257.098 172.627 247.383 169.388C237.668 166.15 212.84 141.32 216.078 127.287Z" fill="#4475E3"/>
<path d="M122.869 64.3106C126.055 35.1815 169.331 11.7796 194.553 6.84888C207.639 9.88316 235.402 24.3719 241.774 33.0196C248.146 41.6673 236.844 57.4835 230.396 64.3106C223.379 75.3099 235.519 141.116 194.553 79.6717C181.784 60.5193 118.886 100.722 122.869 64.3106Z" fill="#4475E3"/>
<path d="M234.6 131.839C229.881 140.808 225.35 153.55 219.019 150.219C212.688 146.888 206.953 128.745 211.672 119.776C216.391 110.807 225.349 106.236 231.681 109.567C238.012 112.898 239.319 122.87 234.6 131.839Z" fill="#B3C6F1"/>
<circle cx="53.2281" cy="98.4813" r="3.23841" transform="rotate(-34.7983 53.2281 98.4813)" fill="#4475E3"/>
<circle cx="65.1148" cy="90.2196" r="3.23841" transform="rotate(-34.7983 65.1148 90.2196)" fill="#4475E3"/>
<circle cx="77.0035" cy="81.9581" r="3.23841" transform="rotate(-34.7983 77.0035 81.9581)" fill="#4475E3"/>
<path d="M206.502 242.385C196.139 243.249 195.692 235.743 195.692 232.144C176.621 241.14 122.168 260.211 110.294 286.118C98.3816 312.108 77.9093 455.235 69.2735 523.601C63.8761 559.944 56.3198 634.571 69.2735 642.343C85.4655 652.058 135.121 655.297 212.843 656.376C275.021 657.24 319.351 640.904 333.744 632.628C345.258 529.718 366.56 312.673 359.651 267.767C352.742 222.861 291.285 201.559 261.419 196.522C260.34 197.601 262.499 197.601 256.022 205.158C245.578 217.342 219.455 241.306 206.502 242.385Z" fill="#4475E3"/>
<path d="M113.153 297.137C120.868 301.017 140.559 331.7 149.44 346.557C157.822 340.301 173.202 324.965 167.667 313.675C160.747 299.563 147.698 263.52 147.154 248.263C146.609 233.007 129.403 207.295 118.887 203.699C110.475 200.822 106.716 212.383 104.246 223.062C100.84 220.383 92.9783 218.936 92.7166 232.144C92.3894 248.653 103.509 292.288 113.153 297.137Z" fill="#B3C6F1"/>
<path d="M122.301 142.253C123.666 130.875 127.61 124.616 129.128 125.754C132.162 132.391 136.865 151.47 133.679 151.925C129.697 152.494 120.594 156.477 122.301 142.253Z" fill="#B3C6F1"/>
</g>
</g>
</svg>
