<svg width="250" height="250" viewBox="0 0 250 250" fill="none" xmlns="http://www.w3.org/2000/svg">
<circle cx="125" cy="125" r="125" fill="#F6F8FE"/>
<mask id="mask0_2168_215170" style="mask-type:alpha" maskUnits="userSpaceOnUse" x="0" y="0" width="250" height="250">
<circle cx="125" cy="125" r="125" fill="#F6F8FE"/>
</mask>
<g mask="url(#mask0_2168_215170)">
<mask id="mask1_2168_215170" style="mask-type:alpha" maskUnits="userSpaceOnUse" x="0" y="0" width="250" height="250">
<circle cx="125" cy="125" r="125" fill="#F6F8FE"/>
</mask>
<g mask="url(#mask1_2168_215170)">
<path d="M120.677 230.037V221.924L113.723 247.422V255.535L120.677 230.037Z" fill="#4475E3"/>
<path d="M21 132.679V124.566L113.722 247.422V255.535L21 132.679Z" fill="#4475E3"/>
<path d="M21 124.566L113.722 247.422L120.676 221.924L46.4985 122.248L21 124.566Z" fill="#E3EAFB"/>
<ellipse cx="38.4386" cy="125.803" rx="0.579512" ry="1.15902" transform="rotate(-28.7498 38.4386 125.803)" fill="#4475E3"/>
<path d="M63.101 278.229C70.5188 283.792 85.5088 319.954 92.0766 337.339C102.122 332.317 121.284 319.027 117.575 306.046C112.939 289.82 105.985 249.254 108.303 233.027C110.621 216.801 102.508 177.394 92.0766 171.599C83.7316 166.963 72.3732 187.439 67.7372 198.256C64.6464 194.779 57.7695 191.302 54.9878 205.21C51.5108 222.596 53.8288 271.275 63.101 278.229Z" fill="#B3C6F1"/>
<path d="M214.609 125C203.139 168.564 188.004 198.301 164.621 206.286C160.042 207.85 155.026 207.491 150.507 205.761C114.007 191.787 112.841 151.754 117.433 105.587C126.472 56.0203 171.278 28.3214 214.609 39.7305C257.94 51.1396 227.204 77.164 214.609 125Z" fill="#B3C6F1"/>
<path d="M184 222C183.6 216 178.833 202.833 176.5 197C179 192 184.4 183.1 186 187.5C188 193 184.5 229.5 184 222Z" fill="#B3C6F1"/>
<path d="M182.104 235.832C196.012 214.506 188.518 193.721 182.722 185.994L251.105 157.019C249.946 174.018 255.973 209.175 289.353 213.811C331.078 219.606 362.372 256.695 371.644 289.147C380.916 321.6 341.509 634.537 341.509 664.671C341.509 694.806 76.0923 701.76 63.343 676.261C50.5937 650.763 81.8874 355.212 108.545 299.579C135.202 243.945 164.718 262.49 182.104 235.832Z" fill="#B3C6F1"/>
<path d="M196.014 245.105C184.887 246.032 182.106 239.696 182.106 235.832C161.63 245.491 117.2 270.603 104.451 298.419C91.6613 326.325 69.6803 480 60.408 553.405C54.6129 592.425 46.4997 672.552 60.408 680.897C77.7934 691.329 131.108 694.806 214.558 695.965C281.318 696.892 328.915 679.352 344.369 670.466C356.732 559.973 379.603 326.931 372.185 278.716C364.768 230.501 298.781 207.629 266.714 202.221C265.555 203.38 267.874 203.38 260.919 211.493C249.706 224.575 209.922 243.946 196.014 245.105Z" fill="#4475E3"/>
<path d="M302.643 218.447C259.063 208.247 192.535 342.462 164.719 410.845L48.8164 329.713C53.4525 350.576 65.8144 396.611 70.8379 410.845L70.8589 410.904C77.9058 430.871 134.65 591.651 200.649 589.335C266.713 587.017 320.028 405.05 347.845 348.258C375.661 291.466 357.117 231.196 302.643 218.447Z" fill="#2F65E0"/>
<ellipse cx="207.066" cy="123.979" rx="13.9083" ry="19.7034" transform="rotate(27.7504 207.066 123.979)" fill="#B3C6F1"/>
<path d="M117.201 123.246C117.245 123.557 117.273 123.921 117.278 124.331L119.519 155.699C113.724 152.222 103.756 143.877 110.246 138.313C115.992 133.389 117.318 127.495 117.278 124.331L117.201 123.246Z" fill="#B3C6F1"/>
<ellipse cx="126.064" cy="184.167" rx="15.6666" ry="10.0985" transform="rotate(-18.5764 126.064 184.167)" fill="#F6F8FE"/>
<path d="M143.858 91.9505C133.38 84.6158 118.165 88.6485 118.767 75.7875C118.915 72.6337 120.346 69.6535 122.068 67.0075C163.798 2.89322 225.503 35.4153 250.487 47.9076C275.986 60.6569 325.824 220.602 322.347 260.009C318.87 299.416 191.377 327.232 177.469 298.257C163.56 269.281 179.363 255.43 183.999 219.5C188.635 183.57 172.833 191.626 180.946 168.446C189.059 145.265 186.741 148.742 170.514 131.357C154.288 113.972 155.448 100.064 143.858 91.9505Z" fill="#4475E3"/>
<path d="M50.999 98.6556L48.5152 99.3091L50.5509 77.8546L52.9965 77.2111L65.3282 94.8851L62.8445 95.5386L52.6646 80.6079L52.5117 80.6481L50.999 98.6556ZM49.9051 90.772L59.9165 88.1376L60.4695 90.2393L50.4581 92.8736L49.9051 90.772Z" fill="#4475E3"/>
<path d="M68.3756 94.0832L63.2276 74.5189L65.5967 73.8955L67.8892 82.6078L78.3209 79.8628L76.0284 71.1506L78.3975 70.5272L83.5456 90.0915L81.1765 90.7149L78.8739 81.9644L68.4422 84.7094L70.7447 93.4598L68.3756 94.0832Z" fill="#4475E3"/>
<path d="M101.105 73.888L101.658 75.9897L93.0984 78.2419L92.5454 76.1403L101.105 73.888Z" fill="#4475E3"/>
</g>
</g>
</svg>
