<svg width="250" height="250" viewBox="0 0 250 250" fill="none" xmlns="http://www.w3.org/2000/svg">
<circle cx="125" cy="125" r="125" fill="#F6F8FE"/>
<mask id="mask0_2168_215167" style="mask-type:alpha" maskUnits="userSpaceOnUse" x="0" y="0" width="250" height="250">
<circle cx="125" cy="125" r="125" fill="#F6F8FE"/>
</mask>
<g mask="url(#mask0_2168_215167)">
<path d="M73.3516 35.6371C73.3516 30.3147 77.6662 26 82.9887 26H161.016C166.339 26 170.654 30.3147 170.654 35.6371V215.458C170.654 220.78 166.339 225.095 161.016 225.095H82.9887C77.6662 225.095 73.3516 220.78 73.3516 215.458V35.6371Z" fill="#4475E3"/>
<path d="M76.3477 35.4191C76.3477 31.8709 79.2241 28.9944 82.7724 28.9944H161.237C164.785 28.9944 167.662 31.8708 167.662 35.4191V215.677C167.662 219.225 164.785 222.101 161.237 222.101H82.7724C79.2241 222.101 76.3477 219.225 76.3477 215.677V35.4191Z" fill="white"/>
<circle cx="120.693" cy="33.2976" r="1.30983" fill="#4475E3"/>
<circle cx="105.203" cy="111.466" r="10.3631" fill="#2057D5"/>
<circle cx="138.826" cy="111.466" r="10.3631" fill="#2057D5"/>
<path d="M145.124 209.424C154.405 211.071 168.645 226.934 180.677 234.498C193.4 245.485 200.135 243.474 200.322 254.801H253.51C247.335 236.214 224.051 209.911 220.159 184.911C215.294 153.663 208.558 148.797 200.886 145.991C193.214 143.184 195.833 148.797 190.594 145.991C185.355 143.184 183.484 149.172 176.56 148.797C169.637 148.423 164.21 159.089 160.655 159.089C157.099 159.089 147.182 145.429 138.762 134.015C130.342 122.601 126.356 117.095 121.734 120.543C118.697 122.808 132.718 145.991 141.007 159.089C149.078 171.843 164.397 191.086 160.655 197.261C156.912 203.436 138.388 195.203 130.716 195.577C123.044 195.952 119.246 203.544 125.289 205.495C131.346 207.45 133.522 207.366 145.124 209.424Z" fill="#B3C6F1"/>
<path d="M134.603 114.046C132.864 118.595 152.912 147.218 163.153 160.96C168.639 159.131 180.169 156.544 176.927 155.129C172.875 153.36 153.777 129.101 148.386 121.965C142.995 114.83 136.777 108.359 134.603 114.046Z" fill="#B3C6F1"/>
</g>
</svg>
