<svg width="250" height="250" viewBox="0 0 250 250" fill="none" xmlns="http://www.w3.org/2000/svg">
<circle cx="125" cy="125" r="125" fill="#F6F8FE"/>
<mask id="mask0_2168_215174" style="mask-type:alpha" maskUnits="userSpaceOnUse" x="0" y="0" width="250" height="250">
<circle cx="125" cy="125" r="125" fill="#F6F8FE"/>
</mask>
<g mask="url(#mask0_2168_215174)">
<mask id="mask1_2168_215174" style="mask-type:alpha" maskUnits="userSpaceOnUse" x="0" y="0" width="250" height="250">
<circle cx="125" cy="125" r="125" fill="#F6F8FE"/>
</mask>
<g mask="url(#mask1_2168_215174)">
<path fill-rule="evenodd" clip-rule="evenodd" d="M191.916 66.5666L207.321 62.4389C209.307 61.9069 211.347 63.0851 211.879 65.0706L223.649 108.997C224.035 110.436 223.525 111.967 222.353 112.887L142.808 175.363L150.84 205.338L143.65 207.265L134.983 174.917C134.597 173.477 135.107 171.947 136.279 171.026L215.824 108.55L205.653 70.5921L193.843 73.7565L191.916 66.5666Z" fill="#4475E3"/>
<path d="M30.695 111.087C28.2509 101.966 33.664 92.5902 42.7855 90.1461L177.272 54.1105C186.394 51.6664 195.769 57.0795 198.214 66.201C200.658 75.3225 195.245 84.6982 186.123 87.1423L51.6363 123.178C42.5148 125.622 33.1391 120.209 30.695 111.087Z" fill="#4475E3"/>
<path d="M37.0515 97.0596C34.2142 86.4706 40.4982 75.5864 51.0872 72.749L163.744 42.5629C174.333 39.7255 185.217 46.0095 188.054 56.5986L194.849 81.9565C197.686 92.5456 191.402 103.43 180.813 106.267L68.1567 136.453C57.5677 139.291 46.6835 133.007 43.8461 122.418L37.0515 97.0596Z" fill="#B3C6F1"/>
<path d="M128.377 209.632L166.128 199.517L184.462 267.94C187.255 278.364 181.068 289.079 170.644 291.873C160.219 294.666 149.504 288.479 146.711 278.055L128.377 209.632Z" fill="#2057D5"/>
</g>
</g>
<path d="M49.9749 147.664C49.0823 144.137 49.4639 142.474 50.1943 141.308C50.7007 140.499 50.2097 139.849 49.4535 140.431C42.7455 145.592 39.5624 159.712 44.171 162.444C49.33 165.501 51.9095 155.309 49.9749 147.664Z" fill="#B3C6F1"/>
<path d="M59.7558 157.841C58.9771 157.032 58.5777 156.376 58.411 155.814C58.1309 154.868 57.5666 154.357 57.0739 155.212C54.2434 160.122 55.3986 167.444 59.0935 167.351C63.4993 167.24 62.9395 161.146 59.7558 157.841Z" fill="#B3C6F1"/>
</svg>
