<svg xmlns="http://www.w3.org/2000/svg" width="70" height="70" viewBox="0 0 70 70">
  <g id="chart-type_donut" transform="translate(7407 -5068)">
    <rect id="Rectangle_2512" data-name="Rectangle 2512" width="70" height="70" transform="translate(-7407 5068)" fill="none"/>
    <g id="Group_7215" data-name="Group 7215" transform="translate(-4.11 -1.95)">
      <path id="Path_3639" data-name="Path 3639" d="M-7347.505,5087.08a25.526,25.526,0,0,1,4.646,7.311,23.814,23.814,0,0,1,2.109,9.078c.061.061-7.766,0-7.766,0a19.969,19.969,0,0,0-1.3-5.469,26.67,26.67,0,0,0-3.2-5.422Z" fill="#b6b6b6"/>
      <path id="Path_3615" data-name="Path 3615" d="M43.6,274.85a19.358,19.358,0,0,1,17.72-19.26v-.07h1.61a19.177,19.177,0,0,1,12.47,4.56l5.53-5.53a26.939,26.939,0,0,0-17.85-6.83h-.29c-.41,0-.82.02-1.23.04l-.27.02c-.36.02-.72.05-1.07.08l-.33.04c-.34.04-.69.08-1.02.13l-.26.04c-.37.06-.74.12-1.13.2l-.09.02a27.023,27.023,0,0,0-21.01,21.03l-.02.09c-.07.36-.14.73-.2,1.1l-.04.26c-.05.34-.09.67-.13,1.01l-.04.34c-.03.35-.06.7-.08,1.06l-.02.29c-.02.45-.03.9-.03,1.37a26.909,26.909,0,0,0,6.85,18l5.52-5.52a19.179,19.179,0,0,1-4.57-12.48Z" transform="translate(-7430.71 4830.23)" fill="#788696"/>
      <path id="Path_3617" data-name="Path 3617" d="M90,276.46H82.18A19.31,19.31,0,0,1,50.45,289.6l-5.52,5.52a27.129,27.129,0,0,0,45.08-18.66Z" transform="translate(-7430.71 4830.23)" fill="#99a2aa"/>
    </g>
  </g>
</svg>
