<svg xmlns="http://www.w3.org/2000/svg" width="70" height="70" viewBox="0 0 70 70">
  <g id="chart-type_line-01" transform="translate(7657 -5163)">
    <rect id="Rectangle_2513" data-name="Rectangle 2513" width="70" height="70" transform="translate(-7657 5163)" fill="none"/>
    <g id="Group_7212" data-name="Group 7212" transform="translate(3.871 -0.127)">
      <path id="Path_3607" data-name="Path 3607" d="M198.19,298.29l-3.46-1.39v.95H144.97V253.5h.95l-1.39-3.47-1.38,3.47h.95v45.22h50.63v.95Z" transform="translate(-7797.021 4923.098)" fill="#ff6d50"/>
      <path id="Path_3608" data-name="Path 3608" d="M149.26,291.23a2.106,2.106,0,0,0,2.1-2.1,2.083,2.083,0,0,0-.86-1.69l6.01-12.73a2.247,2.247,0,0,0,.52.07,2.106,2.106,0,0,0,1.86-1.14l12.56,3.72c0,.07-.02.13-.02.2a2.1,2.1,0,1,0,3.25-1.76l7.51-18.32a1.872,1.872,0,0,0,.42.04,2.094,2.094,0,1,0-1.15-.34l-7.51,18.32a1.872,1.872,0,0,0-.42-.04,2.088,2.088,0,0,0-1.86,1.14l-12.56-3.72c0-.07.02-.13.02-.2a2.1,2.1,0,0,0-4.2,0,2.065,2.065,0,0,0,.87,1.69l-6.02,12.73a2.247,2.247,0,0,0-.52-.07,2.1,2.1,0,1,0,0,4.2Zm32.04-35.81a1.31,1.31,0,1,1,1.31,1.31,1.314,1.314,0,0,1-1.31-1.31Zm-7.77,20.83a1.31,1.31,0,1,1-1.31,1.31A1.314,1.314,0,0,1,173.53,276.25Zm-17.81-3.58a1.31,1.31,0,1,1,1.31,1.31A1.314,1.314,0,0,1,155.72,272.67Zm-6.46,15.14a1.31,1.31,0,1,1-1.31,1.31A1.314,1.314,0,0,1,149.26,287.81Z" transform="translate(-7797.021 4923.098)" fill="#788696"/>
      <path id="Path_3609" data-name="Path 3609" d="M149.26,296.45a2.1,2.1,0,0,0,2.1-2.1,2.064,2.064,0,0,0-.38-1.2l10.79-11.11a2.079,2.079,0,0,0,1.15.35,2.112,2.112,0,0,0,1.32-.48l7.45,6.22a2.032,2.032,0,0,0-.27,1.01,2.1,2.1,0,1,0,3.78-1.25l6.29-6.83a2.094,2.094,0,1,0-1-1.78,2.037,2.037,0,0,0,.42,1.24l-6.29,6.83a2.053,2.053,0,0,0-2.42.16l-7.45-6.22a2.032,2.032,0,0,0,.27-1.01,2.105,2.105,0,0,0-4.21,0,2.138,2.138,0,0,0,.38,1.2L150.4,292.59a2.079,2.079,0,0,0-1.15-.35,2.1,2.1,0,0,0,0,4.2Z" transform="translate(-7797.021 4923.098)" fill="#ff6d50"/>
    </g>
  </g>
</svg>
