<svg xmlns="http://www.w3.org/2000/svg" width="70" height="70" viewBox="0 0 70 70">
  <g id="chart-type_table" transform="translate(7485 -5165)">
    <rect id="Rectangle_2515" data-name="Rectangle 2515" width="70" height="70" transform="translate(-7485 5165)" fill="none"/>
    <g id="Group_7214" data-name="Group 7214" transform="translate(-5.11 2.463)">
      <path id="Path_3650" data-name="Path 3650" d="M.328.047,45.748.033v9L.328,9.047Z" transform="translate(-7463.018 5180)" fill="#d9d9d9"/>
      <path id="Path_3652" data-name="Path 3652" d="M.328.047,45.748.033v9L.328,9.047Z" transform="translate(-7463.018 5197.986)" fill="#d9d9d9"/>
      <path id="Path_3651" data-name="Path 3651" d="M.328.047,45.748.033v9L.328,9.047Z" transform="translate(-7463.218 5215.972)" fill="#d9d9d9"/>
      <path id="Path_3638" data-name="Path 3638" d="M252.07,247.44v54.81h54.82V247.44Zm54.42,9.07h.4v-8.67h-.4Zm-26.81,9.07v-8.67h8.67v8.67Zm8.67.4v8.67h-8.67v-8.67Zm-9.07-.4h-8.67v-8.67h8.67Zm-8.67,9.47,8.67-.4h-8.67v.4Zm-.4-.4h-8.67v-8.67h8.67Zm0,.4v8.67h-8.67v-8.67Zm.4,0h8.67v8.67h-8.67Zm8.67,9.07v8.67h-8.67v-8.67Zm.4,0h8.67v8.67h-8.67Zm0-.4v.4l8.67-.4Zm9.06-8.67h8.67v8.67h-8.67Zm0-.4v-8.67h8.67v8.67Zm0-9.07v-8.67h8.67v8.67Zm18.15-9.07v-8.67h-.41v8.67Zm-.39,0H252.3v-8.67h54.2Zm-54.36,0h.226v-8.67h-.226Zm.07,0h.086v-8.67h-.086Zm9.33,9.47,8.67-.4h-8.67v.4Zm-.4-9.47h-8.67v.4h8.67Zm0,.4v-.4h-8.67v.4Zm0,0v44.94h-8.67V256.91Zm0,45.34v-.4h-8.67v.4Zm.4-18.13h8.67v8.67h-8.67Zm8.67,9.07v8.67h-8.67v-8.67Zm.4,0h8.67v8.67h-8.67Zm9.07,0h8.67v8.67h-8.67Zm9.06,0h8.67v8.67h-8.67Zm0-.4v.4l8.67-.4Zm9.07-8.67h8.67v8.67h-8.67Zm0-.4v-8.67h8.67v8.67Zm0-9.07v-8.67h8.67v8.67Zm0-9.07v-8.67h8.67v8.67Zm-45.67-17.74v8.67h9.4v-8.67h-9.4Zm.33,54.41h8.67v-.39h-8.67v.39Zm45.34-.39v-8.67l-.4,8.66,9.07.01Z" transform="translate(-7723.959 4923.098)" fill="#99a2aa"/>
      <path id="Union_203" data-name="Union 203" d="M0,2.4V0H7.7V2.4Z" transform="translate(-7427.179 5174.487)" fill="#b6b6b6"/>
      <path id="Union_202" data-name="Union 202" d="M0,2.4V0H20.939V2.4Z" transform="translate(-7449.728 5174.487)" fill="#b6b6b6"/>
    </g>
  </g>
</svg>
